<svg width="318" height="184" viewBox="0 0 318 184" fill="none" xmlns="http://www.w3.org/2000/svg">
<path d="M211.579 43.5135C212.34 41.3808 211.228 39.0353 209.095 38.2747C206.962 37.514 204.617 38.6263 203.856 40.759C203.095 42.8917 204.208 45.2372 206.34 45.9978C208.473 46.7584 210.819 45.6462 211.579 43.5135Z" fill="#B1C7BD"/>
<path d="M316.948 89.8001C317.709 87.6674 316.597 85.3219 314.464 84.5613C312.331 83.8007 309.986 84.9129 309.225 87.0456C308.465 89.1783 309.577 91.5238 311.71 92.2844C313.842 93.045 316.188 91.9328 316.948 89.8001Z" fill="#B1C7BD"/>
<path d="M309.225 87.0456C309.986 84.9129 308.874 82.567 306.741 81.8064C304.609 81.0458 302.263 82.158 301.503 84.2907C300.742 86.4234 301.854 88.7689 303.987 89.5295C306.12 90.2902 308.465 89.1783 309.225 87.0456Z" fill="#B1C7BD"/>
<path d="M301.503 84.2907C302.263 82.158 301.15 79.8131 299.018 79.0525C296.885 78.2919 294.54 79.4041 293.779 81.5368C293.018 83.6695 294.131 86.015 296.263 86.7756C298.396 87.5363 300.742 86.4234 301.503 84.2907Z" fill="#B1C7BD"/>
<path d="M293.779 81.5368C294.54 79.4041 293.428 77.0583 291.295 76.2976C289.162 75.537 286.817 76.6493 286.056 78.7819C285.296 80.9146 286.408 83.2601 288.541 84.0207C290.673 84.7814 293.018 83.6695 293.779 81.5368Z" fill="#B1C7BD"/>
<path d="M286.056 78.7819C286.817 76.6493 285.704 74.3044 283.571 73.5437C281.439 72.7831 279.093 73.8953 278.333 76.028C277.572 78.1607 278.684 80.5062 280.817 81.2668C282.95 82.0275 285.296 80.9146 286.056 78.7819Z" fill="#5E8071"/>
<path d="M278.333 76.028C279.093 73.8953 277.981 71.549 275.849 70.7883C273.716 70.0277 271.371 71.14 270.61 73.2727C269.849 75.4053 270.962 77.7508 273.094 78.5115C275.227 79.2721 277.572 78.1607 278.333 76.028Z" fill="#B1C7BD"/>
<path d="M270.61 73.2727C271.371 71.14 270.258 68.7946 268.125 68.034C265.993 67.2733 263.647 68.3856 262.886 70.5183C262.126 72.6509 263.238 74.9964 265.371 75.7571C267.503 76.5177 269.849 75.4053 270.61 73.2727Z" fill="#AEBCC9"/>
<path d="M255.163 67.7635C255.924 65.6308 254.812 63.2853 252.679 62.5247C250.546 61.764 248.201 62.8763 247.44 65.009C246.679 67.1417 247.792 69.4872 249.924 70.2478C252.057 71.0084 254.403 69.8962 255.163 67.7635Z" fill="#7DA090"/>
<path d="M247.44 65.009C248.201 62.8763 247.089 60.5314 244.956 59.7708C242.824 59.0101 240.478 60.1224 239.717 62.2551C238.957 64.3878 240.069 66.7333 242.202 67.4939C244.334 68.2545 246.679 67.1417 247.44 65.009Z" fill="#7EA191"/>
<path d="M298.747 92.014C299.508 89.8813 298.396 87.5363 296.263 86.7756C294.131 86.015 291.785 87.1268 291.024 89.2595C290.263 91.3921 291.376 93.7376 293.508 94.4983C295.641 95.2589 297.987 94.1466 298.747 92.014Z" fill="#B2C8BD"/>
<path d="M291.024 89.2595C291.785 87.1268 290.673 84.7814 288.541 84.0207C286.408 83.2601 284.062 84.3724 283.301 86.5051C282.541 88.6378 283.653 90.9832 285.786 91.7439C287.918 92.5045 290.263 91.3921 291.024 89.2595Z" fill="#B1C7BD"/>
<path d="M283.301 86.5051C284.062 84.3724 282.95 82.0275 280.817 81.2668C278.684 80.5062 276.338 81.6185 275.578 83.7512C274.817 85.8838 275.929 88.2293 278.062 88.99C280.195 89.7506 282.541 88.6378 283.301 86.5051Z" fill="#B1C7BD"/>
<path d="M275.578 83.7512C276.338 81.6185 275.227 79.2721 273.094 78.5115C270.962 77.7508 268.616 78.8631 267.855 80.9958C267.094 83.1285 268.207 85.474 270.339 86.2346C272.472 86.9952 274.817 85.8838 275.578 83.7512Z" fill="#B1C7BD"/>
<path d="M267.855 80.9969C268.615 78.8642 267.503 76.5187 265.37 75.7581C263.238 74.9974 260.892 76.1097 260.131 78.2424C259.371 80.375 260.483 82.7205 262.616 83.4812C264.748 84.2418 267.094 83.1296 267.855 80.9969Z" fill="#B1C7BD"/>
<path d="M252.408 75.4876C253.169 73.3549 252.057 71.0094 249.924 70.2488C247.791 69.4882 245.446 70.6004 244.685 72.7331C243.925 74.8658 245.037 77.2113 247.17 77.9719C249.302 78.7325 251.648 77.6203 252.408 75.4876Z" fill="#7DA090"/>
<path d="M244.685 72.7331C245.446 70.6004 244.334 68.2545 242.202 67.4939C240.069 66.7333 237.723 67.8455 236.963 69.9782C236.202 72.1109 237.314 74.4564 239.447 75.217C241.58 75.9777 243.925 74.8658 244.685 72.7331Z" fill="#7DA090"/>
<path d="M257.378 85.9642C258.139 83.8315 257.026 81.486 254.894 80.7254C252.761 79.9647 250.416 81.077 249.655 83.2097C248.894 85.3423 250.007 87.6878 252.139 88.4485C254.272 89.2091 256.617 88.0968 257.378 85.9642Z" fill="#29503E"/>
<path d="M249.654 83.2107C250.415 81.0781 249.302 78.7325 247.17 77.9719C245.037 77.2113 242.692 78.3236 241.931 80.4562C241.171 82.5889 242.283 84.9344 244.416 85.6951C246.548 86.4557 248.894 85.3434 249.654 83.2107Z" fill="#7DA091"/>
<path d="M241.931 80.4562C242.692 78.3236 241.58 75.9777 239.447 75.217C237.314 74.4564 234.968 75.5687 234.208 77.7014C233.447 79.834 234.559 82.1795 236.692 82.9402C238.825 83.7008 241.171 82.5889 241.931 80.4562Z" fill="#799E8E"/>
<path d="M246.9 90.9334C247.66 88.8007 246.548 86.4557 244.416 85.6951C242.283 84.9344 239.937 86.0462 239.176 88.1789C238.416 90.3116 239.528 92.6571 241.661 93.4177C243.793 94.1783 246.139 93.0661 246.9 90.9334Z" fill="#294F40"/>
<path d="M236.422 95.9022C237.183 93.7695 236.07 91.424 233.938 90.6633C231.805 89.9027 229.46 91.015 228.699 93.1477C227.938 95.2803 229.051 97.6258 231.183 98.3865C233.316 99.1471 235.661 98.0348 236.422 95.9022Z" fill="#294F40"/>
<path d="M317.488 63.8764C318.249 61.7437 317.136 59.3982 315.004 58.6376C312.871 57.8769 310.526 58.9892 309.765 61.1219C309.004 63.2546 310.117 65.6 312.249 66.3607C314.382 67.1213 316.727 66.0091 317.488 63.8764Z" fill="#B2C8BD"/>
<path d="M309.765 61.1219C310.526 58.9892 309.414 56.6437 307.281 55.8831C305.149 55.1224 302.803 56.2347 302.043 58.3674C301.282 60.5001 302.394 62.8456 304.527 63.6062C306.66 64.3668 309.004 63.2546 309.765 61.1219Z" fill="#B1C7BD"/>
<path d="M302.043 58.3674C302.803 56.2347 301.69 53.8899 299.558 53.1293C297.425 52.3687 295.08 53.4809 294.319 55.6136C293.558 57.7463 294.67 60.0918 296.803 60.8524C298.936 61.613 301.282 60.5001 302.043 58.3674Z" fill="#B1C7BD"/>
<path d="M294.317 55.6126C295.078 53.4799 293.966 51.1344 291.833 50.3738C289.701 49.6132 287.355 50.7254 286.594 52.8581C285.834 54.9908 286.946 57.3363 289.079 58.0969C291.211 58.8575 293.557 57.7453 294.317 55.6126Z" fill="#B1C7BD"/>
<path d="M286.596 52.859C287.356 50.7263 286.244 48.3808 284.111 47.6202C281.979 46.8595 279.633 47.9718 278.873 50.1045C278.112 52.2371 279.224 54.5826 281.357 55.3433C283.49 56.1039 285.835 54.9916 286.596 52.859Z" fill="#AEBCC9"/>
<path d="M314.733 71.5989C315.493 69.4663 314.381 67.1208 312.248 66.3601C310.116 65.5995 307.77 66.7118 307.009 68.8444C306.249 70.9771 307.361 73.3226 309.494 74.0832C311.626 74.8439 313.972 73.7316 314.733 71.5989Z" fill="#B1C7BD"/>
<path d="M307.011 68.8448C307.771 66.7121 306.66 64.3668 304.527 63.6062C302.394 62.8456 300.048 63.9576 299.288 66.0903C298.527 68.223 299.639 70.5685 301.772 71.3291C303.905 72.0897 306.25 70.9775 307.011 68.8448Z" fill="#668879"/>
<path d="M299.288 66.0903C300.048 63.9576 298.936 61.612 296.803 60.8513C294.67 60.0907 292.325 61.203 291.564 63.3356C290.803 65.4683 291.916 67.8138 294.048 68.5744C296.181 69.3351 298.527 68.223 299.288 66.0903Z" fill="#B3C9BF"/>
<path d="M291.564 63.3356C292.325 61.203 291.213 58.8575 289.08 58.0969C286.948 57.3362 284.602 58.4485 283.841 60.5812C283.081 62.7138 284.193 65.0593 286.326 65.82C288.458 66.5806 290.803 65.4683 291.564 63.3356Z" fill="#B1C7BD"/>
<path d="M283.841 60.5812C284.602 58.4485 283.49 56.1039 281.357 55.3433C279.224 54.5826 276.878 55.6947 276.118 57.8273C275.357 59.96 276.469 62.3055 278.602 63.0661C280.735 63.8268 283.081 62.7138 283.841 60.5812Z" fill="#B1C7BD"/>
<path d="M276.118 57.8273C276.878 55.6947 275.766 53.3493 273.634 52.5887C271.501 51.828 269.156 52.9403 268.395 55.073C267.634 57.2057 268.747 59.5512 270.879 60.3118C273.012 61.0724 275.357 59.96 276.118 57.8273Z" fill="#B1C7BD"/>
<path d="M311.98 79.3226C312.74 77.1899 311.628 74.8444 309.495 74.0838C307.363 73.3231 305.017 74.4354 304.256 76.5681C303.496 78.7007 304.609 81.0458 306.741 81.8064C308.874 82.567 311.219 81.4552 311.98 79.3226Z" fill="#B2C7BD"/>
<path d="M304.256 76.5681C305.017 74.4354 303.905 72.0897 301.772 71.3291C299.639 70.5685 297.293 71.6817 296.533 73.8144C295.772 75.947 296.885 78.2919 299.018 79.0525C301.15 79.8131 303.496 78.7007 304.256 76.5681Z" fill="#B1C7BD"/>
<path d="M296.532 73.8133C297.293 71.6806 296.181 69.3351 294.048 68.5744C291.916 67.8138 289.57 68.9261 288.809 71.0588C288.049 73.1915 289.161 75.537 291.294 76.2976C293.426 77.0582 295.772 75.946 296.532 73.8133Z" fill="#B1C7BD"/>
<path d="M288.809 71.0588C289.57 68.9261 288.458 66.5806 286.326 65.82C284.193 65.0593 281.847 66.1716 281.087 68.3043C280.326 70.4369 281.439 72.7831 283.571 73.5437C285.704 74.3044 288.049 73.1915 288.809 71.0588Z" fill="#9EB6AB"/>
<path d="M281.087 68.3043C281.847 66.1716 280.735 63.8268 278.602 63.0661C276.469 62.3055 274.125 63.4178 273.364 65.5505C272.603 67.6832 273.716 70.0287 275.848 70.7893C277.981 71.5499 280.326 70.4369 281.087 68.3043Z" fill="#B3C9BF"/>
<path d="M273.363 65.5496C274.124 63.4169 273.012 61.0714 270.879 60.3108C268.746 59.5502 266.401 60.6624 265.64 62.7951C264.88 64.9278 265.993 67.2733 268.125 68.034C270.258 68.7946 272.603 67.6823 273.363 65.5496Z" fill="#B1C7BD"/>
<path d="M265.641 62.7962C266.401 60.6635 265.289 58.318 263.156 57.5574C261.024 56.7968 258.678 57.909 257.918 60.0417C257.157 62.1744 258.269 64.5199 260.402 65.2805C262.535 66.0411 264.88 64.9289 265.641 62.7962Z" fill="#B1C7BD"/>
<path d="M234.748 51.7775C235.509 49.6448 234.396 47.2994 232.264 46.5387C230.131 45.7781 227.785 46.8903 227.025 49.023C226.264 51.1557 227.376 53.5012 229.509 54.2618C231.642 55.0225 233.987 53.9102 234.748 51.7775Z" fill="#749687"/>
<path d="M208.824 51.2372C209.585 49.1045 208.473 46.7584 206.34 45.9978C204.208 45.2372 201.862 46.35 201.101 48.4827C200.34 50.6153 201.453 52.9608 203.585 53.7215C205.718 54.4821 208.064 53.3698 208.824 51.2372Z" fill="#AAC2CB"/>
<path d="M201.101 48.4827C201.862 46.35 200.749 44.0045 198.616 43.2439C196.484 42.4833 194.138 43.5955 193.378 45.7282C192.617 47.8609 193.729 50.2064 195.862 50.967C197.995 51.7277 200.34 50.6153 201.101 48.4827Z" fill="#B1C7BD"/>
<path d="M193.378 45.7282C194.138 43.5955 193.026 41.2499 190.894 40.4892C188.761 39.7286 186.416 40.8408 185.655 42.9735C184.894 45.1062 186.007 47.4517 188.139 48.2123C190.272 48.973 192.617 47.8609 193.378 45.7282Z" fill="#B3C9BF"/>
<path d="M206.069 58.9603C206.83 56.8276 205.718 54.4821 203.585 53.7215C201.453 52.9608 199.107 54.0731 198.346 56.2058C197.586 58.3385 198.698 60.684 200.831 61.4446C202.963 62.2053 205.309 61.093 206.069 58.9603Z" fill="#B1C7BD"/>
<path d="M198.346 56.2058C199.107 54.0731 197.995 51.7277 195.862 50.967C193.729 50.2064 191.384 51.3187 190.624 53.4514C189.863 55.584 190.975 57.9295 193.108 58.6902C195.241 59.4508 197.586 58.3385 198.346 56.2058Z" fill="#7EA191"/>
<path d="M190.624 53.4514C191.384 51.3187 190.272 48.973 188.139 48.2123C186.007 47.4517 183.661 48.5638 182.9 50.6965C182.139 52.8292 183.252 55.1747 185.384 55.9353C187.517 56.6959 189.863 55.584 190.624 53.4514Z" fill="#B1C7BD"/>
<path d="M211.038 69.438C211.799 67.3053 210.687 64.9598 208.554 64.1992C206.421 63.4385 204.076 64.5508 203.315 66.6835C202.555 68.8162 203.667 71.1617 205.799 71.9223C207.932 72.6829 210.278 71.5707 211.038 69.438Z" fill="#A8C0CA"/>
<path d="M203.315 66.6835C204.076 64.5508 202.963 62.2053 200.831 61.4446C198.698 60.684 196.352 61.7962 195.591 63.9289C194.831 66.0616 195.943 68.4071 198.076 69.1677C200.208 69.9283 202.555 68.8162 203.315 66.6835Z" fill="#A9BFB5"/>
<path d="M195.591 63.9289C196.352 61.7962 195.241 59.4508 193.108 58.6902C190.975 57.9295 188.629 59.0418 187.869 61.1745C187.108 63.3072 188.22 65.6527 190.353 66.4133C192.486 67.1739 194.831 66.0616 195.591 63.9289Z" fill="#B1C7BD"/>
<path d="M187.869 61.1745C188.629 59.0418 187.517 56.6969 185.384 55.9363C183.251 55.1757 180.906 56.2879 180.145 58.4206C179.385 60.5533 180.497 62.8988 182.629 63.6594C184.762 64.42 187.108 63.3072 187.869 61.1745Z" fill="#B1C7BD"/>
<path d="M208.283 77.1611C209.044 75.0285 207.932 72.6829 205.799 71.9223C203.667 71.1617 201.321 72.274 200.56 74.4066C199.8 76.5393 200.912 78.8848 203.045 79.6454C205.177 80.4061 207.523 79.2938 208.283 77.1611Z" fill="#B2C7BE"/>
<path d="M200.56 74.4066C201.321 72.274 200.208 69.9283 198.076 69.1677C195.943 68.4071 193.598 69.5193 192.837 71.6519C192.077 73.7846 193.189 76.1301 195.322 76.8907C197.454 77.6514 199.8 76.5393 200.56 74.4066Z" fill="#A9BFB5"/>
<path d="M192.837 71.6519C193.598 69.5193 192.486 67.1739 190.353 66.4133C188.22 65.6527 185.875 66.7645 185.114 68.8972C184.353 71.0298 185.466 73.3753 187.598 74.136C189.731 74.8966 192.077 73.7846 192.837 71.6519Z" fill="#B1C7BD"/>
<path d="M146.499 55.1253C147.26 52.9926 146.147 50.6471 144.015 49.8865C141.882 49.1258 139.536 50.2381 138.776 52.3708C138.015 54.5035 139.127 56.8489 141.26 57.6096C143.393 58.3702 145.738 57.258 146.499 55.1253Z" fill="#7CA08F"/>
<path d="M138.776 52.3708C139.536 50.2381 138.424 47.8927 136.291 47.1321C134.159 46.3715 131.813 47.4837 131.052 49.6164C130.292 51.7491 131.404 54.0946 133.537 54.8552C135.669 55.6158 138.015 54.5035 138.776 52.3708Z" fill="#7DA091"/>
<path d="M205.529 84.8841C206.29 82.7514 205.177 80.4061 203.045 79.6454C200.912 78.8848 198.567 79.9969 197.806 82.1296C197.046 84.2623 198.158 86.6078 200.291 87.3684C202.423 88.129 204.769 87.0168 205.529 84.8841Z" fill="#AEBCC9"/>
<path d="M197.806 82.1296C198.567 79.9969 197.454 77.6514 195.322 76.8907C193.189 76.1301 190.843 77.2424 190.083 79.375C189.322 81.5077 190.434 83.8532 192.567 84.6138C194.7 85.3745 197.046 84.2623 197.806 82.1296Z" fill="#B2C7BE"/>
<path d="M159.191 68.3567C159.951 66.2241 158.839 63.8786 156.706 63.1179C154.574 62.3573 152.228 63.4696 151.467 65.6022C150.707 67.7349 151.819 70.0804 153.952 70.841C156.084 71.6017 158.43 70.4894 159.191 68.3567Z" fill="#7DA090"/>
<path d="M151.468 65.6033C152.228 63.4706 151.116 61.1251 148.983 60.3645C146.851 59.6039 144.505 60.7161 143.745 62.8488C142.984 64.9815 144.096 67.327 146.229 68.0876C148.362 68.8482 150.707 67.736 151.468 65.6033Z" fill="#7DA090"/>
<path d="M143.745 62.8488C144.505 60.7161 143.393 58.3702 141.26 57.6096C139.127 56.8489 136.782 57.9613 136.021 60.0939C135.26 62.2266 136.373 64.5721 138.505 65.3327C140.638 66.0934 142.984 64.9815 143.745 62.8488Z" fill="#597C6C"/>
<path d="M136.021 60.0939C136.782 57.9613 135.669 55.6158 133.537 54.8552C131.404 54.0946 129.059 55.2068 128.298 57.3395C127.538 59.4722 128.65 61.8177 130.783 62.5783C132.915 63.339 135.26 62.2266 136.021 60.0939Z" fill="#7DA090"/>
<path d="M272.282 117.398C273.043 115.266 271.931 112.92 269.798 112.159C267.665 111.399 265.32 112.511 264.559 114.644C263.799 116.776 264.911 119.122 267.044 119.883C269.176 120.643 271.522 119.531 272.282 117.398Z" fill="#53877A"/>
<path d="M264.559 114.644C265.32 112.511 264.208 110.166 262.075 109.405C259.943 108.644 257.597 109.757 256.836 111.889C256.076 114.022 257.188 116.367 259.321 117.128C261.453 117.889 263.799 116.776 264.559 114.644Z" fill="#53877A"/>
<path d="M256.836 111.889C257.597 109.757 256.485 107.411 254.352 106.65C252.219 105.89 249.874 107.002 249.113 109.135C248.352 111.267 249.465 113.613 251.597 114.373C253.73 115.134 256.076 114.022 256.836 111.889Z" fill="#53877A"/>
<path d="M249.113 109.135C249.874 107.002 248.762 104.656 246.629 103.896C244.496 103.135 242.151 104.247 241.39 106.38C240.63 108.513 241.742 110.858 243.875 111.619C246.007 112.38 248.352 111.267 249.113 109.135Z" fill="#53877A"/>
<path d="M241.39 106.38C242.151 104.247 241.038 101.902 238.906 101.141C236.773 100.381 234.427 101.493 233.667 103.626C232.906 105.758 234.018 108.104 236.151 108.864C238.284 109.625 240.63 108.513 241.39 106.38Z" fill="#53877A"/>
<path d="M233.667 103.626C234.427 101.493 233.316 99.1471 231.183 98.3865C229.051 97.6258 226.704 98.7383 225.944 100.871C225.183 103.004 226.295 105.349 228.428 106.11C230.561 106.87 232.906 105.758 233.667 103.626Z" fill="#53877A"/>
<path d="M210.497 95.3616C211.258 93.2289 210.146 90.8835 208.013 90.1228C205.88 89.3622 203.535 90.4744 202.774 92.6071C202.013 94.7398 203.126 97.0853 205.258 97.8459C207.391 98.6066 209.737 97.4943 210.497 95.3616Z" fill="#294F3E"/>
<path d="M202.774 92.6071C203.535 90.4744 202.423 88.129 200.291 87.3684C198.158 86.6078 195.812 87.72 195.051 89.8527C194.291 91.9854 195.403 94.3309 197.536 95.0915C199.668 95.8521 202.013 94.7398 202.774 92.6071Z" fill="#999999"/>
<path d="M164.159 78.8343C164.92 76.7016 163.807 74.3561 161.675 73.5955C159.542 72.8348 157.197 73.9471 156.436 76.0798C155.675 78.2124 156.788 80.5579 158.92 81.3186C161.053 82.0792 163.398 80.9669 164.159 78.8343Z" fill="#7DA090"/>
<path d="M156.436 76.0809C157.196 73.9482 156.084 71.6027 153.951 70.8421C151.819 70.0814 149.473 71.1937 148.713 73.3264C147.952 75.459 149.064 77.8045 151.197 78.5652C153.33 79.3258 155.675 78.2135 156.436 76.0809Z" fill="#7DA090"/>
<path d="M148.713 73.325C149.474 71.1923 148.361 68.8468 146.229 68.0862C144.096 67.3256 141.751 68.4378 140.99 70.5705C140.229 72.7032 141.342 75.0487 143.474 75.8093C145.607 76.5699 147.952 75.4577 148.713 73.325Z" fill="#597C6C"/>
<path d="M140.99 70.5716C141.751 68.4389 140.638 66.0934 138.505 65.3327C136.373 64.5721 134.028 65.6844 133.267 67.8171C132.506 69.9497 133.619 72.2952 135.751 73.0559C137.884 73.8165 140.229 72.7042 140.99 70.5716Z" fill="#7DA090"/>
<path d="M133.267 67.8171C134.028 65.6844 132.915 63.339 130.783 62.5783C128.65 61.8177 126.304 62.93 125.543 65.0627C124.783 67.1953 125.895 69.5408 128.028 70.3015C130.16 71.0621 132.506 69.9497 133.267 67.8171Z" fill="#7DA090"/>
<path d="M269.528 125.12C270.289 122.988 269.177 120.642 267.044 119.882C264.911 119.121 262.566 120.233 261.805 122.366C261.045 124.499 262.157 126.844 264.29 127.605C266.422 128.365 268.768 127.253 269.528 125.12Z" fill="#558778"/>
<path d="M261.805 122.367C262.565 120.234 261.453 117.889 259.321 117.128C257.188 116.367 254.842 117.48 254.082 119.612C253.321 121.745 254.433 124.09 256.566 124.851C258.699 125.612 261.044 124.5 261.805 122.367Z" fill="#53877A"/>
<path d="M254.082 119.611C254.843 117.478 253.731 115.133 251.598 114.372C249.465 113.612 247.12 114.724 246.359 116.857C245.598 118.989 246.711 121.335 248.843 122.095C250.976 122.856 253.322 121.744 254.082 119.611Z" fill="#53877A"/>
<path d="M246.359 116.858C247.119 114.725 246.007 112.38 243.875 111.619C241.742 110.858 239.396 111.97 238.636 114.103C237.875 116.236 238.987 118.581 241.12 119.342C243.253 120.103 245.598 118.99 246.359 116.858Z" fill="#365D4C"/>
<path d="M238.636 114.103C239.396 111.97 238.284 109.625 236.151 108.864C234.018 108.104 231.673 109.216 230.913 111.349C230.152 113.482 231.264 115.827 233.397 116.588C235.53 117.348 237.875 116.236 238.636 114.103Z" fill="#53877A"/>
<path d="M230.913 111.349C231.673 109.216 230.561 106.87 228.428 106.11C226.295 105.349 223.95 106.461 223.189 108.594C222.429 110.727 223.541 113.072 225.673 113.833C227.806 114.593 230.152 113.482 230.913 111.349Z" fill="#53877A"/>
<path d="M223.189 108.594C223.95 106.461 222.838 104.116 220.705 103.355C218.573 102.595 216.227 103.707 215.466 105.84C214.706 107.972 215.818 110.318 217.951 111.078C220.083 111.839 222.429 110.727 223.189 108.594Z" fill="#53877A"/>
<path d="M200.02 100.33C200.78 98.1977 199.668 95.8521 197.536 95.0915C195.403 94.3309 193.057 95.4432 192.297 97.5758C191.536 99.7085 192.648 102.054 194.781 102.815C196.914 103.575 199.259 102.463 200.02 100.33Z" fill="#29503E"/>
<path d="M161.404 86.5584C162.165 84.4257 161.053 82.0802 158.92 81.3196C156.787 80.559 154.442 81.6712 153.681 83.8039C152.921 85.9366 154.033 88.2821 156.166 89.0427C158.298 89.8033 160.644 88.6911 161.404 86.5584Z" fill="#7DA090"/>
<path d="M153.681 83.8039C154.442 81.6712 153.33 79.3258 151.197 78.5652C149.064 77.8045 146.719 78.9168 145.958 81.0495C145.198 83.1822 146.31 85.5276 148.443 86.2883C150.575 87.0489 152.921 85.9366 153.681 83.8039Z" fill="#7C9E8F"/>
<path d="M145.958 81.0481C146.719 78.9155 145.607 76.5699 143.474 75.8093C141.342 75.0487 138.996 76.161 138.235 78.2936C137.474 80.4263 138.587 82.7718 140.719 83.5325C142.852 84.2931 145.197 83.1808 145.958 81.0481Z" fill="#7DA090"/>
<path d="M138.235 78.2947C138.996 76.162 137.884 73.8165 135.751 73.0559C133.619 72.2952 131.273 73.4075 130.512 75.5402C129.751 77.6729 130.864 80.0184 132.996 80.779C135.129 81.5396 137.475 80.4274 138.235 78.2947Z" fill="#7DA090"/>
<path d="M130.512 75.5402C131.273 73.4075 130.16 71.0621 128.028 70.3015C125.895 69.5408 123.549 70.6532 122.789 72.7858C122.028 74.9185 123.14 77.264 125.273 78.0246C127.406 78.7853 129.751 77.6729 130.512 75.5402Z" fill="#557171"/>
<path d="M259.051 130.09C259.812 127.957 258.699 125.612 256.566 124.851C254.433 124.09 252.089 125.203 251.328 127.336C250.567 129.468 251.68 131.814 253.812 132.574C255.945 133.335 258.29 132.223 259.051 130.09Z" fill="#528578"/>
<path d="M251.327 127.334C252.088 125.202 250.976 122.856 248.843 122.095C246.711 121.335 244.365 122.447 243.604 124.58C242.843 126.713 243.956 129.058 246.088 129.819C248.221 130.579 250.567 129.467 251.327 127.334Z" fill="#53877A"/>
<path d="M243.604 124.581C244.364 122.448 243.253 120.103 241.12 119.342C238.987 118.581 236.641 119.694 235.881 121.826C235.12 123.959 236.232 126.305 238.365 127.065C240.497 127.826 242.843 126.714 243.604 124.581Z" fill="#53877A"/>
<path d="M235.881 121.826C236.641 119.694 235.53 117.348 233.397 116.588C231.264 115.827 228.918 116.939 228.158 119.071C227.397 121.204 228.509 123.55 230.642 124.31C232.775 125.071 235.12 123.959 235.881 121.826Z" fill="#53877A"/>
<path d="M228.158 119.071C228.918 116.939 227.806 114.593 225.673 113.833C223.541 113.072 221.196 114.184 220.435 116.317C219.675 118.45 220.787 120.795 222.919 121.556C225.052 122.317 227.397 121.204 228.158 119.071Z" fill="#53877A"/>
<path d="M220.435 116.317C221.196 114.184 220.083 111.839 217.951 111.078C215.818 110.318 213.472 111.43 212.712 113.563C211.951 115.695 213.063 118.041 215.196 118.801C217.329 119.562 219.675 118.45 220.435 116.317Z" fill="#3E6453"/>
<path d="M212.712 113.563C213.472 111.43 212.36 109.084 210.228 108.324C208.095 107.563 205.75 108.675 204.989 110.808C204.228 112.94 205.341 115.286 207.473 116.047C209.606 116.807 211.951 115.695 212.712 113.563Z" fill="#53877A"/>
<path d="M204.989 110.808C205.75 108.675 204.637 106.33 202.504 105.569C200.371 104.808 198.026 105.921 197.265 108.053C196.505 110.186 197.617 112.532 199.75 113.292C201.882 114.053 204.228 112.94 204.989 110.808Z" fill="#557171"/>
<path d="M197.265 108.053C198.026 105.921 196.914 103.575 194.781 102.815C192.648 102.054 190.303 103.166 189.543 105.299C188.782 107.432 189.894 109.777 192.027 110.538C194.16 111.298 196.505 110.186 197.265 108.053Z" fill="#808080"/>
<path d="M166.374 97.0355C167.135 94.9028 166.023 92.5573 163.89 91.7966C161.757 91.036 159.412 92.1483 158.651 94.281C157.89 96.4136 159.003 98.7591 161.135 99.5198C163.268 100.28 165.613 99.1681 166.374 97.0355Z" fill="#7EA08F"/>
<path d="M158.65 94.2815C159.41 92.1489 158.298 89.8033 156.166 89.0427C154.033 88.2821 151.687 89.3944 150.926 91.527C150.166 93.6597 151.278 96.0052 153.411 96.7659C155.543 97.5265 157.889 96.4142 158.65 94.2815Z" fill="#7DA090"/>
<path d="M150.926 91.527C151.687 89.3944 150.575 87.0489 148.443 86.2883C146.31 85.5276 143.964 86.639 143.204 88.7717C142.443 90.9044 143.555 93.2499 145.688 94.0105C147.821 94.7711 150.166 93.6597 150.926 91.527Z" fill="#7DA090"/>
<path d="M143.204 88.7717C143.964 86.639 142.852 84.2941 140.72 83.5334C138.587 82.7728 136.241 83.8851 135.481 86.0177C134.72 88.1504 135.833 90.4959 137.965 91.2565C140.098 92.0172 142.443 90.9044 143.204 88.7717Z" fill="#7DA090"/>
<path d="M135.481 86.0177C136.241 83.8851 135.129 81.5396 132.996 80.779C130.864 80.0184 128.518 81.1307 127.757 83.2634C126.997 85.3961 128.109 87.7415 130.242 88.5022C132.374 89.2628 134.72 88.1504 135.481 86.0177Z" fill="#7DA090"/>
<path d="M240.85 132.304C241.61 130.171 240.497 127.826 238.365 127.065C236.232 126.305 233.887 127.417 233.127 129.549C232.366 131.682 233.478 134.028 235.611 134.788C237.744 135.549 240.089 134.437 240.85 132.304Z" fill="#53877A"/>
<path d="M233.127 129.549C233.887 127.417 232.775 125.071 230.642 124.31C228.509 123.55 226.164 124.662 225.403 126.795C224.642 128.927 225.755 131.273 227.887 132.033C230.02 132.794 232.366 131.682 233.127 129.549Z" fill="#53877A"/>
<path d="M225.403 126.795C226.164 124.662 225.052 122.317 222.919 121.556C220.787 120.795 218.441 121.908 217.68 124.04C216.919 126.173 218.032 128.518 220.164 129.279C222.297 130.04 224.642 128.927 225.403 126.795Z" fill="#53877A"/>
<path d="M217.68 124.04C218.441 121.908 217.329 119.562 215.196 118.801C213.063 118.041 210.718 119.153 209.958 121.285C209.197 123.418 210.309 125.764 212.442 126.524C214.575 127.285 216.919 126.173 217.68 124.04Z" fill="#53877A"/>
<path d="M209.958 121.285C210.718 119.153 209.606 116.807 207.473 116.047C205.341 115.286 202.995 116.398 202.234 118.531C201.473 120.664 202.586 123.009 204.718 123.77C206.851 124.531 209.197 123.418 209.958 121.285Z" fill="#53877A"/>
<path d="M202.234 118.531C202.995 116.398 201.882 114.053 199.75 113.292C197.617 112.532 195.271 113.644 194.51 115.777C193.75 117.909 194.862 120.255 196.995 121.015C199.127 121.776 201.473 120.664 202.234 118.531Z" fill="#53877A"/>
<path d="M194.51 115.777C195.271 113.644 194.16 111.298 192.027 110.538C189.894 109.777 187.548 110.889 186.788 113.022C186.027 115.155 187.139 117.5 189.272 118.261C191.405 119.021 193.75 117.909 194.51 115.777Z" fill="#2E5240"/>
<path d="M186.788 113.022C187.548 110.889 186.437 108.544 184.304 107.783C182.171 107.022 179.826 108.135 179.065 110.267C178.304 112.4 179.417 114.745 181.549 115.506C183.682 116.267 186.027 115.155 186.788 113.022Z" fill="#255141"/>
<path d="M163.618 104.759C164.379 102.626 163.267 100.281 161.134 99.5203C159.001 98.7596 156.656 99.8719 155.895 102.005C155.135 104.137 156.247 106.483 158.379 107.243C160.512 108.004 162.858 106.892 163.618 104.759Z" fill="#7DA090"/>
<path d="M155.895 102.005C156.656 99.8719 155.543 97.5265 153.411 96.7659C151.278 96.0052 148.933 97.1175 148.172 99.2502C147.412 101.383 148.524 103.728 150.657 104.489C152.789 105.25 155.135 104.137 155.895 102.005Z" fill="#537767"/>
<path d="M148.172 99.2502C148.933 97.1175 147.821 94.7711 145.688 94.0105C143.555 93.2499 141.21 94.3621 140.449 96.4948C139.688 98.6275 140.8 100.973 142.933 101.734C145.066 102.494 147.412 101.383 148.172 99.2502Z" fill="#7DA090"/>
<path d="M140.449 96.4948C141.21 94.3621 140.098 92.0172 137.965 91.2565C135.833 90.4959 133.487 91.6082 132.726 93.7409C131.965 95.8736 133.078 98.2191 135.21 98.9797C137.343 99.7403 139.688 98.6275 140.449 96.4948Z" fill="#7DA090"/>
<path d="M132.726 93.7409C133.487 91.6082 132.374 89.2628 130.242 88.5022C128.109 87.7415 125.764 88.8538 125.003 90.9865C124.243 93.1192 125.355 95.4647 127.488 96.2253C129.62 96.9859 131.965 95.8736 132.726 93.7409Z" fill="#7DA090"/>
<path d="M184.033 120.745C184.794 118.612 183.682 116.267 181.549 115.506C179.417 114.745 177.071 115.858 176.31 117.991C175.549 120.123 176.662 122.469 178.794 123.229C180.927 123.99 183.272 122.878 184.033 120.745Z" fill="#284E3F"/>
<path d="M176.31 117.991C177.071 115.858 175.958 113.512 173.825 112.752C171.693 111.991 169.347 113.103 168.587 115.236C167.826 117.369 168.938 119.714 171.071 120.475C173.204 121.235 175.549 120.123 176.31 117.991Z" fill="#274E3F"/>
<path d="M160.864 112.481C161.625 110.349 160.513 108.003 158.38 107.242C156.247 106.482 153.902 107.594 153.141 109.727C152.38 111.859 153.493 114.205 155.625 114.966C157.758 115.726 160.104 114.614 160.864 112.481Z" fill="#7DA090"/>
<path d="M153.141 109.727C153.902 107.594 152.789 105.25 150.657 104.489C148.524 103.728 146.178 104.84 145.418 106.972C144.657 109.105 145.769 111.451 147.902 112.211C150.035 112.972 152.38 111.859 153.141 109.727Z" fill="#7DA090"/>
<path d="M145.419 106.973C146.179 104.841 145.067 102.495 142.935 101.735C140.802 100.974 138.456 102.086 137.696 104.219C136.935 106.352 138.047 108.697 140.18 109.458C142.313 110.218 144.658 109.106 145.419 106.973Z" fill="#7DA090"/>
<path d="M137.696 104.219C138.456 102.086 137.343 99.7403 135.21 98.9797C133.078 98.2191 130.733 99.3314 129.972 101.464C129.212 103.597 130.324 105.942 132.457 106.703C134.589 107.463 136.935 106.352 137.696 104.219Z" fill="#7DA091"/>
<path d="M173.557 125.714C174.317 123.581 173.205 121.236 171.072 120.475C168.94 119.714 166.594 120.826 165.834 122.959C165.073 125.092 166.185 127.437 168.318 128.198C170.451 128.959 172.796 127.846 173.557 125.714Z" fill="#808080"/>
<path d="M158.11 120.204C158.871 118.072 157.758 115.726 155.625 114.966C153.493 114.205 151.148 115.317 150.387 117.45C149.627 119.583 150.739 121.928 152.872 122.689C155.004 123.449 157.35 122.337 158.11 120.204Z" fill="#558578"/>
<path d="M150.386 117.451C151.146 115.318 150.034 112.973 147.902 112.212C145.769 111.452 143.423 112.564 142.663 114.696C141.902 116.829 143.014 119.175 145.147 119.935C147.28 120.696 149.625 119.584 150.386 117.451Z" fill="#7DA090"/>
<path d="M142.664 114.696C143.425 112.563 142.313 110.218 140.18 109.458C138.047 108.697 135.702 109.808 134.941 111.941C134.18 114.074 135.293 116.419 137.425 117.18C139.558 117.941 141.904 116.828 142.664 114.696Z" fill="#808080"/>
<path d="M163.078 130.682C163.839 128.549 162.727 126.204 160.594 125.443C158.461 124.682 156.116 125.795 155.355 127.927C154.594 130.06 155.707 132.406 157.839 133.166C159.972 133.927 162.318 132.815 163.078 130.682Z" fill="#255042"/>
<path d="M155.355 127.927C156.116 125.795 155.003 123.449 152.87 122.689C150.738 121.928 148.392 123.04 147.631 125.173C146.871 127.306 147.983 129.651 150.116 130.412C152.248 131.172 154.594 130.06 155.355 127.927Z" fill="#275340"/>
<path d="M203.908 162.656C204.669 160.523 203.557 158.178 201.424 157.417C199.291 156.656 196.946 157.769 196.185 159.901C195.424 162.034 196.537 164.38 198.669 165.14C200.802 165.901 203.148 164.789 203.908 162.656Z" fill="#7DA090"/>
<path d="M196.185 159.901C196.946 157.769 195.833 155.423 193.7 154.662C191.568 153.902 189.222 155.014 188.462 157.147C187.701 159.279 188.813 161.625 190.946 162.385C193.079 163.146 195.424 162.034 196.185 159.901Z" fill="#7DA090"/>
<path d="M188.462 157.147C189.222 155.014 188.11 152.669 185.978 151.908C183.845 151.147 181.5 152.26 180.739 154.392C179.978 156.525 181.091 158.87 183.223 159.631C185.356 160.392 187.701 159.279 188.462 157.147Z" fill="#7DA090"/>
<path d="M180.739 154.392C181.5 152.26 180.388 149.914 178.255 149.154C176.122 148.393 173.777 149.505 173.016 151.638C172.256 153.771 173.368 156.116 175.501 156.877C177.633 157.637 179.978 156.525 180.739 154.392Z" fill="#7DA090"/>
<path d="M173.016 151.638C173.777 149.505 172.664 147.159 170.532 146.399C168.399 145.638 166.053 146.75 165.293 148.883C164.532 151.016 165.644 153.361 167.777 154.122C169.91 154.883 172.256 153.771 173.016 151.638Z" fill="#809C8E"/>
<path d="M149.847 143.374C150.607 141.241 149.495 138.896 147.362 138.135C145.23 137.374 142.884 138.487 142.123 140.619C141.363 142.752 142.475 145.097 144.608 145.858C146.74 146.619 149.086 145.506 149.847 143.374Z" fill="#274E41"/>
<path d="M208.877 173.134C209.638 171.001 208.525 168.655 206.393 167.895C204.26 167.134 201.915 168.246 201.154 170.379C200.393 172.512 201.506 174.857 203.638 175.618C205.771 176.379 208.116 175.266 208.877 173.134Z" fill="#7DA090"/>
<path d="M201.154 170.379C201.915 168.246 200.802 165.901 198.669 165.14C196.537 164.38 194.191 165.492 193.43 167.624C192.67 169.757 193.782 172.103 195.915 172.863C198.047 173.624 200.393 172.512 201.154 170.379Z" fill="#6E9282"/>
<path d="M193.43 167.624C194.191 165.492 193.079 163.146 190.946 162.385C188.813 161.625 186.468 162.737 185.707 164.87C184.947 167.003 186.059 169.348 188.192 170.109C190.324 170.869 192.67 169.757 193.43 167.624Z" fill="#3E6453"/>
<path d="M185.707 164.87C186.468 162.737 185.356 160.392 183.223 159.631C181.091 158.87 178.745 159.983 177.984 162.115C177.223 164.248 178.336 166.594 180.468 167.354C182.601 168.115 184.947 167.003 185.707 164.87Z" fill="#749687"/>
<path d="M177.984 162.115C178.745 159.983 177.632 157.637 175.499 156.876C173.366 156.116 171.021 157.228 170.26 159.361C169.5 161.493 170.612 163.839 172.745 164.599C174.877 165.36 177.223 164.248 177.984 162.115Z" fill="#7DA090"/>
<path d="M170.26 159.361C171.021 157.228 169.91 154.883 167.777 154.122C165.644 153.361 163.298 154.473 162.538 156.606C161.777 158.739 162.889 161.084 165.022 161.845C167.155 162.606 169.5 161.493 170.26 159.361Z" fill="#7DA090"/>
<path d="M162.538 156.606C163.298 154.473 162.187 152.128 160.054 151.367C157.921 150.607 155.576 151.719 154.815 153.852C154.054 155.984 155.167 158.33 157.299 159.09C159.432 159.851 161.777 158.739 162.538 156.606Z" fill="#7DA090"/>
<path d="M147.092 151.097C147.853 148.964 146.74 146.619 144.608 145.858C142.475 145.097 140.129 146.21 139.369 148.342C138.608 150.475 139.72 152.821 141.853 153.581C143.986 154.342 146.331 153.23 147.092 151.097Z" fill="#265043"/>
<path d="M198.399 178.102C199.159 175.97 198.047 173.624 195.915 172.863C193.782 172.103 191.436 173.215 190.675 175.348C189.915 177.481 191.027 179.826 193.16 180.587C195.292 181.347 197.638 180.235 198.399 178.102Z" fill="#7CA091"/>
<path d="M190.675 175.348C191.436 173.215 190.324 170.869 188.192 170.109C186.059 169.348 183.713 170.46 182.953 172.593C182.192 174.726 183.304 177.071 185.437 177.832C187.57 178.592 189.915 177.481 190.675 175.348Z" fill="#7DA090"/>
<path d="M182.953 172.593C183.713 170.46 182.601 168.115 180.468 167.354C178.336 166.594 175.991 167.706 175.23 169.839C174.469 171.971 175.582 174.317 177.714 175.077C179.847 175.838 182.192 174.726 182.953 172.593Z" fill="#7DA090"/>
<path d="M175.23 169.839C175.991 167.706 174.877 165.36 172.745 164.599C170.612 163.839 168.267 164.951 167.507 167.084C166.746 169.217 167.858 171.562 169.991 172.323C172.124 173.083 174.469 171.971 175.23 169.839Z" fill="#7DA090"/>
<path d="M167.507 167.084C168.267 164.951 167.155 162.606 165.022 161.845C162.889 161.084 160.544 162.197 159.784 164.329C159.023 166.462 160.135 168.807 162.268 169.568C164.401 170.329 166.746 169.217 167.507 167.084Z" fill="#749687"/>
<path d="M159.784 164.329C160.544 162.197 159.432 159.851 157.299 159.09C155.167 158.33 152.821 159.443 152.06 161.576C151.3 163.708 152.412 166.054 154.545 166.814C156.677 167.575 159.023 166.462 159.784 164.329Z" fill="#6A8C7D"/>
<path d="M152.061 161.575C152.821 159.442 151.709 157.096 149.576 156.336C147.444 155.575 145.098 156.687 144.337 158.82C143.577 160.953 144.689 163.298 146.822 164.059C148.954 164.82 151.3 163.707 152.061 161.575Z" fill="#7DA090"/>
<path d="M180.198 180.316C180.959 178.184 179.847 175.838 177.714 175.077C175.582 174.317 173.236 175.429 172.475 177.562C171.714 179.694 172.827 182.04 174.959 182.801C177.092 183.561 179.438 182.449 180.198 180.316Z" fill="#7CA091"/>
<path d="M172.475 177.562C173.236 175.429 172.124 173.083 169.991 172.323C167.858 171.562 165.513 172.674 164.753 174.807C163.992 176.94 165.104 179.285 167.237 180.046C169.37 180.806 171.714 179.694 172.475 177.562Z" fill="#7DA090"/>
<path d="M164.753 174.807C165.513 172.674 164.401 170.329 162.268 169.568C160.135 168.807 157.79 169.92 157.029 172.052C156.268 174.185 157.381 176.531 159.513 177.291C161.646 178.052 163.992 176.94 164.753 174.807Z" fill="#7DA090"/>
<path d="M157.029 172.052C157.79 169.92 156.677 167.575 154.545 166.814C152.412 166.054 150.066 167.165 149.305 169.298C148.545 171.431 149.657 173.776 151.79 174.537C153.922 175.297 156.268 174.185 157.029 172.052Z" fill="#7DA090"/>
<path d="M149.305 169.298C150.066 167.165 148.954 164.82 146.822 164.059C144.689 163.298 142.343 164.411 141.583 166.543C140.822 168.676 141.934 171.021 144.067 171.782C146.2 172.543 148.545 171.431 149.305 169.298Z" fill="#7EA08F"/>
<path d="M141.583 166.543C142.343 164.411 141.231 162.065 139.099 161.304C136.966 160.544 134.62 161.656 133.86 163.789C133.099 165.921 134.211 168.267 136.344 169.028C138.477 169.788 140.822 168.676 141.583 166.543Z" fill="#255141"/>
<path d="M133.86 163.789C134.62 161.656 133.509 159.311 131.376 158.55C129.243 157.789 126.898 158.902 126.137 161.034C125.376 163.167 126.489 165.513 128.621 166.273C130.754 167.034 133.099 165.921 133.86 163.789Z" fill="#254F40"/>
<path d="M131.105 171.512C131.866 169.379 130.754 167.034 128.621 166.273C126.489 165.513 124.143 166.624 123.382 168.757C122.622 170.89 123.734 173.235 125.867 173.996C127.999 174.756 130.345 173.644 131.105 171.512Z" fill="#294F3E"/>
<path d="M128.35 179.236C129.111 177.103 127.999 174.757 125.866 173.997C123.733 173.236 121.388 174.348 120.627 176.481C119.867 178.614 120.979 180.959 123.112 181.72C125.244 182.481 127.59 181.368 128.35 179.236Z" fill="#2D4B3C"/>
<path d="M60.6561 2.21804C59.458 0.112369 56.7798 -0.623377 54.6741 0.574709C52.5684 1.77279 51.8327 4.45102 53.0308 6.5567C54.2288 8.66237 56.9071 9.39812 59.0127 8.20003C61.1184 7.00195 61.8542 4.32372 60.6561 2.21804Z" fill="#ED3815"/>
<path d="M53.0308 6.5567C51.8327 4.45102 49.1548 3.71549 47.0491 4.91357C44.9434 6.11166 44.2077 8.78989 45.4058 10.8956C46.6039 13.0012 49.2821 13.737 51.3878 12.5389C53.4934 11.3408 54.2288 8.66237 53.0308 6.5567Z" fill="#ED3715"/>
<path d="M72.6199 5.50515C71.4219 3.39948 68.7436 2.66373 66.638 3.86182C64.5323 5.0599 63.7965 7.73813 64.9946 9.8438C66.1927 11.9495 68.8709 12.6852 70.9766 11.4871C73.0823 10.2891 73.818 7.61083 72.6199 5.50515Z" fill="#F24033"/>
<path d="M64.9946 9.8438C63.7965 7.73813 61.1184 7.00195 59.0127 8.20003C56.9071 9.39812 56.1715 12.076 57.3696 14.1817C58.5677 16.2874 61.2459 17.0231 63.3516 15.825C65.4573 14.6269 66.1927 11.9495 64.9946 9.8438Z" fill="#ED3815"/>
<path d="M57.3696 14.1817C56.1715 12.076 53.4934 11.3408 51.3878 12.5389C49.2821 13.737 48.5465 16.4149 49.7446 18.5206C50.9427 20.6262 53.6209 21.362 55.7266 20.1639C57.8323 18.9658 58.5677 16.2874 57.3696 14.1817Z" fill="#ED3815"/>
<path d="M42.119 22.8596C40.9209 20.754 38.2427 20.0182 36.137 21.2163C34.0313 22.4144 33.2956 25.0926 34.4937 27.1983C35.6917 29.304 38.37 30.0397 40.4756 28.8416C42.5813 27.6435 43.3171 24.9653 42.119 22.8596Z" fill="#ED3815"/>
<path d="M34.4937 27.1983C33.2956 25.0926 30.6177 24.3561 28.512 25.5542C26.4063 26.7523 25.6706 29.4305 26.8687 31.5362C28.0667 33.6419 30.745 34.3776 32.8506 33.1795C34.9563 31.9814 35.6917 29.304 34.4937 27.1983Z" fill="#ED3815"/>
<path d="M26.8687 31.5362C25.6706 29.4305 22.9927 28.695 20.887 29.8931C18.7813 31.0912 18.0456 33.7694 19.2437 35.8751C20.4417 37.9807 23.12 38.7165 25.2256 37.5184C27.3313 36.3203 28.0667 33.6419 26.8687 31.5362Z" fill="#EF3D24"/>
<path d="M69.3338 17.468C68.1357 15.3624 65.4573 14.6269 63.3516 15.825C61.2459 17.0231 60.5104 19.701 61.7085 21.8067C62.9066 23.9124 65.5848 24.6481 67.6905 23.45C69.7962 22.2519 70.5319 19.5737 69.3338 17.468Z" fill="#ED3815"/>
<path d="M61.7085 21.8067C60.5104 19.701 57.8323 18.9658 55.7266 20.1639C53.6209 21.362 52.8854 24.0399 54.0835 26.1456C55.2816 28.2512 57.9598 28.987 60.0655 27.7889C62.1712 26.5908 62.9066 23.9124 61.7085 21.8067Z" fill="#ED3815"/>
<path d="M54.0835 26.1456C52.8854 24.0399 50.2065 23.3044 48.1009 24.5024C45.9952 25.7005 45.2594 28.3788 46.4575 30.4844C47.6556 32.5901 50.3338 33.3258 52.4395 32.1278C54.5452 30.9297 55.2816 28.2512 54.0835 26.1456Z" fill="#ED3815"/>
<path d="M46.4575 30.4844C45.2594 28.3788 42.5813 27.6435 40.4756 28.8416C38.37 30.0397 37.6344 32.7176 38.8325 34.8233C40.0306 36.929 42.7088 37.6647 44.8145 36.4666C46.9202 35.2685 47.6556 32.5901 46.4575 30.4844Z" fill="#ED3815"/>
<path d="M38.8325 34.8233C37.6344 32.7176 34.9563 31.9814 32.8506 33.1795C30.745 34.3776 30.0094 37.0565 31.2075 39.1622C32.4056 41.2678 35.0838 42.0036 37.1895 40.8055C39.2952 39.6074 40.0306 36.929 38.8325 34.8233Z" fill="#ED3815"/>
<path d="M96.5487 12.0774C95.3506 9.97174 92.6723 9.236 90.5667 10.4341C88.461 11.6322 87.7253 14.3104 88.9233 16.4161C90.1214 18.5217 92.7997 19.2575 94.9053 18.0594C97.011 16.8613 97.7467 14.1831 96.5487 12.0774Z" fill="#ED3815"/>
<path d="M88.9233 16.4161C87.7253 14.3104 85.0473 13.5749 82.9417 14.7729C80.836 15.971 80.1003 18.6493 81.2983 20.7549C82.4964 22.8606 85.1747 23.5964 87.2803 22.3983C89.386 21.2002 90.1214 18.5217 88.9233 16.4161Z" fill="#ED3815"/>
<path d="M81.2983 20.7549C80.1003 18.6493 77.4214 17.9137 75.3157 19.1118C73.21 20.3099 72.4743 22.9881 73.6724 25.0938C74.8704 27.1995 77.5487 27.9352 79.6544 26.7371C81.76 25.5391 82.4964 22.8606 81.2983 20.7549Z" fill="#ED3815"/>
<path d="M73.6724 25.0938C72.4743 22.9881 69.7962 22.2519 67.6905 23.45C65.5848 24.6481 64.8493 27.327 66.0474 29.4327C67.2454 31.5383 69.9237 32.2741 72.0294 31.076C74.135 29.8779 74.8704 27.1995 73.6724 25.0938Z" fill="#EE3815"/>
<path d="M66.0474 29.4327C64.8493 27.327 62.1712 26.5908 60.0655 27.7889C57.9598 28.987 57.2243 31.6649 58.4224 33.7706C59.6205 35.8762 62.2987 36.612 64.4044 35.4139C66.51 34.2158 67.2454 31.5383 66.0474 29.4327Z" fill="#EE4424"/>
<path d="M58.4217 33.7718C57.2236 31.6661 54.5452 30.9297 52.4395 32.1278C50.3338 33.3258 49.5983 36.0047 50.7964 38.1104C51.9945 40.2161 54.6727 40.9518 56.7784 39.7537C58.8841 38.5557 59.6198 35.8774 58.4217 33.7718Z" fill="#EE4424"/>
<path d="M50.7964 38.1104C49.5983 36.0047 46.9202 35.2685 44.8145 36.4666C42.7088 37.6647 41.9733 40.3436 43.1714 42.4493C44.3695 44.5549 47.0477 45.2907 49.1534 44.0926C51.2591 42.8945 51.9945 40.2161 50.7964 38.1104Z" fill="#ED3815"/>
<path d="M100.888 19.7034C99.6894 17.5977 97.011 16.8613 94.9053 18.0594C92.7997 19.2575 92.0641 21.9364 93.2622 24.0421C94.4603 26.1477 97.1385 26.8835 99.2442 25.6854C101.35 24.4873 102.086 21.8091 100.888 19.7034Z" fill="#ED3815"/>
<path d="M93.2622 24.0421C92.0641 21.9364 89.386 21.2002 87.2803 22.3983C85.1747 23.5964 84.4391 26.2743 85.6372 28.3799C86.8353 30.4856 89.5135 31.2214 91.6192 30.0233C93.7249 28.8252 94.4603 26.1477 93.2622 24.0421Z" fill="#ED3815"/>
<path d="M85.6372 28.3799C84.4391 26.2743 81.76 25.5391 79.6544 26.7371C77.5487 27.9352 76.8131 30.6131 78.0112 32.7188C79.2093 34.8245 81.8875 35.5602 83.9932 34.3621C86.0989 33.1641 86.8353 30.4856 85.6372 28.3799Z" fill="#ED3815"/>
<path d="M78.0112 32.7188C76.8131 30.6131 74.135 29.8779 72.0294 31.076C69.9237 32.2741 69.1881 34.952 70.3862 37.0577C71.5843 39.1633 74.2625 39.8991 76.3682 38.701C78.4739 37.5029 79.2093 34.8245 78.0112 32.7188Z" fill="#ED3815"/>
<path d="M70.3862 37.0577C69.1881 34.952 66.51 34.2158 64.4044 35.4139C62.2987 36.612 61.5632 39.2909 62.7612 41.3965C63.9593 43.5022 66.6376 44.238 68.7432 43.0399C70.8489 41.8418 71.5843 39.1633 70.3862 37.0577Z" fill="#FFFBF6"/>
<path d="M62.7612 41.3965C61.5632 39.2909 58.8841 38.5557 56.7784 39.7537C54.6727 40.9518 53.9372 43.6297 55.1353 45.7354C56.3333 47.8411 59.0116 48.5768 61.1172 47.3787C63.2229 46.1807 63.9593 43.5022 62.7612 41.3965Z" fill="#F4846E"/>
<path d="M55.1353 45.7354C53.9372 43.6297 51.2591 42.8945 49.1534 44.0926C47.0477 45.2907 46.3112 47.9686 47.5093 50.0743C48.7074 52.18 51.3856 52.9157 53.4913 51.7176C55.5969 50.5195 56.3333 47.8411 55.1353 45.7354Z" fill="#ED3815"/>
<path d="M47.5093 50.0743C46.3112 47.9686 43.6333 47.2321 41.5276 48.4302C39.4219 49.6283 38.6862 52.3065 39.8843 54.4122C41.0824 56.5178 43.7606 57.2536 45.8663 56.0555C47.9719 54.8574 48.7074 52.18 47.5093 50.0743Z" fill="#ED3716"/>
<path d="M82.3494 40.345C81.1514 38.2393 78.4731 37.5036 76.3675 38.7017C74.2618 39.8998 73.526 42.578 74.7241 44.6837C75.9222 46.7893 78.6004 47.5251 80.7061 46.327C82.8118 45.1289 83.5475 42.4507 82.3494 40.345Z" fill="#ED3815"/>
<path d="M74.7241 44.6837C73.526 42.578 70.8489 41.8418 68.7432 43.0399C66.6376 44.238 65.901 46.9159 67.0991 49.0215C68.2972 51.1272 70.9754 51.863 73.0811 50.6649C75.1868 49.4668 75.9222 46.7893 74.7241 44.6837Z" fill="#ED3815"/>
<path d="M67.0991 49.0215C65.901 46.9159 63.2229 46.1807 61.1172 47.3787C59.0116 48.5768 58.276 51.2547 59.4741 53.3604C60.6722 55.4661 63.3504 56.2018 65.4561 55.0037C67.5618 53.8057 68.2972 51.1272 67.0991 49.0215Z" fill="#ED3815"/>
<path d="M59.4741 53.3604C58.276 51.2547 55.5969 50.5195 53.4913 51.7176C51.3856 52.9157 50.6501 55.5936 51.8482 57.6993C53.0462 59.805 55.7245 60.5407 57.8301 59.3426C59.9358 58.1445 60.6722 55.4661 59.4741 53.3604Z" fill="#ED3815"/>
<path d="M51.8482 57.6993C50.6501 55.5936 47.9719 54.8574 45.8663 56.0555C43.7606 57.2536 43.0251 59.9325 44.2232 62.0381C45.4212 64.1438 48.0995 64.8796 50.2051 63.6815C52.3108 62.4834 53.0462 59.805 51.8482 57.6993Z" fill="#ED3815"/>
<path d="M44.2232 62.0381C43.0251 59.9325 40.3472 59.196 38.2415 60.3941C36.1358 61.5921 35.4001 64.2704 36.5981 66.376C37.7962 68.4817 40.4745 69.2175 42.5801 68.0194C44.6858 66.8213 45.4212 64.1438 44.2232 62.0381Z" fill="#ED3916"/>
<path d="M94.3133 43.6311C93.1152 41.5255 90.437 40.7897 88.3313 41.9878C86.2256 43.1859 85.4899 45.8641 86.688 47.9698C87.8861 50.0755 90.5643 50.8112 92.67 49.6131C94.7757 48.415 95.5114 45.7368 94.3133 43.6311Z" fill="#ED3815"/>
<path d="M86.688 47.9698C85.4899 45.8641 82.8118 45.1289 80.7061 46.327C78.6004 47.5251 77.8649 50.203 79.063 52.3087C80.2611 54.4143 82.9393 55.1501 85.045 53.952C87.1507 52.7539 87.8861 50.0755 86.688 47.9698Z" fill="#ED3815"/>
<path d="M79.063 52.3087C77.8649 50.203 75.1868 49.4668 73.0811 50.6649C70.9754 51.863 70.2399 54.5418 71.438 56.6475C72.6361 58.7532 75.3143 59.4889 77.42 58.2909C79.5257 57.0928 80.2611 54.4143 79.063 52.3087Z" fill="#ED3815"/>
<path d="M71.438 56.6475C70.2399 54.5418 67.561 53.8063 65.4554 55.0044C63.3497 56.2025 62.6139 58.8807 63.812 60.9864C65.0101 63.0921 67.6883 63.8278 69.794 62.6297C71.8997 61.4316 72.6361 58.7532 71.438 56.6475Z" fill="#294F3E"/>
<path d="M63.812 60.9864C62.6139 58.8807 59.9358 58.1445 57.8301 59.3426C55.7245 60.5407 54.9889 63.2186 56.187 65.3243C57.3851 67.4299 60.0633 68.1657 62.169 66.9676C64.2747 65.7695 65.0101 63.0921 63.812 60.9864Z" fill="#ED3715"/>
<path d="M56.187 65.3243C54.9889 63.2186 52.3108 62.4834 50.2051 63.6815C48.0995 64.8796 47.3639 67.5575 48.562 69.6631C49.7601 71.7688 52.4383 72.5046 54.544 71.3065C56.6497 70.1084 57.3851 67.4299 56.187 65.3243Z" fill="#ED3815"/>
<path d="M48.562 69.6631C47.3639 67.5575 44.6858 66.8213 42.5801 68.0194C40.4745 69.2175 39.7389 71.8963 40.937 74.002C42.1351 76.1077 44.8133 76.8434 46.919 75.6453C49.0247 74.4473 49.7601 71.7688 48.562 69.6631Z" fill="#7C9E8F"/>
<path d="M40.937 74.002C39.7389 71.8963 37.06 71.1608 34.9544 72.3589C32.8487 73.557 32.1129 76.2352 33.311 78.3409C34.5091 80.4466 37.1874 81.1823 39.293 79.9842C41.3987 78.7861 42.1351 76.1077 40.937 74.002Z" fill="#7DA090"/>
<path d="M33.311 78.3409C32.1129 76.2352 29.435 75.4997 27.3294 76.6978C25.2237 77.8958 24.488 80.5741 25.686 82.6797C26.8841 84.7854 29.5624 85.5212 31.668 84.3231C33.7737 83.125 34.5091 80.4466 33.311 78.3409Z" fill="#769A8B"/>
<path d="M98.6522 51.2571C97.4541 49.1514 94.7757 48.415 92.67 49.6131C90.5643 50.8112 89.8288 53.4901 91.0269 55.5958C92.2249 57.7014 94.9032 58.4372 97.0089 57.2391C99.1145 56.041 99.8503 53.3628 98.6522 51.2571Z" fill="#ED3815"/>
<path d="M91.0269 55.5958C89.8288 53.4901 87.1507 52.7539 85.045 53.952C82.9393 55.1501 82.2038 57.828 83.4019 59.9337C84.5999 62.0393 87.2782 62.7751 89.3838 61.577C91.4895 60.3789 92.2249 57.7014 91.0269 55.5958Z" fill="#ED3815"/>
<path d="M83.4019 59.9337C82.2038 57.828 79.5257 57.0928 77.42 58.2909C75.3143 59.4889 74.5788 62.1668 75.7769 64.2725C76.9749 66.3782 79.6532 67.1139 81.7589 65.9158C83.8645 64.7178 84.5999 62.0393 83.4019 59.9337Z" fill="#ED3815"/>
<path d="M75.7769 64.2725C74.5788 62.1668 71.8997 61.4316 69.794 62.6297C67.6883 63.8278 66.9528 66.5057 68.1509 68.6114C69.349 70.7171 72.0272 71.4528 74.1329 70.2547C76.2385 69.0566 76.9749 66.3782 75.7769 64.2725Z" fill="#2D4B3C"/>
<path d="M60.5262 72.9495C59.3281 70.8438 56.6497 70.1084 54.544 71.3065C52.4383 72.5046 51.7028 75.1825 52.9009 77.2881C54.099 79.3938 56.7772 80.1296 58.8829 78.9315C60.9885 77.7334 61.7243 75.0552 60.5262 72.9495Z" fill="#7DA090"/>
<path d="M52.9009 77.2881C51.7028 75.1825 49.0247 74.4473 46.919 75.6453C44.8133 76.8434 44.0768 79.5213 45.2749 81.627C46.473 83.7327 49.1512 84.4684 51.2569 83.2703C53.3626 82.0723 54.099 79.3938 52.9009 77.2881Z" fill="#5E8F84"/>
<path d="M45.2749 81.627C44.0768 79.5213 41.3987 78.7861 39.293 79.9842C37.1874 81.1823 36.4518 83.8602 37.6499 85.9659C38.848 88.0716 41.5262 88.8073 43.6319 87.6092C45.7376 86.4111 46.473 83.7327 45.2749 81.627Z" fill="#7DA090"/>
<path d="M37.6499 85.9659C36.4518 83.8602 33.7737 83.125 31.668 84.3231C29.5624 85.5212 28.8258 88.1991 30.0239 90.3047C31.222 92.4104 33.9002 93.1462 36.0059 91.9481C38.1116 90.75 38.848 88.0716 37.6499 85.9659Z" fill="#7DA091"/>
<path d="M30.0239 90.3047C28.8258 88.1991 26.1479 87.4635 24.0423 88.6616C21.9366 89.8597 21.2008 92.5379 22.3989 94.6436C23.597 96.7493 26.2752 97.485 28.3809 96.2869C30.4866 95.0889 31.222 92.4104 30.0239 90.3047Z" fill="#EF4231"/>
<path d="M22.3989 94.6436C21.2008 92.5379 18.5229 91.8014 16.4173 92.9995C14.3116 94.1976 13.5758 96.8758 14.7739 98.9815C15.972 101.087 18.6502 101.823 20.7559 100.625C22.8616 99.4268 23.597 96.7493 22.3989 94.6436Z" fill="#ED3815"/>
<path d="M14.7739 98.9815C13.5758 96.8758 10.897 96.1403 8.79129 97.3384C6.68561 98.5365 5.94987 101.215 7.14795 103.32C8.34604 105.426 11.0243 106.162 13.1299 104.964C15.2356 103.766 15.972 101.087 14.7739 98.9815Z" fill="#999999"/>
<path d="M95.366 63.221C94.168 61.1153 91.4895 60.3789 89.3838 61.577C87.2782 62.7751 86.5426 65.454 87.7407 67.5596C88.9388 69.6653 91.617 70.4011 93.7227 69.203C95.8284 68.0049 96.5641 65.3267 95.366 63.221Z" fill="#808080"/>
<path d="M64.8641 80.5755C63.666 78.4698 60.9878 77.734 58.8821 78.9321C56.7764 80.1302 56.0407 82.8084 57.2388 84.9141C58.4369 87.0198 61.1151 87.7555 63.2208 86.5574C65.3264 85.3594 66.0622 82.6811 64.8641 80.5755Z" fill="#47827C"/>
<path d="M57.2388 84.9141C56.0407 82.8084 53.3626 82.0723 51.2569 83.2703C49.1512 84.4684 48.4157 87.1463 49.6138 89.252C50.8119 91.3577 53.4901 92.0934 55.5958 90.8953C57.7014 89.6973 58.4369 87.0198 57.2388 84.9141Z" fill="#7DA090"/>
<path d="M49.6138 89.252C48.4157 87.1463 45.7376 86.4111 43.6319 87.6092C41.5262 88.8073 40.7907 91.4852 41.9888 93.5909C43.1869 95.6966 45.8651 96.4323 47.9708 95.2342C50.0764 94.0361 50.8119 91.3577 49.6138 89.252Z" fill="#7DA090"/>
<path d="M34.3631 97.93C33.165 95.8243 30.4866 95.0889 28.3809 96.2869C26.2752 97.485 25.5397 100.163 26.7378 102.269C27.9359 104.374 30.6141 105.11 32.7198 103.912C34.8255 102.714 35.5612 100.036 34.3631 97.93Z" fill="#EE4029"/>
<path d="M26.7378 102.269C25.5397 100.163 22.8616 99.4268 20.7559 100.625C18.6502 101.823 17.9147 104.502 19.1128 106.607C20.3109 108.713 22.9891 109.449 25.0948 108.251C27.2005 107.053 27.9359 104.374 26.7378 102.269Z" fill="#ED3815"/>
<path d="M19.1128 106.607C17.9147 104.502 15.2356 103.766 13.1299 104.964C11.0243 106.162 10.2887 108.841 11.4868 110.946C12.6849 113.052 15.3631 113.788 17.4688 112.59C19.5745 111.392 20.3109 108.713 19.1128 106.607Z" fill="#EE4029"/>
<path d="M76.828 83.8616C75.6299 81.7559 72.9517 81.0202 70.846 82.2183C68.7403 83.4163 68.0046 86.0946 69.2026 88.2002C70.4007 90.3059 73.079 91.0417 75.1846 89.8436C77.2903 88.6455 78.0261 85.9673 76.828 83.8616Z" fill="#284E3F"/>
<path d="M69.2026 88.2002C68.0046 86.0946 65.3264 85.3594 63.2208 86.5574C61.1151 87.7555 60.3796 90.4334 61.5776 92.5391C62.7757 94.6448 65.454 95.3805 67.5596 94.1824C69.6653 92.9844 70.4007 90.3059 69.2026 88.2002Z" fill="#77A190"/>
<path d="M61.5776 92.5391C60.3796 90.4334 57.7014 89.6973 55.5958 90.8953C53.4901 92.0934 52.7545 94.7723 53.9526 96.878C55.1507 98.9837 57.8289 99.7194 59.9346 98.5213C62.0403 97.3232 62.7757 94.6448 61.5776 92.5391Z" fill="#808080"/>
<path d="M53.9526 96.878C52.7545 94.7723 50.0757 94.0368 47.97 95.2349C45.8643 96.4329 45.1286 99.1112 46.3267 101.217C47.5247 103.323 50.203 104.058 52.3086 102.86C54.4143 101.662 55.1507 98.9837 53.9526 96.878Z" fill="#ED3916"/>
<path d="M46.3267 101.217C45.1286 99.1112 42.4507 98.3747 40.345 99.5728C38.2393 100.771 37.5036 103.449 38.7017 105.555C39.8997 107.66 42.578 108.396 44.6836 107.198C46.7893 106 47.5247 103.323 46.3267 101.217Z" fill="#ED3915"/>
<path d="M31.076 109.894C29.8779 107.788 27.2005 107.053 25.0948 108.251C22.9891 109.449 22.2526 112.127 23.4507 114.232C24.6488 116.338 27.327 117.074 29.4327 115.876C31.5383 114.678 32.2741 112 31.076 109.894Z" fill="#ED3815"/>
<path d="M15.826 118.572C14.6279 116.466 11.9497 115.73 9.84402 116.928C7.73834 118.126 7.0026 120.805 8.20068 122.91C9.39877 125.016 12.077 125.752 14.1827 124.554C16.2883 123.355 17.0241 120.677 15.826 118.572Z" fill="#ED3815"/>
<path d="M8.20003 122.909C7.00195 120.804 4.32372 120.068 2.21804 121.266C0.112369 122.464 -0.623377 125.142 0.574709 127.248C1.77279 129.354 4.45102 130.09 6.5567 128.891C8.66237 127.693 9.39812 125.015 8.20003 122.909Z" fill="#ED3815"/>
<path d="M81.1668 91.4876C79.9687 89.3819 77.2903 88.6455 75.1846 89.8436C73.079 91.0417 72.3434 93.7206 73.5415 95.8262C74.7396 97.9319 77.4178 98.6676 79.5235 97.4696C81.6292 96.2715 82.3649 93.5932 81.1668 91.4876Z" fill="#29503F"/>
<path d="M58.2908 104.503C57.0928 102.398 54.4143 101.662 52.3086 102.86C50.203 104.058 49.4674 106.736 50.6655 108.842C51.8636 110.948 54.5418 111.683 56.6475 110.485C58.7532 109.287 59.4889 106.609 58.2908 104.503Z" fill="#ED3815"/>
<path d="M50.6655 108.842C49.4674 106.736 46.7893 106 44.6836 107.198C42.578 108.396 41.8424 111.075 43.0405 113.181C44.2386 115.286 46.9168 116.022 49.0225 114.824C51.1282 113.626 51.8636 110.948 50.6655 108.842Z" fill="#ED3815"/>
<path d="M43.0405 113.181C41.8424 111.075 39.1645 110.339 37.0589 111.537C34.9532 112.735 34.2174 115.413 35.4155 117.519C36.6136 119.624 39.2918 120.36 41.3975 119.162C43.5032 117.964 44.2386 115.286 43.0405 113.181Z" fill="#ED3815"/>
<path d="M35.4155 117.519C34.2174 115.413 31.5383 114.678 29.4327 115.876C27.327 117.074 26.5915 119.752 27.7895 121.857C28.9876 123.963 31.6659 124.699 33.7715 123.501C35.8772 122.303 36.6136 119.624 35.4155 117.519Z" fill="#F5917D"/>
<path d="M27.7889 121.859C26.5908 119.753 23.9126 119.017 21.8069 120.215C19.7012 121.413 18.9655 124.092 20.1636 126.197C21.3617 128.303 24.0399 129.039 26.1456 127.841C28.2512 126.643 28.987 123.964 27.7889 121.859Z" fill="#ED3815"/>
<path d="M20.1636 126.197C18.9655 124.092 16.2883 123.355 14.1827 124.554C12.077 125.752 11.3405 128.43 12.5386 130.535C13.7367 132.641 16.4149 133.377 18.5206 132.179C20.6262 130.98 21.3617 128.303 20.1636 126.197Z" fill="#ED3815"/>
<path d="M12.5386 130.535C11.3405 128.43 8.66237 127.693 6.5567 128.891C4.45102 130.09 3.71549 132.768 4.91357 134.874C6.11166 136.98 8.78989 137.715 10.8956 136.517C13.0012 135.319 13.7367 132.641 12.5386 130.535Z" fill="#ED3815"/>
<path d="M116.007 81.7581C114.809 79.6524 112.13 78.9167 110.025 80.1148C107.919 81.3128 107.183 83.9911 108.381 86.0967C109.579 88.2024 112.258 88.9382 114.363 87.7401C116.469 86.542 117.205 83.8638 116.007 81.7581Z" fill="#548A81"/>
<path d="M108.381 86.0967C107.183 83.9911 104.505 83.2555 102.4 84.4536C100.294 85.6517 99.5583 88.3299 100.756 90.4356C101.954 92.5413 104.633 93.277 106.738 92.0789C108.844 90.8809 109.579 88.2024 108.381 86.0967Z" fill="#7EA191"/>
<path d="M100.756 90.4356C99.5583 88.3299 96.8804 87.5934 94.7747 88.7915C92.669 89.9896 91.9333 92.6678 93.1314 94.7735C94.3294 96.8792 97.0077 97.6149 99.1133 96.4168C101.219 95.2187 101.954 92.5413 100.756 90.4356Z" fill="#7DA090"/>
<path d="M85.5057 99.1126C84.3076 97.0069 81.6292 96.2715 79.5235 97.4696C77.4178 98.6676 76.6823 101.346 77.8804 103.451C79.0785 105.557 81.7567 106.293 83.8624 105.095C85.968 103.896 86.7038 101.218 85.5057 99.1126Z" fill="#284F3E"/>
<path d="M62.6297 112.129C61.4316 110.024 58.7532 109.287 56.6475 110.485C54.5418 111.683 53.8063 114.362 55.0044 116.468C56.2025 118.574 58.8807 119.309 60.9864 118.111C63.0921 116.913 63.8278 114.235 62.6297 112.129Z" fill="#ED3815"/>
<path d="M55.0037 116.467C53.8056 114.361 51.1282 113.626 49.0225 114.824C46.9168 116.022 46.1803 118.7 47.3784 120.806C48.5765 122.911 51.2547 123.647 53.3604 122.449C55.4661 121.251 56.2018 118.573 55.0037 116.467Z" fill="#ED3815"/>
<path d="M47.3784 120.806C46.1803 118.7 43.5024 117.965 41.3968 119.163C39.2911 120.361 38.5553 123.039 39.7534 125.145C40.9515 127.25 43.6297 127.986 45.7354 126.788C47.8411 125.59 48.5765 122.911 47.3784 120.806Z" fill="#ED3815"/>
<path d="M39.7534 125.145C38.5553 123.039 35.8772 122.303 33.7715 123.501C31.6659 124.699 30.9303 127.378 32.1284 129.483C33.3265 131.589 36.0047 132.325 38.1104 131.127C40.2161 129.929 40.9515 127.25 39.7534 125.145Z" fill="#FFE5E0"/>
<path d="M32.1284 129.483C30.9303 127.378 28.2512 126.643 26.1456 127.841C24.0399 129.039 23.3044 131.717 24.5024 133.822C25.7005 135.928 28.3788 136.664 30.4844 135.466C32.5901 134.268 33.3265 131.589 32.1284 129.483Z" fill="#EE3612"/>
<path d="M24.5024 133.822C23.3044 131.717 20.6262 130.98 18.5206 132.179C16.4149 133.377 15.6794 136.055 16.8774 138.16C18.0755 140.266 20.7538 141.002 22.8594 139.804C24.9651 138.605 25.7005 135.928 24.5024 133.822Z" fill="#EF4231"/>
<path d="M120.346 89.3831C119.147 87.2774 116.469 86.542 114.363 87.7401C112.258 88.9382 111.522 91.6161 112.72 93.7217C113.918 95.8274 116.597 96.5632 118.702 95.3651C120.808 94.167 121.544 91.4888 120.346 89.3831Z" fill="#7DA090"/>
<path d="M112.72 93.7217C111.522 91.6161 108.844 90.8809 106.738 92.0789C104.633 93.277 103.897 95.9549 105.095 98.0606C106.293 100.166 108.972 100.902 111.077 99.7039C113.183 98.5059 113.918 95.8274 112.72 93.7217Z" fill="#7DA090"/>
<path d="M105.095 98.0606C103.897 95.9549 101.219 95.2187 99.1133 96.4168C97.0077 97.6149 96.2721 100.294 97.4702 102.399C98.6683 104.505 101.347 105.241 103.452 104.043C105.558 102.845 106.293 100.166 105.095 98.0606Z" fill="#7EA191"/>
<path d="M97.4702 102.399C96.2721 100.294 93.5933 99.5583 91.4876 100.756C89.3819 101.954 88.6462 104.633 89.8442 106.738C91.0423 108.844 93.7206 109.58 95.8262 108.382C97.9319 107.184 98.6683 104.505 97.4702 102.399Z" fill="#7DA090"/>
<path d="M89.8442 106.738C88.6462 104.633 85.968 103.896 83.8624 105.095C81.7567 106.293 81.0212 108.971 82.2192 111.076C83.4173 113.182 86.0956 113.918 88.2012 112.72C90.3069 111.521 91.0423 108.844 89.8442 106.738Z" fill="#284F3E"/>
<path d="M59.3426 124.093C58.1445 121.987 55.4661 121.251 53.3604 122.449C51.2547 123.647 50.5192 126.326 51.7173 128.432C52.9154 130.537 55.5936 131.273 57.6993 130.075C59.8049 128.877 60.5407 126.199 59.3426 124.093Z" fill="#29503F"/>
<path d="M51.7173 128.432C50.5192 126.326 47.8411 125.59 45.7354 126.788C43.6297 127.986 42.8942 130.664 44.0923 132.77C45.2904 134.875 47.9686 135.611 50.0743 134.413C52.1799 133.215 52.9154 130.537 51.7173 128.432Z" fill="#ED3815"/>
<path d="M44.0923 132.77C42.8942 130.664 40.2161 129.929 38.1104 131.127C36.0047 132.325 35.2692 135.003 36.4673 137.108C37.6654 139.214 40.3436 139.95 42.4493 138.752C44.5549 137.554 45.2904 134.875 44.0923 132.77Z" fill="#ED3815"/>
<path d="M36.4673 137.108C35.2692 135.003 32.5901 134.268 30.4844 135.466C28.3788 136.664 27.6432 139.342 28.8413 141.447C30.0394 143.553 32.7176 144.289 34.8233 143.091C36.929 141.893 37.6654 139.214 36.4673 137.108Z" fill="#ED3815"/>
<path d="M28.8413 141.447C27.6432 139.342 24.9651 138.605 22.8594 139.804C20.7538 141.002 20.0182 143.681 21.2163 145.786C22.4144 147.892 25.0926 148.628 27.1983 147.43C29.304 146.231 30.0394 143.553 28.8413 141.447Z" fill="#ED3815"/>
<path d="M21.2163 145.786C20.0182 143.681 17.3403 142.944 15.2347 144.142C13.129 145.34 12.3932 148.018 13.5913 150.124C14.7894 152.23 17.4676 152.965 19.5733 151.767C21.679 150.569 22.4144 147.892 21.2163 145.786Z" fill="#ED3815"/>
<path d="M101.808 110.025C100.61 107.919 97.9319 107.184 95.8262 108.382C93.7206 109.58 92.985 112.258 94.1831 114.363C95.3812 116.469 98.0594 117.205 100.165 116.007C102.271 114.809 103.007 112.13 101.808 110.025Z" fill="#7EA08F"/>
<path d="M94.1831 114.363C92.985 112.258 90.3069 111.521 88.2012 112.72C86.0956 113.918 85.36 116.597 86.5581 118.702C87.7562 120.808 90.4344 121.544 92.5401 120.346C94.6458 119.147 95.3812 116.469 94.1831 114.363Z" fill="#284F3E"/>
<path d="M71.3065 127.379C70.1084 125.274 67.4302 124.538 65.3245 125.736C63.2188 126.934 62.4831 129.612 63.6812 131.718C64.8792 133.824 67.5575 134.559 69.6631 133.361C71.7688 132.163 72.5046 129.485 71.3065 127.379Z" fill="#29503F"/>
<path d="M56.0565 136.056C54.8584 133.95 52.1799 133.215 50.0743 134.413C47.9686 135.611 47.2331 138.289 48.4312 140.395C49.6292 142.5 52.3075 143.236 54.4131 142.038C56.5188 140.84 57.2546 138.162 56.0565 136.056Z" fill="#ED3815"/>
<path d="M48.4312 140.395C47.2331 138.289 44.5549 137.554 42.4493 138.752C40.3436 139.95 39.6071 142.628 40.8052 144.733C42.0033 146.839 44.6815 147.575 46.7872 146.377C48.8928 145.179 49.6292 142.5 48.4312 140.395Z" fill="#ED3815"/>
<path d="M33.1805 149.073C31.9824 146.967 29.304 146.231 27.1983 147.43C25.0926 148.628 24.3571 151.306 25.5552 153.411C26.7533 155.517 29.4315 156.253 31.5372 155.055C33.6428 153.856 34.3786 151.178 33.1805 149.073Z" fill="#ED3815"/>
<path d="M25.5552 153.411C24.3571 151.306 21.6782 150.57 19.5725 151.768C17.4669 152.966 16.7311 155.644 17.9292 157.75C19.1273 159.856 21.8055 160.591 23.9112 159.393C26.0169 158.195 26.7533 155.517 25.5552 153.411Z" fill="#ED3815"/>
<path d="M98.5213 121.989C97.3232 119.883 94.6458 119.147 92.5401 120.346C90.4344 121.544 89.6979 124.222 90.896 126.327C92.0941 128.433 94.7723 129.169 96.878 127.971C98.9837 126.772 99.7194 124.094 98.5213 121.989Z" fill="#29503F"/>
<path d="M83.2713 130.665C82.0732 128.56 79.395 127.824 77.2893 129.022C75.1837 130.22 74.4479 132.898 75.646 135.004C76.8441 137.11 79.5223 137.845 81.628 136.647C83.7337 135.449 84.4694 132.771 83.2713 130.665Z" fill="#284F3E"/>
<path d="M60.3953 143.682C59.1973 141.576 56.5188 140.84 54.4131 142.038C52.3075 143.236 51.5719 145.915 52.77 148.021C53.9681 150.126 56.6463 150.862 58.752 149.664C60.8577 148.466 61.5934 145.788 60.3953 143.682Z" fill="#ED3815"/>
<path d="M52.77 148.021C51.5719 145.915 48.8928 145.179 46.7872 146.377C44.6815 147.575 43.946 150.254 45.144 152.359C46.3421 154.465 49.0204 155.201 51.126 154.003C53.2317 152.805 53.9681 150.126 52.77 148.021Z" fill="#ED3815"/>
<path d="M102.86 129.614C101.662 127.508 98.9837 126.772 96.878 127.971C94.7723 129.169 94.0368 131.847 95.2349 133.952C96.4329 136.058 99.1112 136.794 101.217 135.596C103.323 134.397 104.058 131.719 102.86 129.614Z" fill="#284F3E"/>
<path d="M95.2349 133.952C94.0368 131.847 91.3589 131.111 89.2532 132.309C87.1475 133.507 86.4118 136.185 87.6098 138.291C88.8079 140.397 91.4862 141.132 93.5918 139.934C95.6975 138.736 96.4329 136.058 95.2349 133.952Z" fill="#29503E"/>
<path d="M107.199 137.24C106.001 135.134 103.323 134.397 101.217 135.596C99.1112 136.794 98.3756 139.472 99.5737 141.578C100.772 143.684 103.45 144.42 105.556 143.221C107.661 142.023 108.397 139.345 107.199 137.24Z" fill="#284F3E"/>
<path d="M99.5737 141.578C98.3756 139.472 95.6975 138.736 93.5918 139.934C91.4862 141.132 90.7506 143.81 91.9487 145.916C93.1468 148.022 95.825 148.757 97.9307 147.559C100.036 146.361 100.772 143.684 99.5737 141.578Z" fill="#284F3E"/>
<path d="M111.538 144.865C110.34 142.759 107.661 142.023 105.556 143.221C103.45 144.42 102.715 147.097 103.913 149.203C105.111 151.309 107.789 152.045 109.895 150.846C112 149.648 112.736 146.97 111.538 144.865Z" fill="#284F3E"/>
<path d="M96.2869 153.541C95.0888 151.436 92.4106 150.7 90.3049 151.898C88.1993 153.096 87.4635 155.774 88.6616 157.88C89.8597 159.986 92.5379 160.721 94.6436 159.523C96.7493 158.325 97.485 155.647 96.2869 153.541Z" fill="#7DA090"/>
<path d="M88.6616 157.88C87.4635 155.774 84.7846 155.039 82.679 156.237C80.5733 157.435 79.8375 160.113 81.0356 162.219C82.2337 164.324 84.9119 165.06 87.0176 163.862C89.1233 162.664 89.8597 159.986 88.6616 157.88Z" fill="#7DA090"/>
<path d="M81.0356 162.219C79.8375 160.113 77.1596 159.378 75.054 160.576C72.9483 161.774 72.2125 164.452 73.4106 166.558C74.6087 168.663 77.2869 169.399 79.3926 168.201C81.4983 167.003 82.2337 164.324 81.0356 162.219Z" fill="#7DA090"/>
<path d="M73.4106 166.558C72.2125 164.452 69.5346 163.716 67.429 164.915C65.3233 166.113 64.5875 168.791 65.7856 170.897C66.9837 173.002 69.6619 173.738 71.7676 172.54C73.8733 171.342 74.6087 168.663 73.4106 166.558Z" fill="#7DA090"/>
<path d="M115.876 152.49C114.678 150.385 111.999 149.649 109.894 150.847C107.788 152.045 107.052 154.723 108.25 156.829C109.449 158.935 112.127 159.671 114.232 158.472C116.338 157.274 117.074 154.596 115.876 152.49Z" fill="#284F3E"/>
<path d="M108.25 156.829C107.052 154.723 104.374 153.987 102.269 155.185C100.163 156.383 99.4274 159.061 100.625 161.167C101.824 163.273 104.502 164.008 106.607 162.81C108.713 161.612 109.449 158.935 108.25 156.829Z" fill="#548477"/>
<path d="M100.625 161.167C99.4274 159.061 96.7493 158.325 94.6436 159.523C92.5379 160.721 91.8024 163.4 93.0005 165.506C94.1986 167.612 96.8768 168.347 98.9825 167.149C101.088 165.951 101.824 163.273 100.625 161.167Z" fill="#7DA090"/>
<path d="M93.0005 165.506C91.8024 163.4 89.1233 162.664 87.0176 163.862C84.9119 165.06 84.1764 167.739 85.3745 169.845C86.5726 171.95 89.2508 172.686 91.3565 171.488C93.4622 170.29 94.1986 167.612 93.0005 165.506Z" fill="#7DA090"/>
<path d="M85.3745 169.845C84.1764 167.739 81.4983 167.003 79.3926 168.201C77.2869 169.399 76.5514 172.078 77.7495 174.184C78.9476 176.289 81.6258 177.025 83.7315 175.827C85.8372 174.629 86.5726 171.95 85.3745 169.845Z" fill="#7DA090"/>
<path d="M77.7495 174.184C76.5514 172.078 73.8733 171.342 71.7676 172.54C69.6619 173.738 68.9264 176.416 70.1245 178.522C71.3226 180.627 74.0008 181.363 76.1065 180.165C78.2122 178.967 78.9476 176.289 77.7495 174.184Z" fill="#7EA191"/>
<path d="M120.215 160.115C119.017 158.01 116.338 157.274 114.232 158.472C112.127 159.671 111.391 162.348 112.589 164.454C113.787 166.56 116.466 167.296 118.571 166.097C120.677 164.899 121.413 162.221 120.215 160.115Z" fill="#284F3E"/>
<path d="M124.554 167.74C123.355 165.635 120.677 164.899 118.571 166.097C116.466 167.296 115.73 169.973 116.928 172.079C118.126 174.185 120.805 174.921 122.91 173.722C125.016 172.524 125.752 169.846 124.554 167.74Z" fill="#284F3E"/>
<path d="M128.892 175.365C127.694 173.26 125.016 172.524 122.91 173.722C120.805 174.921 120.069 177.598 121.267 179.704C122.465 181.81 125.143 182.546 127.249 181.347C129.355 180.149 130.09 177.471 128.892 175.365Z" fill="#294F3E"/>
</svg>
