<svg width="274" height="264" viewBox="0 0 274 264" fill="none" xmlns="http://www.w3.org/2000/svg">
<rect x="103.093" y="34.5132" width="29.3056" height="29.3056" rx="14.6528" transform="rotate(15.6808 103.093 34.5132)" fill="#F14C2D" stroke="#F14C2D" stroke-width="16.7132"/>
<rect x="115.269" y="37.9315" width="29.3056" height="29.3056" rx="14.6528" transform="rotate(15.6808 115.269 37.9315)" fill="#F14C2D" stroke="#F14C2D" stroke-width="16.7132"/>
<rect x="127.445" y="41.3491" width="29.3056" height="29.3056" rx="14.6528" transform="rotate(15.6808 127.445 41.3491)" fill="#F14C2D" stroke="#F14C2D" stroke-width="16.7132"/>
<rect x="176.15" y="55.0223" width="29.3056" height="29.3056" rx="14.6528" transform="rotate(15.6808 176.15 55.0223)" fill="#F14C2D" stroke="#F14C2D" stroke-width="16.7132"/>
<rect x="188.254" y="58.4198" width="29.3056" height="29.3056" rx="14.6528" transform="rotate(15.6808 188.254 58.4198)" fill="#F14C2D" stroke="#F14C2D" stroke-width="16.7132"/>
<rect x="200.503" y="61.8585" width="29.3056" height="29.3056" rx="14.6528" transform="rotate(15.6808 200.503 61.8585)" fill="#F14C2D" stroke="#F14C2D" stroke-width="16.7132"/>
<rect x="87.4267" y="43.251" width="29.3056" height="29.3056" rx="14.6528" transform="rotate(15.6808 87.4267 43.251)" fill="#F14C2D" stroke="#F14C2D" stroke-width="16.7132"/>
<rect x="99.6032" y="46.6695" width="29.3056" height="29.3056" rx="14.6528" transform="rotate(15.6808 99.6032 46.6695)" fill="#F14C2D" stroke="#F14C2D" stroke-width="16.7132"/>
<rect x="111.779" y="50.0881" width="29.3056" height="29.3056" rx="14.6528" transform="rotate(15.6808 111.779 50.0881)" fill="#F14C2D" stroke="#F14C2D" stroke-width="16.7132"/>
<rect x="123.955" y="53.5057" width="29.3056" height="29.3056" rx="14.6528" transform="rotate(15.6808 123.955 53.5057)" fill="#F14C2D" stroke="#F14C2D" stroke-width="16.7132"/>
<rect x="136.131" y="56.9242" width="29.3056" height="29.3056" rx="14.6528" transform="rotate(15.6808 136.131 56.9242)" fill="#F14C2D" stroke="#F14C2D" stroke-width="16.7132"/>
<rect x="148.308" y="60.3417" width="29.3056" height="29.3056" rx="14.6528" transform="rotate(15.6808 148.308 60.3417)" fill="#F14C2D" stroke="#F14C2D" stroke-width="16.7132"/>
<rect x="160.484" y="63.7601" width="29.3056" height="29.3056" rx="14.6528" transform="rotate(15.6808 160.484 63.7601)" fill="#F14C2D" stroke="#F14C2D" stroke-width="16.7132"/>
<rect x="172.659" y="67.1787" width="29.3056" height="29.3056" rx="14.6528" transform="rotate(15.6808 172.659 67.1787)" fill="#F14C2D" stroke="#F14C2D" stroke-width="16.7132"/>
<rect x="184.836" y="70.5964" width="29.3056" height="29.3056" rx="14.6528" transform="rotate(15.6808 184.836 70.5964)" fill="#F14C2D" stroke="#F14C2D" stroke-width="16.7132"/>
<rect x="139.549" y="44.7475" width="29.3056" height="29.3056" rx="14.6528" transform="rotate(15.6808 139.549 44.7475)" fill="#F14C2D" stroke="#F14C2D" stroke-width="16.7132"/>
<rect x="151.725" y="48.166" width="29.3056" height="29.3056" rx="14.6528" transform="rotate(15.6808 151.725 48.166)" fill="#F14C2D" stroke="#F14C2D" stroke-width="16.7132"/>
<rect x="155.113" y="36.097" width="29.3056" height="29.3056" rx="14.6528" transform="rotate(15.6808 155.113 36.097)" fill="#F14C2D" stroke="#F14C2D" stroke-width="16.7132"/>
<rect x="130.618" y="29.2208" width="29.3056" height="29.3056" rx="14.6528" transform="rotate(15.6808 130.618 29.2208)" fill="#F14C2D" stroke="#F14C2D" stroke-width="16.7132"/>
<rect x="179.646" y="42.984" width="29.3056" height="29.3056" rx="14.6528" transform="rotate(15.6808 179.646 42.984)" fill="#F14C2D" stroke="#F14C2D" stroke-width="16.7132"/>
<rect x="163.902" y="51.5836" width="29.3056" height="29.3056" rx="14.6528" transform="rotate(15.6808 163.902 51.5836)" fill="#F14C2D" stroke="#F14C2D" stroke-width="16.7132"/>
<rect x="197.013" y="74.0151" width="29.3056" height="29.3056" rx="14.6528" transform="rotate(15.6808 197.013 74.0151)" fill="#F14C2D" stroke="#F14C2D" stroke-width="16.7132"/>
<rect x="209.189" y="77.4327" width="29.3056" height="29.3056" rx="14.6528" transform="rotate(15.6808 209.189 77.4327)" fill="#F14C2D" stroke="#F14C2D" stroke-width="16.7132"/>
<rect x="84.009" y="55.4266" width="29.3056" height="29.3056" rx="14.6528" transform="rotate(15.6808 84.009 55.4266)" fill="#F14C2D" stroke="#F14C2D" stroke-width="16.7132"/>
<rect x="96.1852" y="58.8453" width="29.3056" height="29.3056" rx="14.6528" transform="rotate(15.6808 96.1852 58.8453)" fill="#F14C2D" stroke="#F14C2D" stroke-width="16.7132"/>
<rect x="108.361" y="62.2627" width="29.3056" height="29.3056" rx="14.6528" transform="rotate(15.6808 108.361 62.2627)" fill="#F14C2D" stroke="#F14C2D" stroke-width="16.7132"/>
<rect x="120.537" y="65.6811" width="29.3056" height="29.3056" rx="14.6528" transform="rotate(15.6808 120.537 65.6811)" fill="#F14C2D" stroke="#F14C2D" stroke-width="16.7132"/>
<rect x="132.714" y="69.0998" width="29.3056" height="29.3056" rx="14.6528" transform="rotate(15.6808 132.714 69.0998)" fill="#F14C2D" stroke="#F14C2D" stroke-width="16.7132"/>
<rect x="144.89" y="72.5174" width="29.3056" height="29.3056" rx="14.6528" transform="rotate(15.6808 144.89 72.5174)" fill="#F14C2D" stroke="#F14C2D" stroke-width="16.7132"/>
<rect x="157.065" y="75.9357" width="29.3056" height="29.3056" rx="14.6528" transform="rotate(15.6808 157.065 75.9357)" fill="#F14C2D" stroke="#F14C2D" stroke-width="16.7132"/>
<rect x="169.242" y="79.3534" width="29.3056" height="29.3056" rx="14.6528" transform="rotate(15.6808 169.242 79.3534)" fill="#F14C2D" stroke="#F14C2D" stroke-width="16.7132"/>
<rect x="181.418" y="82.7721" width="29.3056" height="29.3056" rx="14.6528" transform="rotate(15.6808 181.418 82.7721)" fill="#F14C2D" stroke="#F14C2D" stroke-width="16.7132"/>
<rect x="193.595" y="86.1909" width="29.3056" height="29.3056" rx="14.6528" transform="rotate(15.6808 193.595 86.1909)" fill="#F14C2D" stroke="#F14C2D" stroke-width="16.7132"/>
<rect x="205.771" y="89.6083" width="29.3056" height="29.3056" rx="14.6528" transform="rotate(15.6808 205.771 89.6083)" fill="#F14C2D" stroke="#F14C2D" stroke-width="16.7132"/>
<rect x="80.5905" y="67.6031" width="29.3056" height="29.3056" rx="14.6528" transform="rotate(15.6808 80.5905 67.6031)" fill="#F14C2D" stroke="#F14C2D" stroke-width="16.7132"/>
<rect x="92.767" y="71.0218" width="29.3056" height="29.3056" rx="14.6528" transform="rotate(15.6808 92.767 71.0218)" fill="#F14C2D" stroke="#F14C2D" stroke-width="16.7132"/>
<rect x="104.943" y="74.4392" width="29.3056" height="29.3056" rx="14.6528" transform="rotate(15.6808 104.943 74.4392)" fill="#F14C2D" stroke="#F14C2D" stroke-width="16.7132"/>
<rect x="117.119" y="77.8578" width="29.3056" height="29.3056" rx="14.6528" transform="rotate(15.6808 117.119 77.8578)" fill="#F14C2D" stroke="#F14C2D" stroke-width="16.7132"/>
<rect x="129.295" y="81.2765" width="29.3056" height="29.3056" rx="14.6528" transform="rotate(15.6808 129.295 81.2765)" fill="#F14C2D" stroke="#F14C2D" stroke-width="16.7132"/>
<rect x="141.472" y="84.694" width="29.3056" height="29.3056" rx="14.6528" transform="rotate(15.6808 141.472 84.694)" fill="#F14C2D" stroke="#F14C2D" stroke-width="16.7132"/>
<rect x="153.647" y="88.1123" width="29.3056" height="29.3056" rx="14.6528" transform="rotate(15.6808 153.647 88.1123)" fill="#F14C2D" stroke="#F14C2D" stroke-width="16.7132"/>
<rect x="165.824" y="91.53" width="29.3056" height="29.3056" rx="14.6528" transform="rotate(15.6808 165.824 91.53)" fill="#F14C2D" stroke="#F14C2D" stroke-width="16.7132"/>
<rect x="178" y="94.9487" width="29.3056" height="29.3056" rx="14.6528" transform="rotate(15.6808 178 94.9487)" fill="#F14C2D" stroke="#F14C2D" stroke-width="16.7132"/>
<rect x="190.177" y="98.3663" width="29.3056" height="29.3056" rx="14.6528" transform="rotate(15.6808 190.177 98.3663)" fill="#F14C2D" stroke="#F14C2D" stroke-width="16.7132"/>
<rect x="202.352" y="101.785" width="29.3056" height="29.3056" rx="14.6528" transform="rotate(15.6808 202.352 101.785)" fill="#F14C2D" stroke="#F14C2D" stroke-width="16.7132"/>
<rect x="77.1723" y="79.7798" width="29.3056" height="29.3056" rx="14.6528" transform="rotate(15.6808 77.1723 79.7798)" fill="#F14C2D" stroke="#F14C2D" stroke-width="16.7132"/>
<rect x="89.3483" y="83.1983" width="29.3056" height="29.3056" rx="14.6528" transform="rotate(15.6808 89.3483 83.1983)" fill="#F14C2D" stroke="#F14C2D" stroke-width="16.7132"/>
<rect x="101.525" y="86.6158" width="29.3056" height="29.3056" rx="14.6528" transform="rotate(15.6808 101.525 86.6158)" fill="#F14C2D" stroke="#F14C2D" stroke-width="16.7132"/>
<rect x="113.701" y="90.0343" width="29.3056" height="29.3056" rx="14.6528" transform="rotate(15.6808 113.701 90.0343)" fill="#F14C2D" stroke="#F14C2D" stroke-width="16.7132"/>
<rect x="125.877" y="93.4521" width="29.3056" height="29.3056" rx="14.6528" transform="rotate(15.6808 125.877 93.4521)" fill="#F14C2D" stroke="#F14C2D" stroke-width="16.7132"/>
<rect x="138.053" y="96.8703" width="29.3056" height="29.3056" rx="14.6528" transform="rotate(15.6808 138.053 96.8703)" fill="#F14C2D" stroke="#F14C2D" stroke-width="16.7132"/>
<rect x="150.229" y="100.289" width="29.3056" height="29.3056" rx="14.6528" transform="rotate(15.6808 150.229 100.289)" fill="#F14C2D" stroke="#F14C2D" stroke-width="16.7132"/>
<rect x="162.406" y="103.707" width="29.3056" height="29.3056" rx="14.6528" transform="rotate(15.6808 162.406 103.707)" fill="#F14C2D" stroke="#F14C2D" stroke-width="16.7132"/>
<rect x="174.582" y="107.125" width="29.3056" height="29.3056" rx="14.6528" transform="rotate(15.6808 174.582 107.125)" fill="#F14C2D" stroke="#F14C2D" stroke-width="16.7132"/>
<rect x="186.758" y="110.543" width="29.3056" height="29.3056" rx="14.6528" transform="rotate(15.6808 186.758 110.543)" fill="#F14C2D" stroke="#F14C2D" stroke-width="16.7132"/>
<rect x="198.934" y="113.961" width="29.3056" height="29.3056" rx="14.6528" transform="rotate(15.6808 198.934 113.961)" fill="#F14C2D" stroke="#F14C2D" stroke-width="16.7132"/>
<rect x="73.7538" y="91.9562" width="29.3056" height="29.3056" rx="14.6528" transform="rotate(15.6808 73.7538 91.9562)" fill="#F14C2D" stroke="#F14C2D" stroke-width="16.7132"/>
<rect x="85.9306" y="95.374" width="29.3056" height="29.3056" rx="14.6528" transform="rotate(15.6808 85.9306 95.374)" fill="#F14C2D" stroke="#F14C2D" stroke-width="16.7132"/>
<rect x="98.1064" y="98.7925" width="29.3056" height="29.3056" rx="14.6528" transform="rotate(15.6808 98.1064 98.7925)" fill="#F14C2D" stroke="#F14C2D" stroke-width="16.7132"/>
<rect x="110.282" y="102.211" width="29.3056" height="29.3056" rx="14.6528" transform="rotate(15.6808 110.282 102.211)" fill="#F14C2D" stroke="#F14C2D" stroke-width="16.7132"/>
<rect x="122.459" y="105.629" width="29.3056" height="29.3056" rx="14.6528" transform="rotate(15.6808 122.459 105.629)" fill="#F14C2D" stroke="#F14C2D" stroke-width="16.7132"/>
<rect x="134.635" y="109.047" width="29.3056" height="29.3056" rx="14.6528" transform="rotate(15.6808 134.635 109.047)" fill="#F14C2D" stroke="#F14C2D" stroke-width="16.7132"/>
<rect x="146.811" y="112.465" width="29.3056" height="29.3056" rx="14.6528" transform="rotate(15.6808 146.811 112.465)" fill="#F14C2D" stroke="#F14C2D" stroke-width="16.7132"/>
<rect x="158.987" y="115.883" width="29.3056" height="29.3056" rx="14.6528" transform="rotate(15.6808 158.987 115.883)" fill="#F14C2D" stroke="#F14C2D" stroke-width="16.7132"/>
<rect x="171.163" y="119.302" width="29.3056" height="29.3056" rx="14.6528" transform="rotate(15.6808 171.163 119.302)" fill="#F14C2D" stroke="#F14C2D" stroke-width="16.7132"/>
<rect x="183.34" y="122.719" width="29.3056" height="29.3056" rx="14.6528" transform="rotate(15.6808 183.34 122.719)" fill="#F14C2D" stroke="#F14C2D" stroke-width="16.7132"/>
<rect x="195.516" y="126.138" width="29.3056" height="29.3056" rx="14.6528" transform="rotate(15.6808 195.516 126.138)" fill="#F14C2D" stroke="#F14C2D" stroke-width="16.7132"/>
<rect x="70.3359" y="104.132" width="29.3056" height="29.3056" rx="14.6528" transform="rotate(15.6808 70.3359 104.132)" fill="#F14C2D" stroke="#F14C2D" stroke-width="16.7132"/>
<rect x="82.5129" y="107.55" width="29.3056" height="29.3056" rx="14.6528" transform="rotate(15.6808 82.5129 107.55)" fill="#F14C2D" stroke="#F14C2D" stroke-width="16.7132"/>
<rect x="94.6886" y="110.968" width="29.3056" height="29.3056" rx="14.6528" transform="rotate(15.6808 94.6886 110.968)" fill="#F14C2D" stroke="#F14C2D" stroke-width="16.7132"/>
<rect x="106.864" y="114.386" width="29.3056" height="29.3056" rx="14.6528" transform="rotate(15.6808 106.864 114.386)" fill="#F14C2D" stroke="#F14C2D" stroke-width="16.7132"/>
<rect x="119.041" y="117.804" width="29.3056" height="29.3056" rx="14.6528" transform="rotate(15.6808 119.041 117.804)" fill="#F14C2D" stroke="#F14C2D" stroke-width="16.7132"/>
<rect x="131.217" y="121.223" width="29.3056" height="29.3056" rx="14.6528" transform="rotate(15.6808 131.217 121.223)" fill="#F14C2D" stroke="#F14C2D" stroke-width="16.7132"/>
<rect x="143.393" y="124.64" width="29.3056" height="29.3056" rx="14.6528" transform="rotate(15.6808 143.393 124.64)" fill="#F14C2D" stroke="#F14C2D" stroke-width="16.7132"/>
<rect x="155.569" y="128.059" width="29.3056" height="29.3056" rx="14.6528" transform="rotate(15.6808 155.569 128.059)" fill="#F14C2D" stroke="#F14C2D" stroke-width="16.7132"/>
<rect x="167.746" y="131.477" width="29.3056" height="29.3056" rx="14.6528" transform="rotate(15.6808 167.746 131.477)" fill="#F14C2D" stroke="#F14C2D" stroke-width="16.7132"/>
<rect x="179.922" y="134.895" width="29.3056" height="29.3056" rx="14.6528" transform="rotate(15.6808 179.922 134.895)" fill="#F14C2D" stroke="#F14C2D" stroke-width="16.7132"/>
<rect x="192.098" y="138.314" width="29.3056" height="29.3056" rx="14.6528" transform="rotate(15.6808 192.098 138.314)" fill="#F14C2D" stroke="#F14C2D" stroke-width="16.7132"/>
<rect x="54.7416" y="112.89" width="29.3056" height="29.3056" rx="14.6528" transform="rotate(15.6808 54.7416 112.89)" fill="#F14C2D" stroke="#F14C2D" stroke-width="16.7132"/>
<rect x="66.9176" y="116.308" width="29.3056" height="29.3056" rx="14.6528" transform="rotate(15.6808 66.9176 116.308)" fill="#F14C2D" stroke="#F14C2D" stroke-width="16.7132"/>
<rect x="79.0944" y="119.726" width="29.3056" height="29.3056" rx="14.6528" transform="rotate(15.6808 79.0944 119.726)" fill="#F14C2D" stroke="#F14C2D" stroke-width="16.7132"/>
<rect x="91.2699" y="123.145" width="29.3056" height="29.3056" rx="14.6528" transform="rotate(15.6808 91.2699 123.145)" fill="#F14C2D" stroke="#F14C2D" stroke-width="16.7132"/>
<rect x="103.446" y="126.562" width="29.3056" height="29.3056" rx="14.6528" transform="rotate(15.6808 103.446 126.562)" fill="#F14C2D" stroke="#F14C2D" stroke-width="16.7132"/>
<rect x="115.622" y="129.981" width="29.3056" height="29.3056" rx="14.6528" transform="rotate(15.6808 115.622 129.981)" fill="#F14C2D" stroke="#F14C2D" stroke-width="16.7132"/>
<rect x="127.799" y="133.399" width="29.3056" height="29.3056" rx="14.6528" transform="rotate(15.6808 127.799 133.399)" fill="#F14C2D" stroke="#F14C2D" stroke-width="16.7132"/>
<rect x="139.974" y="136.817" width="29.3056" height="29.3056" rx="14.6528" transform="rotate(15.6808 139.974 136.817)" fill="#F14C2D" stroke="#F14C2D" stroke-width="16.7132"/>
<rect x="152.151" y="140.235" width="29.3056" height="29.3056" rx="14.6528" transform="rotate(15.6808 152.151 140.235)" fill="#F14C2D" stroke="#F14C2D" stroke-width="16.7132"/>
<rect x="164.328" y="143.653" width="29.3056" height="29.3056" rx="14.6528" transform="rotate(15.6808 164.328 143.653)" fill="#F14C2D" stroke="#F14C2D" stroke-width="16.7132"/>
<rect x="176.504" y="147.072" width="29.3056" height="29.3056" rx="14.6528" transform="rotate(15.6808 176.504 147.072)" fill="#F14C2D" stroke="#F14C2D" stroke-width="16.7132"/>
<rect x="188.68" y="150.49" width="29.3056" height="29.3056" rx="14.6528" transform="rotate(15.6808 188.68 150.49)" fill="#F14C2D" stroke="#F14C2D" stroke-width="16.7132"/>
<rect x="200.856" y="153.908" width="29.3056" height="29.3056" rx="14.6528" transform="rotate(15.6808 200.856 153.908)" fill="#F14C2D" stroke="#F14C2D" stroke-width="16.7132"/>
<rect x="39.1474" y="121.647" width="29.3056" height="29.3056" rx="14.6528" transform="rotate(15.6808 39.1474 121.647)" fill="#F14C2D" stroke="#F14C2D" stroke-width="16.7132"/>
<rect x="51.3239" y="125.066" width="29.3056" height="29.3056" rx="14.6528" transform="rotate(15.6808 51.3239 125.066)" fill="#F14C2D" stroke="#F14C2D" stroke-width="16.7132"/>
<rect x="63.5002" y="128.483" width="29.3056" height="29.3056" rx="14.6528" transform="rotate(15.6808 63.5002 128.483)" fill="#F14C2D" stroke="#F14C2D" stroke-width="16.7132"/>
<rect x="75.6762" y="131.902" width="29.3056" height="29.3056" rx="14.6528" transform="rotate(15.6808 75.6762 131.902)" fill="#F14C2D" stroke="#F14C2D" stroke-width="16.7132"/>
<rect x="87.852" y="135.32" width="29.3056" height="29.3056" rx="14.6528" transform="rotate(15.6808 87.852 135.32)" fill="#F14C2D" stroke="#F14C2D" stroke-width="16.7132"/>
<rect x="100.028" y="138.738" width="29.3056" height="29.3056" rx="14.6528" transform="rotate(15.6808 100.028 138.738)" fill="#F14C2D" stroke="#F14C2D" stroke-width="16.7132"/>
<rect x="112.205" y="142.156" width="29.3056" height="29.3056" rx="14.6528" transform="rotate(15.6808 112.205 142.156)" fill="#F14C2D" stroke="#F14C2D" stroke-width="16.7132"/>
<rect x="124.381" y="145.574" width="29.3056" height="29.3056" rx="14.6528" transform="rotate(15.6808 124.381 145.574)" fill="#F14C2D" stroke="#F14C2D" stroke-width="16.7132"/>
<rect x="136.557" y="148.992" width="29.3056" height="29.3056" rx="14.6528" transform="rotate(15.6808 136.557 148.992)" fill="#F14C2D" stroke="#F14C2D" stroke-width="16.7132"/>
<rect x="148.733" y="152.411" width="29.3056" height="29.3056" rx="14.6528" transform="rotate(15.6808 148.733 152.411)" fill="#F14C2D" stroke="#F14C2D" stroke-width="16.7132"/>
<rect x="160.91" y="155.829" width="29.3056" height="29.3056" rx="14.6528" transform="rotate(15.6808 160.91 155.829)" fill="#F14C2D" stroke="#F14C2D" stroke-width="16.7132"/>
<rect x="173.086" y="159.247" width="29.3056" height="29.3056" rx="14.6528" transform="rotate(15.6808 173.086 159.247)" fill="#F14C2D" stroke="#F14C2D" stroke-width="16.7132"/>
<rect x="185.262" y="162.665" width="29.3056" height="29.3056" rx="14.6528" transform="rotate(15.6808 185.262 162.665)" fill="#F14C2D" stroke="#F14C2D" stroke-width="16.7132"/>
<rect x="197.438" y="166.083" width="29.3056" height="29.3056" rx="14.6528" transform="rotate(15.6808 197.438 166.083)" fill="#F14C2D" stroke="#F14C2D" stroke-width="16.7132"/>
<rect x="209.614" y="169.502" width="29.3056" height="29.3056" rx="14.6528" transform="rotate(15.6808 209.614 169.502)" fill="#F14C2D" stroke="#F14C2D" stroke-width="16.7132"/>
<rect x="35.7289" y="133.824" width="29.3056" height="29.3056" rx="14.6528" transform="rotate(15.6808 35.7289 133.824)" fill="#F14C2D" stroke="#F14C2D" stroke-width="16.7132"/>
<rect x="47.9054" y="137.243" width="29.3056" height="29.3056" rx="14.6528" transform="rotate(15.6808 47.9054 137.243)" fill="#F14C2D" stroke="#F14C2D" stroke-width="16.7132"/>
<rect x="60.0817" y="140.661" width="29.3056" height="29.3056" rx="14.6528" transform="rotate(15.6808 60.0817 140.661)" fill="#F14C2D" stroke="#F14C2D" stroke-width="16.7132"/>
<rect x="72.2577" y="144.079" width="29.3056" height="29.3056" rx="14.6528" transform="rotate(15.6808 72.2577 144.079)" fill="#F14C2D" stroke="#F14C2D" stroke-width="16.7132"/>
<rect x="84.4335" y="147.498" width="29.3056" height="29.3056" rx="14.6528" transform="rotate(15.6808 84.4335 147.498)" fill="#F14C2D" stroke="#F14C2D" stroke-width="16.7132"/>
<rect x="96.6098" y="150.915" width="29.3056" height="29.3056" rx="14.6528" transform="rotate(15.6808 96.6098 150.915)" fill="#F14C2D" stroke="#F14C2D" stroke-width="16.7132"/>
<rect x="108.786" y="154.334" width="29.3056" height="29.3056" rx="14.6528" transform="rotate(15.6808 108.786 154.334)" fill="#F14C2D" stroke="#F14C2D" stroke-width="16.7132"/>
<rect x="120.962" y="157.751" width="29.3056" height="29.3056" rx="14.6528" transform="rotate(15.6808 120.962 157.751)" fill="#F14C2D" stroke="#F14C2D" stroke-width="16.7132"/>
<rect x="133.138" y="161.17" width="29.3056" height="29.3056" rx="14.6528" transform="rotate(15.6808 133.138 161.17)" fill="#F14C2D" stroke="#F14C2D" stroke-width="16.7132"/>
<rect x="145.314" y="164.588" width="29.3056" height="29.3056" rx="14.6528" transform="rotate(15.6808 145.314 164.588)" fill="#F14C2D" stroke="#F14C2D" stroke-width="16.7132"/>
<rect x="157.491" y="168.006" width="29.3056" height="29.3056" rx="14.6528" transform="rotate(15.6808 157.491 168.006)" fill="#F14C2D" stroke="#F14C2D" stroke-width="16.7132"/>
<rect x="169.667" y="171.425" width="29.3056" height="29.3056" rx="14.6528" transform="rotate(15.6808 169.667 171.425)" fill="#F14C2D" stroke="#F14C2D" stroke-width="16.7132"/>
<rect x="181.843" y="174.842" width="29.3056" height="29.3056" rx="14.6528" transform="rotate(15.6808 181.843 174.842)" fill="#F14C2D" stroke="#F14C2D" stroke-width="16.7132"/>
<rect x="194.019" y="178.261" width="29.3056" height="29.3056" rx="14.6528" transform="rotate(15.6808 194.019 178.261)" fill="#F14C2D" stroke="#F14C2D" stroke-width="16.7132"/>
<rect x="206.196" y="181.679" width="29.3056" height="29.3056" rx="14.6528" transform="rotate(15.6808 206.196 181.679)" fill="#F14C2D" stroke="#F14C2D" stroke-width="16.7132"/>
<rect x="32.3112" y="146" width="29.3056" height="29.3056" rx="14.6528" transform="rotate(15.6808 32.3112 146)" fill="#F14C2D" stroke="#F14C2D" stroke-width="16.7132"/>
<rect x="44.4875" y="149.419" width="29.3056" height="29.3056" rx="14.6528" transform="rotate(15.6808 44.4875 149.419)" fill="#F14C2D" stroke="#F14C2D" stroke-width="16.7132"/>
<rect x="56.6633" y="152.836" width="29.3056" height="29.3056" rx="14.6528" transform="rotate(15.6808 56.6633 152.836)" fill="#F14C2D" stroke="#F14C2D" stroke-width="16.7132"/>
<rect x="68.8398" y="156.255" width="29.3056" height="29.3056" rx="14.6528" transform="rotate(15.6808 68.8398 156.255)" fill="#F14C2D" stroke="#F14C2D" stroke-width="16.7132"/>
<rect x="81.016" y="159.672" width="29.3056" height="29.3056" rx="14.6528" transform="rotate(15.6808 81.016 159.672)" fill="#F14C2D" stroke="#F14C2D" stroke-width="16.7132"/>
<rect x="93.1921" y="163.091" width="29.3056" height="29.3056" rx="14.6528" transform="rotate(15.6808 93.1921 163.091)" fill="#F14C2D" stroke="#F14C2D" stroke-width="16.7132"/>
<rect x="105.368" y="166.51" width="29.3056" height="29.3056" rx="14.6528" transform="rotate(15.6808 105.368 166.51)" fill="#F14C2D" stroke="#F14C2D" stroke-width="16.7132"/>
<rect x="117.544" y="169.927" width="29.3056" height="29.3056" rx="14.6528" transform="rotate(15.6808 117.544 169.927)" fill="#F14C2D" stroke="#F14C2D" stroke-width="16.7132"/>
<rect x="129.72" y="173.346" width="29.3056" height="29.3056" rx="14.6528" transform="rotate(15.6808 129.72 173.346)" fill="#F14C2D" stroke="#F14C2D" stroke-width="16.7132"/>
<rect x="141.897" y="176.763" width="29.3056" height="29.3056" rx="14.6528" transform="rotate(15.6808 141.897 176.763)" fill="#F14C2D" stroke="#F14C2D" stroke-width="16.7132"/>
<rect x="154.073" y="180.182" width="29.3056" height="29.3056" rx="14.6528" transform="rotate(15.6808 154.073 180.182)" fill="#F14C2D" stroke="#F14C2D" stroke-width="16.7132"/>
<rect x="166.249" y="183.6" width="29.3056" height="29.3056" rx="14.6528" transform="rotate(15.6808 166.249 183.6)" fill="#F14C2D" stroke="#F14C2D" stroke-width="16.7132"/>
<rect x="178.426" y="187.018" width="29.3056" height="29.3056" rx="14.6528" transform="rotate(15.6808 178.426 187.018)" fill="#F14C2D" stroke="#F14C2D" stroke-width="16.7132"/>
<rect x="190.602" y="190.437" width="29.3056" height="29.3056" rx="14.6528" transform="rotate(15.6808 190.602 190.437)" fill="#F14C2D" stroke="#F14C2D" stroke-width="16.7132"/>
<rect x="202.778" y="193.854" width="29.3056" height="29.3056" rx="14.6528" transform="rotate(15.6808 202.778 193.854)" fill="#F14C2D" stroke="#F14C2D" stroke-width="16.7132"/>
<rect x="16.717" y="154.758" width="29.3056" height="29.3056" rx="14.6528" transform="rotate(15.6808 16.717 154.758)" fill="#F14C2D" stroke="#F14C2D" stroke-width="16.7132"/>
<rect x="28.8927" y="158.177" width="29.3056" height="29.3056" rx="14.6528" transform="rotate(15.6808 28.8927 158.177)" fill="#F14C2D" stroke="#F14C2D" stroke-width="16.7132"/>
<rect x="41.0693" y="161.594" width="29.3056" height="29.3056" rx="14.6528" transform="rotate(15.6808 41.0693 161.594)" fill="#F14C2D" stroke="#F14C2D" stroke-width="16.7132"/>
<rect x="53.245" y="165.013" width="29.3056" height="29.3056" rx="14.6528" transform="rotate(15.6808 53.245 165.013)" fill="#F14C2D" stroke="#F14C2D" stroke-width="16.7132"/>
<rect x="65.4216" y="168.432" width="29.3056" height="29.3056" rx="14.6528" transform="rotate(15.6808 65.4216 168.432)" fill="#F14C2D" stroke="#F14C2D" stroke-width="16.7132"/>
<rect x="77.5978" y="171.849" width="29.3056" height="29.3056" rx="14.6528" transform="rotate(15.6808 77.5978 171.849)" fill="#F14C2D" stroke="#F14C2D" stroke-width="16.7132"/>
<rect x="89.7734" y="175.267" width="29.3056" height="29.3056" rx="14.6528" transform="rotate(15.6808 89.7734 175.267)" fill="#F14C2D" stroke="#F14C2D" stroke-width="16.7132"/>
<rect x="101.95" y="178.685" width="29.3056" height="29.3056" rx="14.6528" transform="rotate(15.6808 101.95 178.685)" fill="#F14C2D" stroke="#F14C2D" stroke-width="16.7132"/>
<rect x="114.126" y="182.104" width="29.3056" height="29.3056" rx="14.6528" transform="rotate(15.6808 114.126 182.104)" fill="#F14C2D" stroke="#F14C2D" stroke-width="16.7132"/>
<rect x="126.302" y="185.522" width="29.3056" height="29.3056" rx="14.6528" transform="rotate(15.6808 126.302 185.522)" fill="#F14C2D" stroke="#F14C2D" stroke-width="16.7132"/>
<rect x="138.478" y="188.94" width="29.3056" height="29.3056" rx="14.6528" transform="rotate(15.6808 138.478 188.94)" fill="#F14C2D" stroke="#F14C2D" stroke-width="16.7132"/>
<rect x="150.655" y="192.358" width="29.3056" height="29.3056" rx="14.6528" transform="rotate(15.6808 150.655 192.358)" fill="#F14C2D" stroke="#F14C2D" stroke-width="16.7132"/>
<rect x="162.831" y="195.776" width="29.3056" height="29.3056" rx="14.6528" transform="rotate(15.6808 162.831 195.776)" fill="#F14C2D" stroke="#F14C2D" stroke-width="16.7132"/>
<rect x="175.007" y="199.195" width="29.3056" height="29.3056" rx="14.6528" transform="rotate(15.6808 175.007 199.195)" fill="#F14C2D" stroke="#F14C2D" stroke-width="16.7132"/>
<rect x="187.183" y="202.613" width="29.3056" height="29.3056" rx="14.6528" transform="rotate(15.6808 187.183 202.613)" fill="#F14C2D" stroke="#F14C2D" stroke-width="16.7132"/>
<rect x="199.36" y="206.031" width="29.3056" height="29.3056" rx="14.6528" transform="rotate(15.6808 199.36 206.031)" fill="#F14C2D" stroke="#F14C2D" stroke-width="16.7132"/>
<rect x="211.536" y="209.449" width="29.3056" height="29.3056" rx="14.6528" transform="rotate(15.6808 211.536 209.449)" fill="#F14C2D" stroke="#F14C2D" stroke-width="16.7132"/>
<rect x="13.299" y="166.934" width="29.3056" height="29.3056" rx="14.6528" transform="rotate(15.6808 13.299 166.934)" fill="#F14C2D" stroke="#F14C2D" stroke-width="16.7132"/>
<rect x="25.4745" y="170.352" width="29.3056" height="29.3056" rx="14.6528" transform="rotate(15.6808 25.4745 170.352)" fill="#F14C2D" stroke="#F14C2D" stroke-width="16.7132"/>
<rect x="37.6513" y="173.77" width="29.3056" height="29.3056" rx="14.6528" transform="rotate(15.6808 37.6513 173.77)" fill="#F14C2D" stroke="#F14C2D" stroke-width="16.7132"/>
<rect x="49.8273" y="177.188" width="29.3056" height="29.3056" rx="14.6528" transform="rotate(15.6808 49.8273 177.188)" fill="#F14C2D" stroke="#F14C2D" stroke-width="16.7132"/>
<rect x="62.0038" y="180.607" width="29.3056" height="29.3056" rx="14.6528" transform="rotate(15.6808 62.0038 180.607)" fill="#F14C2D" stroke="#F14C2D" stroke-width="16.7132"/>
<rect x="74.1796" y="184.025" width="29.3056" height="29.3056" rx="14.6528" transform="rotate(15.6808 74.1796 184.025)" fill="#F14C2D" stroke="#F14C2D" stroke-width="16.7132"/>
<rect x="86.3554" y="187.443" width="29.3056" height="29.3056" rx="14.6528" transform="rotate(15.6808 86.3554 187.443)" fill="#F14C2D" stroke="#F14C2D" stroke-width="16.7132"/>
<rect x="98.5322" y="190.861" width="29.3056" height="29.3056" rx="14.6528" transform="rotate(15.6808 98.5322 190.861)" fill="#F14C2D" stroke="#F14C2D" stroke-width="16.7132"/>
<rect x="110.708" y="194.279" width="29.3056" height="29.3056" rx="14.6528" transform="rotate(15.6808 110.708 194.279)" fill="#F14C2D" stroke="#F14C2D" stroke-width="16.7132"/>
<rect x="122.884" y="197.697" width="29.3056" height="29.3056" rx="14.6528" transform="rotate(15.6808 122.884 197.697)" fill="#F14C2D" stroke="#F14C2D" stroke-width="16.7132"/>
<rect x="135.06" y="201.115" width="29.3056" height="29.3056" rx="14.6528" transform="rotate(15.6808 135.06 201.115)" fill="#F14C2D" stroke="#F14C2D" stroke-width="16.7132"/>
<rect x="147.237" y="204.534" width="29.3056" height="29.3056" rx="14.6528" transform="rotate(15.6808 147.237 204.534)" fill="#F14C2D" stroke="#F14C2D" stroke-width="16.7132"/>
<rect x="159.414" y="207.952" width="29.3056" height="29.3056" rx="14.6528" transform="rotate(15.6808 159.414 207.952)" fill="#F14C2D" stroke="#F14C2D" stroke-width="16.7132"/>
<rect x="171.589" y="211.37" width="29.3056" height="29.3056" rx="14.6528" transform="rotate(15.6808 171.589 211.37)" fill="#F14C2D" stroke="#F14C2D" stroke-width="16.7132"/>
<rect x="183.765" y="214.789" width="29.3056" height="29.3056" rx="14.6528" transform="rotate(15.6808 183.765 214.789)" fill="#F14C2D" stroke="#F14C2D" stroke-width="16.7132"/>
<rect x="195.942" y="218.206" width="29.3056" height="29.3056" rx="14.6528" transform="rotate(15.6808 195.942 218.206)" fill="#F14C2D" stroke="#F14C2D" stroke-width="16.7132"/>
<rect x="208.118" y="221.625" width="29.3056" height="29.3056" rx="14.6528" transform="rotate(15.6808 208.118 221.625)" fill="#F14C2D" stroke="#F14C2D" stroke-width="16.7132"/>
<rect x="108.88" y="44.8174" width="12.5924" height="12.5924" rx="6.29619" transform="rotate(15.6808 108.88 44.8174)" fill="#5BA865"/>
<rect x="121.056" y="48.2357" width="12.5924" height="12.5924" rx="6.29619" transform="rotate(15.6808 121.056 48.2357)" fill="#5BA865"/>
<rect x="133.232" y="51.6542" width="12.5924" height="12.5924" rx="6.29619" transform="rotate(15.6808 133.232 51.6542)" fill="#5BA865"/>
<rect x="181.937" y="65.3265" width="12.5924" height="12.5924" rx="6.29619" transform="rotate(15.6808 181.937 65.3265)" fill="#5BA865"/>
<rect x="194.041" y="68.724" width="12.5924" height="12.5924" rx="6.29619" transform="rotate(15.6808 194.041 68.724)" fill="#5BA865"/>
<rect x="206.29" y="72.1627" width="12.5924" height="12.5924" rx="6.29619" transform="rotate(15.6808 206.29 72.1627)" fill="#5BA865"/>
<rect x="93.2139" y="53.5563" width="12.5924" height="12.5924" rx="6.29619" transform="rotate(15.6808 93.2139 53.5563)" fill="#F5F3E1"/>
<rect x="105.39" y="56.9738" width="12.5924" height="12.5924" rx="6.29619" transform="rotate(15.6808 105.39 56.9738)" fill="#F5F3E1"/>
<rect x="117.566" y="60.3923" width="12.5924" height="12.5924" rx="6.29619" transform="rotate(15.6808 117.566 60.3923)" fill="#5BA865"/>
<rect x="129.742" y="63.8099" width="12.5924" height="12.5924" rx="6.29619" transform="rotate(15.6808 129.742 63.8099)" fill="#5BA865"/>
<rect x="141.918" y="67.2284" width="12.5924" height="12.5924" rx="6.29619" transform="rotate(15.6808 141.918 67.2284)" fill="#5BA865"/>
<rect x="154.094" y="70.6469" width="12.5924" height="12.5924" rx="6.29619" transform="rotate(15.6808 154.094 70.6469)" fill="#3A7D43"/>
<rect x="166.271" y="74.0643" width="12.5924" height="12.5924" rx="6.29619" transform="rotate(15.6808 166.271 74.0643)" fill="#5BA865"/>
<rect x="178.447" y="77.4832" width="12.5924" height="12.5924" rx="6.29619" transform="rotate(15.6808 178.447 77.4832)" fill="#5BA865"/>
<rect x="190.623" y="80.9006" width="12.5924" height="12.5924" rx="6.29619" transform="rotate(15.6808 190.623 80.9006)" fill="#5BA865"/>
<rect x="145.336" y="55.0518" width="12.5924" height="12.5924" rx="6.29619" transform="rotate(15.6808 145.336 55.0518)" fill="#FFEA4C"/>
<rect x="157.512" y="58.4702" width="12.5924" height="12.5924" rx="6.29619" transform="rotate(15.6808 157.512 58.4702)" fill="#FFEA4C"/>
<rect x="160.9" y="46.4012" width="12.5924" height="12.5924" rx="6.29619" transform="rotate(15.6808 160.9 46.4012)" fill="#FFEA4C"/>
<rect x="136.405" y="39.525" width="12.5924" height="12.5924" rx="6.29619" transform="rotate(15.6808 136.405 39.525)" fill="#FFEA4C"/>
<rect x="185.433" y="53.2882" width="12.5924" height="12.5924" rx="6.29619" transform="rotate(15.6808 185.433 53.2882)" fill="#FFEA4C"/>
<rect x="169.689" y="61.8878" width="12.5924" height="12.5924" rx="6.29619" transform="rotate(15.6808 169.689 61.8878)" fill="#FFEA4C"/>
<rect x="202.8" y="84.3193" width="12.5924" height="12.5924" rx="6.29619" transform="rotate(15.6808 202.8 84.3193)" fill="#F5F3E1"/>
<rect x="214.976" y="87.7378" width="12.5924" height="12.5924" rx="6.29619" transform="rotate(15.6808 214.976 87.7378)" fill="#F5F3E1"/>
<rect x="89.796" y="65.7308" width="12.5924" height="12.5924" rx="6.29619" transform="rotate(15.6808 89.796 65.7308)" fill="#F5F3E1"/>
<rect x="101.972" y="69.1495" width="12.5924" height="12.5924" rx="6.29619" transform="rotate(15.6808 101.972 69.1495)" fill="#060100"/>
<rect x="114.148" y="72.568" width="12.5924" height="12.5924" rx="6.29619" transform="rotate(15.6808 114.148 72.568)" fill="#5BA865"/>
<rect x="126.324" y="75.9854" width="12.5924" height="12.5924" rx="6.29619" transform="rotate(15.6808 126.324 75.9854)" fill="#5BA865"/>
<rect x="138.501" y="79.4041" width="12.5924" height="12.5924" rx="6.29619" transform="rotate(15.6808 138.501 79.4041)" fill="#5BA865"/>
<rect x="150.677" y="82.8217" width="12.5924" height="12.5924" rx="6.29619" transform="rotate(15.6808 150.677 82.8217)" fill="#3A7D43"/>
<rect x="162.852" y="86.2399" width="12.5924" height="12.5924" rx="6.29619" transform="rotate(15.6808 162.852 86.2399)" fill="#5BA865"/>
<rect x="175.029" y="89.6587" width="12.5924" height="12.5924" rx="6.29619" transform="rotate(15.6808 175.029 89.6587)" fill="#5BA865"/>
<rect x="187.205" y="93.0763" width="12.5924" height="12.5924" rx="6.29619" transform="rotate(15.6808 187.205 93.0763)" fill="#5BA865"/>
<rect x="199.382" y="96.4951" width="12.5924" height="12.5924" rx="6.29619" transform="rotate(15.6808 199.382 96.4951)" fill="#050400"/>
<rect x="211.558" y="99.9125" width="12.5924" height="12.5924" rx="6.29619" transform="rotate(15.6808 211.558 99.9125)" fill="#F5F3E1"/>
<rect x="86.3775" y="77.9073" width="12.5924" height="12.5924" rx="6.29619" transform="rotate(15.6808 86.3775 77.9073)" fill="#F5F3E1"/>
<rect x="98.554" y="81.326" width="12.5924" height="12.5924" rx="6.29619" transform="rotate(15.6808 98.554 81.326)" fill="#050400"/>
<rect x="110.73" y="84.7434" width="12.5924" height="12.5924" rx="6.29619" transform="rotate(15.6808 110.73 84.7434)" fill="#5BA865"/>
<rect x="122.906" y="88.162" width="12.5924" height="12.5924" rx="6.29619" transform="rotate(15.6808 122.906 88.162)" fill="#5BA865"/>
<rect x="135.082" y="91.5807" width="12.5924" height="12.5924" rx="6.29619" transform="rotate(15.6808 135.082 91.5807)" fill="#5BA865"/>
<rect x="147.259" y="94.9982" width="12.5924" height="12.5924" rx="6.29619" transform="rotate(15.6808 147.259 94.9982)" fill="#5BA865"/>
<rect x="159.434" y="98.4165" width="12.5924" height="12.5924" rx="6.29619" transform="rotate(15.6808 159.434 98.4165)" fill="#5BA865"/>
<rect x="171.611" y="101.834" width="12.5924" height="12.5924" rx="6.29619" transform="rotate(15.6808 171.611 101.834)" fill="#5BA865"/>
<rect x="183.787" y="105.253" width="12.5924" height="12.5924" rx="6.29619" transform="rotate(15.6808 183.787 105.253)" fill="#5BA865"/>
<rect x="195.964" y="108.672" width="12.5924" height="12.5924" rx="6.29619" transform="rotate(15.6808 195.964 108.672)" fill="#050400"/>
<rect x="208.139" y="112.089" width="12.5924" height="12.5924" rx="6.29619" transform="rotate(15.6808 208.139 112.089)" fill="#F5F3E1"/>
<rect x="82.9588" y="90.0837" width="12.5924" height="12.5924" rx="6.29619" transform="rotate(15.6808 82.9588 90.0837)" fill="#F5F3E1"/>
<rect x="95.1358" y="93.5027" width="12.5924" height="12.5924" rx="6.29619" transform="rotate(15.6808 95.1358 93.5027)" fill="#F5F3E1"/>
<rect x="107.312" y="96.92" width="12.5924" height="12.5924" rx="6.29619" transform="rotate(15.6808 107.312 96.92)" fill="#5BA865"/>
<rect x="119.488" y="100.339" width="12.5924" height="12.5924" rx="6.29619" transform="rotate(15.6808 119.488 100.339)" fill="#5BA865"/>
<rect x="131.664" y="103.757" width="12.5924" height="12.5924" rx="6.29619" transform="rotate(15.6808 131.664 103.757)" fill="#5BA865"/>
<rect x="143.84" y="107.175" width="12.5924" height="12.5924" rx="6.29619" transform="rotate(15.6808 143.84 107.175)" fill="#5BA865"/>
<rect x="156.016" y="110.593" width="12.5924" height="12.5924" rx="6.29619" transform="rotate(15.6808 156.016 110.593)" fill="#5BA865"/>
<rect x="168.193" y="114.011" width="12.5924" height="12.5924" rx="6.29619" transform="rotate(15.6808 168.193 114.011)" fill="#5BA865"/>
<rect x="180.369" y="117.43" width="12.5924" height="12.5924" rx="6.29619" transform="rotate(15.6808 180.369 117.43)" fill="#5BA865"/>
<rect x="192.545" y="120.847" width="12.5924" height="12.5924" rx="6.29619" transform="rotate(15.6808 192.545 120.847)" fill="#F5F3E1"/>
<rect x="204.721" y="124.266" width="12.5924" height="12.5924" rx="6.29619" transform="rotate(15.6808 204.721 124.266)" fill="#F5F3E1"/>
<rect x="79.5413" y="102.261" width="12.5924" height="12.5924" rx="6.29619" transform="rotate(15.6808 79.5413 102.261)" fill="#284F3E"/>
<rect x="91.7171" y="105.679" width="12.5924" height="12.5924" rx="6.29619" transform="rotate(15.6808 91.7171 105.679)" fill="#5BA865"/>
<rect x="103.893" y="109.097" width="12.5924" height="12.5924" rx="6.29619" transform="rotate(15.6808 103.893 109.097)" fill="#FAF38B"/>
<rect x="116.069" y="112.515" width="12.5924" height="12.5924" rx="6.29619" transform="rotate(15.6808 116.069 112.515)" fill="#FAF38B"/>
<rect x="128.246" y="115.933" width="12.5924" height="12.5924" rx="6.29619" transform="rotate(15.6808 128.246 115.933)" fill="#FAF38B"/>
<rect x="140.422" y="119.351" width="12.5924" height="12.5924" rx="6.29619" transform="rotate(15.6808 140.422 119.351)" fill="#FAF38B"/>
<rect x="152.598" y="122.77" width="12.5924" height="12.5924" rx="6.29619" transform="rotate(15.6808 152.598 122.77)" fill="#FAF38B"/>
<rect x="164.774" y="126.187" width="12.5924" height="12.5924" rx="6.29619" transform="rotate(15.6808 164.774 126.187)" fill="#FAF38B"/>
<rect x="176.95" y="129.606" width="12.5924" height="12.5924" rx="6.29619" transform="rotate(15.6808 176.95 129.606)" fill="#FAF38B"/>
<rect x="189.127" y="133.024" width="12.5924" height="12.5924" rx="6.29619" transform="rotate(15.6808 189.127 133.024)" fill="#5BA865"/>
<rect x="201.303" y="136.442" width="12.5924" height="12.5924" rx="6.29619" transform="rotate(15.6808 201.303 136.442)" fill="#284F3E"/>
<rect x="76.1229" y="114.436" width="12.5924" height="12.5924" rx="6.29619" transform="rotate(15.6808 76.1229 114.436)" fill="#284F3E"/>
<rect x="88.2999" y="117.854" width="12.5924" height="12.5924" rx="6.29619" transform="rotate(15.6808 88.2999 117.854)" fill="#FAF38B"/>
<rect x="100.476" y="121.272" width="12.5924" height="12.5924" rx="6.29619" transform="rotate(15.6808 100.476 121.272)" fill="#FAF38B"/>
<rect x="112.651" y="124.691" width="12.5924" height="12.5924" rx="6.29619" transform="rotate(15.6808 112.651 124.691)" fill="#FAF38B"/>
<rect x="124.828" y="128.108" width="12.5924" height="12.5924" rx="6.29619" transform="rotate(15.6808 124.828 128.108)" fill="#FAF38B"/>
<rect x="137.004" y="131.527" width="12.5924" height="12.5924" rx="6.29619" transform="rotate(15.6808 137.004 131.527)" fill="#FAF38B"/>
<rect x="149.18" y="134.945" width="12.5924" height="12.5924" rx="6.29619" transform="rotate(15.6808 149.18 134.945)" fill="#FAF38B"/>
<rect x="161.356" y="138.363" width="12.5924" height="12.5924" rx="6.29619" transform="rotate(15.6808 161.356 138.363)" fill="#FAF38B"/>
<rect x="173.533" y="141.782" width="12.5924" height="12.5924" rx="6.29619" transform="rotate(15.6808 173.533 141.782)" fill="#FAF38B"/>
<rect x="185.709" y="145.199" width="12.5924" height="12.5924" rx="6.29619" transform="rotate(15.6808 185.709 145.199)" fill="#FAF38B"/>
<rect x="197.885" y="148.618" width="12.5924" height="12.5924" rx="6.29619" transform="rotate(15.6808 197.885 148.618)" fill="#5BA865"/>
<rect x="60.5286" y="123.194" width="12.5924" height="12.5924" rx="6.29619" transform="rotate(15.6808 60.5286 123.194)" fill="#5BA865"/>
<rect x="72.7047" y="126.613" width="12.5924" height="12.5924" rx="6.29619" transform="rotate(15.6808 72.7047 126.613)" fill="#5BA865"/>
<rect x="84.8814" y="130.03" width="12.5924" height="12.5924" rx="6.29619" transform="rotate(15.6808 84.8814 130.03)" fill="#5BA865"/>
<rect x="97.0574" y="133.449" width="12.5924" height="12.5924" rx="6.29619" transform="rotate(15.6808 97.0574 133.449)" fill="#FFEA4C"/>
<rect x="109.233" y="136.867" width="12.5924" height="12.5924" rx="6.29619" transform="rotate(15.6808 109.233 136.867)" fill="#FFEA4C"/>
<rect x="121.409" y="140.285" width="12.5924" height="12.5924" rx="6.29619" transform="rotate(15.6808 121.409 140.285)" fill="#FAF38B"/>
<rect x="133.586" y="143.703" width="12.5924" height="12.5924" rx="6.29619" transform="rotate(15.6808 133.586 143.703)" fill="#FAF38B"/>
<rect x="145.762" y="147.121" width="12.5924" height="12.5924" rx="6.29619" transform="rotate(15.6808 145.762 147.121)" fill="#FAF38B"/>
<rect x="157.938" y="150.539" width="12.5924" height="12.5924" rx="6.29619" transform="rotate(15.6808 157.938 150.539)" fill="#FFEA4C"/>
<rect x="170.114" y="153.958" width="12.5924" height="12.5924" rx="6.29619" transform="rotate(15.6808 170.114 153.958)" fill="#FFEA4C"/>
<rect x="182.291" y="157.376" width="12.5924" height="12.5924" rx="6.29619" transform="rotate(15.6808 182.291 157.376)" fill="#5BA865"/>
<rect x="194.467" y="160.794" width="12.5924" height="12.5924" rx="6.29619" transform="rotate(15.6808 194.467 160.794)" fill="#5BA865"/>
<rect x="206.643" y="164.212" width="12.5924" height="12.5924" rx="6.29619" transform="rotate(15.6808 206.643 164.212)" fill="#5BA865"/>
<rect x="44.9344" y="131.951" width="12.5924" height="12.5924" rx="6.29619" transform="rotate(15.6808 44.9344 131.951)" fill="#5BA865"/>
<rect x="57.1109" y="135.37" width="12.5924" height="12.5924" rx="6.29619" transform="rotate(15.6808 57.1109 135.37)" fill="#5BA865"/>
<rect x="69.2869" y="138.788" width="12.5924" height="12.5924" rx="6.29619" transform="rotate(15.6808 69.2869 138.788)" fill="#5BA865"/>
<rect x="81.4637" y="142.206" width="12.5924" height="12.5924" rx="6.29619" transform="rotate(15.6808 81.4637 142.206)" fill="#5BA865"/>
<rect x="93.639" y="145.624" width="12.5924" height="12.5924" rx="6.29619" transform="rotate(15.6808 93.639 145.624)" fill="#FFEA4C"/>
<rect x="105.815" y="149.042" width="12.5924" height="12.5924" rx="6.29619" transform="rotate(15.6808 105.815 149.042)" fill="#FFEA4C"/>
<rect x="117.992" y="152.461" width="12.5924" height="12.5924" rx="6.29619" transform="rotate(15.6808 117.992 152.461)" fill="#FFEA4C"/>
<rect x="130.167" y="155.879" width="12.5924" height="12.5924" rx="6.29619" transform="rotate(15.6808 130.167 155.879)" fill="#FFEA4C"/>
<rect x="142.344" y="159.297" width="12.5924" height="12.5924" rx="6.29619" transform="rotate(15.6808 142.344 159.297)" fill="#FFEA4C"/>
<rect x="154.52" y="162.715" width="12.5924" height="12.5924" rx="6.29619" transform="rotate(15.6808 154.52 162.715)" fill="#FFEA4C"/>
<rect x="166.697" y="166.133" width="12.5924" height="12.5924" rx="6.29619" transform="rotate(15.6808 166.697 166.133)" fill="#FFEA4C"/>
<rect x="178.873" y="169.551" width="12.5924" height="12.5924" rx="6.29619" transform="rotate(15.6808 178.873 169.551)" fill="#5BA865"/>
<rect x="191.049" y="172.97" width="12.5924" height="12.5924" rx="6.29619" transform="rotate(15.6808 191.049 172.97)" fill="#5BA865"/>
<rect x="203.225" y="176.387" width="12.5924" height="12.5924" rx="6.29619" transform="rotate(15.6808 203.225 176.387)" fill="#5BA865"/>
<rect x="215.401" y="179.806" width="12.5924" height="12.5924" rx="6.29619" transform="rotate(15.6808 215.401 179.806)" fill="#5BA865"/>
<rect x="41.5159" y="144.129" width="12.5924" height="12.5924" rx="6.29619" transform="rotate(15.6808 41.5159 144.129)" fill="#5BA865"/>
<rect x="53.6925" y="147.547" width="12.5924" height="12.5924" rx="6.29619" transform="rotate(15.6808 53.6925 147.547)" fill="#5BA865"/>
<rect x="65.8687" y="150.965" width="12.5924" height="12.5924" rx="6.29619" transform="rotate(15.6808 65.8687 150.965)" fill="#5BA865"/>
<rect x="78.045" y="154.384" width="12.5924" height="12.5924" rx="6.29619" transform="rotate(15.6808 78.045 154.384)" fill="#5BA865"/>
<rect x="90.2205" y="157.802" width="12.5924" height="12.5924" rx="6.29619" transform="rotate(15.6808 90.2205 157.802)" fill="#284F3E"/>
<rect x="102.397" y="161.219" width="12.5924" height="12.5924" rx="6.29619" transform="rotate(15.6808 102.397 161.219)" fill="#FFEA4C"/>
<rect x="114.573" y="164.638" width="12.5924" height="12.5924" rx="6.29619" transform="rotate(15.6808 114.573 164.638)" fill="#FFEA4C"/>
<rect x="126.749" y="168.057" width="12.5924" height="12.5924" rx="6.29619" transform="rotate(15.6808 126.749 168.057)" fill="#FFEA4C"/>
<rect x="138.925" y="171.474" width="12.5924" height="12.5924" rx="6.29619" transform="rotate(15.6808 138.925 171.474)" fill="#FFEA4C"/>
<rect x="151.101" y="174.893" width="12.5924" height="12.5924" rx="6.29619" transform="rotate(15.6808 151.101 174.893)" fill="#FFEA4C"/>
<rect x="163.278" y="178.31" width="12.5924" height="12.5924" rx="6.29619" transform="rotate(15.6808 163.278 178.31)" fill="#284F3E"/>
<rect x="175.454" y="181.729" width="12.5924" height="12.5924" rx="6.29619" transform="rotate(15.6808 175.454 181.729)" fill="#5BA865"/>
<rect x="187.63" y="185.146" width="12.5924" height="12.5924" rx="6.29619" transform="rotate(15.6808 187.63 185.146)" fill="#5BA865"/>
<rect x="199.806" y="188.565" width="12.5924" height="12.5924" rx="6.29619" transform="rotate(15.6808 199.806 188.565)" fill="#5BA865"/>
<rect x="211.983" y="191.984" width="12.5924" height="12.5924" rx="6.29619" transform="rotate(15.6808 211.983 191.984)" fill="#5BA865"/>
<rect x="38.0982" y="156.304" width="12.5924" height="12.5924" rx="6.29619" transform="rotate(15.6808 38.0982 156.304)" fill="#5BA865"/>
<rect x="50.2745" y="159.723" width="12.5924" height="12.5924" rx="6.29619" transform="rotate(15.6808 50.2745 159.723)" fill="#5BA865"/>
<rect x="62.4503" y="163.14" width="12.5924" height="12.5924" rx="6.29619" transform="rotate(15.6808 62.4503 163.14)" fill="#5BA865"/>
<rect x="74.6268" y="166.559" width="12.5924" height="12.5924" rx="6.29619" transform="rotate(15.6808 74.6268 166.559)" fill="#5BA865"/>
<rect x="86.8026" y="169.978" width="12.5924" height="12.5924" rx="6.29619" transform="rotate(15.6808 86.8026 169.978)" fill="#284F3E"/>
<rect x="98.9791" y="173.395" width="12.5924" height="12.5924" rx="6.29619" transform="rotate(15.6808 98.9791 173.395)" fill="#FFEA4C"/>
<rect x="111.155" y="176.814" width="12.5924" height="12.5924" rx="6.29619" transform="rotate(15.6808 111.155 176.814)" fill="#FFEA4C"/>
<rect x="123.331" y="180.231" width="12.5924" height="12.5924" rx="6.29619" transform="rotate(15.6808 123.331 180.231)" fill="#FFEA4C"/>
<rect x="135.507" y="183.65" width="12.5924" height="12.5924" rx="6.29619" transform="rotate(15.6808 135.507 183.65)" fill="#FFEA4C"/>
<rect x="147.684" y="187.068" width="12.5924" height="12.5924" rx="6.29619" transform="rotate(15.6808 147.684 187.068)" fill="#FFEA4C"/>
<rect x="159.86" y="190.486" width="12.5924" height="12.5924" rx="6.29619" transform="rotate(15.6808 159.86 190.486)" fill="#5BA865"/>
<rect x="172.036" y="193.905" width="12.5924" height="12.5924" rx="6.29619" transform="rotate(15.6808 172.036 193.905)" fill="#5BA865"/>
<rect x="184.213" y="197.322" width="12.5924" height="12.5924" rx="6.29619" transform="rotate(15.6808 184.213 197.322)" fill="#5BA865"/>
<rect x="196.389" y="200.741" width="12.5924" height="12.5924" rx="6.29619" transform="rotate(15.6808 196.389 200.741)" fill="#5BA865"/>
<rect x="208.565" y="204.159" width="12.5924" height="12.5924" rx="6.29619" transform="rotate(15.6808 208.565 204.159)" fill="#5BA865"/>
<rect x="22.504" y="165.062" width="12.5924" height="12.5924" rx="6.29619" transform="rotate(15.6808 22.504 165.062)" fill="#5BA865"/>
<rect x="34.6798" y="168.481" width="12.5924" height="12.5924" rx="6.29619" transform="rotate(15.6808 34.6798 168.481)" fill="#5BA865"/>
<rect x="46.8563" y="171.9" width="12.5924" height="12.5924" rx="6.29619" transform="rotate(15.6808 46.8563 171.9)" fill="#5BA865"/>
<rect x="59.0321" y="175.317" width="12.5924" height="12.5924" rx="6.29619" transform="rotate(15.6808 59.0321 175.317)" fill="#5BA865"/>
<rect x="71.2086" y="178.736" width="12.5924" height="12.5924" rx="6.29619" transform="rotate(15.6808 71.2086 178.736)" fill="#5BA865"/>
<rect x="83.3848" y="182.153" width="12.5924" height="12.5924" rx="6.29619" transform="rotate(15.6808 83.3848 182.153)" fill="#284F3E"/>
<rect x="95.5609" y="185.572" width="12.5924" height="12.5924" rx="6.29619" transform="rotate(15.6808 95.5609 185.572)" fill="#284F3E"/>
<rect x="107.737" y="188.99" width="12.5924" height="12.5924" rx="6.29619" transform="rotate(15.6808 107.737 188.99)" fill="#FFEA4C"/>
<rect x="119.913" y="192.408" width="12.5924" height="12.5924" rx="6.29619" transform="rotate(15.6808 119.913 192.408)" fill="#FFEA4C"/>
<rect x="132.089" y="195.826" width="12.5924" height="12.5924" rx="6.29619" transform="rotate(15.6808 132.089 195.826)" fill="#FFEA4C"/>
<rect x="144.266" y="199.244" width="12.5924" height="12.5924" rx="6.29619" transform="rotate(15.6808 144.266 199.244)" fill="#284F3E"/>
<rect x="156.442" y="202.662" width="12.5924" height="12.5924" rx="6.29619" transform="rotate(15.6808 156.442 202.662)" fill="#5BA865"/>
<rect x="168.618" y="206.081" width="12.5924" height="12.5924" rx="6.29619" transform="rotate(15.6808 168.618 206.081)" fill="#5BA865"/>
<rect x="180.795" y="209.499" width="12.5924" height="12.5924" rx="6.29619" transform="rotate(15.6808 180.795 209.499)" fill="#5BA865"/>
<rect x="192.97" y="212.917" width="12.5924" height="12.5924" rx="6.29619" transform="rotate(15.6808 192.97 212.917)" fill="#5BA865"/>
<rect x="205.147" y="216.335" width="12.5924" height="12.5924" rx="6.29619" transform="rotate(15.6808 205.147 216.335)" fill="#5BA865"/>
<rect x="217.323" y="219.753" width="12.5924" height="12.5924" rx="6.29619" transform="rotate(15.6808 217.323 219.753)" fill="#5BA865"/>
<rect x="19.086" y="177.238" width="12.5924" height="12.5924" rx="6.29619" transform="rotate(15.6808 19.086 177.238)" fill="#5BA865"/>
<rect x="31.262" y="180.657" width="12.5924" height="12.5924" rx="6.29619" transform="rotate(15.6808 31.262 180.657)" fill="#284F3E"/>
<rect x="43.4383" y="184.074" width="12.5924" height="12.5924" rx="6.29619" transform="rotate(15.6808 43.4383 184.074)" fill="#5BA865"/>
<rect x="55.6143" y="187.493" width="12.5924" height="12.5924" rx="6.29619" transform="rotate(15.6808 55.6143 187.493)" fill="#284F3E"/>
<rect x="67.7908" y="190.911" width="12.5924" height="12.5924" rx="6.29619" transform="rotate(15.6808 67.7908 190.911)" fill="#5BA865"/>
<rect x="79.9666" y="194.329" width="12.5924" height="12.5924" rx="6.29619" transform="rotate(15.6808 79.9666 194.329)" fill="#284F3E"/>
<rect x="92.1424" y="197.747" width="12.5924" height="12.5924" rx="6.29619" transform="rotate(15.6808 92.1424 197.747)" fill="#284F3E"/>
<rect x="104.319" y="201.165" width="12.5924" height="12.5924" rx="6.29619" transform="rotate(15.6808 104.319 201.165)" fill="#FFEA4C"/>
<rect x="116.495" y="204.583" width="12.5924" height="12.5924" rx="6.29619" transform="rotate(15.6808 116.495 204.583)" fill="#FFEA4C"/>
<rect x="128.671" y="208.002" width="12.5924" height="12.5924" rx="6.29619" transform="rotate(15.6808 128.671 208.002)" fill="#FFEA4C"/>
<rect x="140.847" y="211.42" width="12.5924" height="12.5924" rx="6.29619" transform="rotate(15.6808 140.847 211.42)" fill="#284F3E"/>
<rect x="153.024" y="214.838" width="12.5924" height="12.5924" rx="6.29619" transform="rotate(15.6808 153.024 214.838)" fill="#284F3E"/>
<rect x="165.201" y="218.256" width="12.5924" height="12.5924" rx="6.29619" transform="rotate(15.6808 165.201 218.256)" fill="#5BA865"/>
<rect x="177.376" y="221.674" width="12.5924" height="12.5924" rx="6.29619" transform="rotate(15.6808 177.376 221.674)" fill="#284F3E"/>
<rect x="189.552" y="225.093" width="12.5924" height="12.5924" rx="6.29619" transform="rotate(15.6808 189.552 225.093)" fill="#5BA865"/>
<rect x="201.729" y="228.51" width="12.5924" height="12.5924" rx="6.29619" transform="rotate(15.6808 201.729 228.51)" fill="#284F3E"/>
<rect x="213.905" y="231.929" width="12.5924" height="12.5924" rx="6.29619" transform="rotate(15.6808 213.905 231.929)" fill="#5BA865"/>
</svg>
