<svg width="258" height="274" viewBox="0 0 258 274" fill="none" xmlns="http://www.w3.org/2000/svg">
<rect x="34.9764" y="53.8515" width="12.9925" height="12.9925" transform="rotate(-21.8482 34.9764 53.8515)" fill="#F14C2D" stroke="#F14C2D" stroke-width="2.08916"/>
<rect x="45.0951" y="49.7914" width="12.9925" height="12.9925" transform="rotate(-21.8482 45.0951 49.7914)" fill="#F14C2D" stroke="#F14C2D" stroke-width="2.08916"/>
<rect x="28.9152" y="68.0301" width="12.9925" height="12.9925" transform="rotate(-21.8482 28.9152 68.0301)" fill="#F14C2D" stroke="#F14C2D" stroke-width="2.08916"/>
<rect x="39.0326" y="63.9676" width="12.9925" height="12.9925" transform="rotate(-21.8482 39.0326 63.9676)" fill="#F14C2D" stroke="#F14C2D" stroke-width="2.08916"/>
<rect x="49.1488" y="59.9172" width="12.9925" height="12.9925" transform="rotate(-21.8482 49.1488 59.9172)" fill="#F14C2D" stroke="#F14C2D" stroke-width="2.08916"/>
<rect x="69.3956" y="51.7995" width="12.9925" height="12.9925" transform="rotate(-21.8482 69.3956 51.7995)" fill="#F14C2D" stroke="#F14C2D" stroke-width="2.08916"/>
<rect x="79.5128" y="47.7402" width="12.9925" height="12.9925" transform="rotate(-21.8482 79.5128 47.7402)" fill="#F14C2D" stroke="#F14C2D" stroke-width="2.08916"/>
<rect x="89.6344" y="43.6848" width="12.9925" height="12.9925" transform="rotate(-21.8482 89.6344 43.6848)" fill="#F14C2D" stroke="#F14C2D" stroke-width="2.08916"/>
<rect x="43.09" y="74.091" width="12.9925" height="12.9925" transform="rotate(-21.8482 43.09 74.091)" fill="#F14C2D" stroke="#F14C2D" stroke-width="2.08916"/>
<rect x="53.212" y="70.0353" width="12.9925" height="12.9925" transform="rotate(-21.8482 53.212 70.0353)" fill="#F14C2D" stroke="#F14C2D" stroke-width="2.08916"/>
<rect x="63.3314" y="65.978" width="12.9925" height="12.9925" transform="rotate(-21.8482 63.3314 65.978)" fill="#F14C2D" stroke="#F14C2D" stroke-width="2.08916"/>
<rect x="73.4486" y="61.913" width="12.9925" height="12.9925" transform="rotate(-21.8482 73.4486 61.913)" fill="#F14C2D" stroke="#F14C2D" stroke-width="2.08916"/>
<rect x="83.5687" y="57.8641" width="12.9925" height="12.9925" transform="rotate(-21.8482 83.5687 57.8641)" fill="#F14C2D" stroke="#F14C2D" stroke-width="2.08916"/>
<rect x="16.786" y="96.3857" width="12.9925" height="12.9925" transform="rotate(-21.8482 16.786 96.3857)" fill="#F14C2D" stroke="#F14C2D" stroke-width="2.08916"/>
<rect x="26.9064" y="92.3277" width="12.9925" height="12.9925" transform="rotate(-21.8482 26.9064 92.3277)" fill="#F14C2D" stroke="#F14C2D" stroke-width="2.08916"/>
<rect x="37.0309" y="88.2714" width="12.9925" height="12.9925" transform="rotate(-21.8482 37.0309 88.2714)" fill="#F14C2D" stroke="#F14C2D" stroke-width="2.08916"/>
<rect x="47.1495" y="84.2115" width="12.9925" height="12.9925" transform="rotate(-21.8482 47.1495 84.2115)" fill="#F14C2D" stroke="#F14C2D" stroke-width="2.08916"/>
<rect x="57.2711" y="80.1562" width="12.9925" height="12.9925" transform="rotate(-21.8482 57.2711 80.1562)" fill="#F14C2D" stroke="#F14C2D" stroke-width="2.08916"/>
<rect x="67.3866" y="76.1005" width="12.9925" height="12.9925" transform="rotate(-21.8482 67.3866 76.1005)" fill="#F14C2D" stroke="#F14C2D" stroke-width="2.08916"/>
<rect x="77.5084" y="72.039" width="12.9925" height="12.9925" transform="rotate(-21.8482 77.5084 72.039)" fill="#F14C2D" stroke="#F14C2D" stroke-width="2.08916"/>
<rect x="20.8461" y="106.502" width="12.9925" height="12.9925" transform="rotate(-21.8482 20.8461 106.502)" fill="#F14C2D" stroke="#F14C2D" stroke-width="2.08916"/>
<rect x="30.9659" y="102.445" width="12.9925" height="12.9925" transform="rotate(-21.8482 30.9659 102.445)" fill="#F14C2D" stroke="#F14C2D" stroke-width="2.08916"/>
<rect x="41.0873" y="98.3892" width="12.9925" height="12.9925" transform="rotate(-21.8482 41.0873 98.3892)" fill="#F14C2D" stroke="#F14C2D" stroke-width="2.08916"/>
<rect x="51.2047" y="94.3328" width="12.9925" height="12.9925" transform="rotate(-21.8482 51.2047 94.3328)" fill="#F14C2D" stroke="#F14C2D" stroke-width="2.08916"/>
<rect x="61.3246" y="90.2724" width="12.9925" height="12.9925" transform="rotate(-21.8482 61.3246 90.2724)" fill="#F14C2D" stroke="#F14C2D" stroke-width="2.08916"/>
<rect x="71.4493" y="86.2184" width="12.9925" height="12.9925" transform="rotate(-21.8482 71.4493 86.2184)" fill="#F14C2D" stroke="#F14C2D" stroke-width="2.08916"/>
<rect x="81.5658" y="82.1569" width="12.9925" height="12.9925" transform="rotate(-21.8482 81.5658 82.1569)" fill="#F14C2D" stroke="#F14C2D" stroke-width="2.08916"/>
<rect x="91.6869" y="78.1015" width="12.9925" height="12.9925" transform="rotate(-21.8482 91.6869 78.1015)" fill="#F14C2D" stroke="#F14C2D" stroke-width="2.08916"/>
<rect x="55.2638" y="104.447" width="12.9925" height="12.9925" transform="rotate(-21.8482 55.2638 104.447)" fill="#F14C2D" stroke="#F14C2D" stroke-width="2.08916"/>
<rect x="65.3846" y="100.392" width="12.9925" height="12.9925" transform="rotate(-21.8482 65.3846 100.392)" fill="#F14C2D" stroke="#F14C2D" stroke-width="2.08916"/>
<rect x="75.5089" y="96.3393" width="12.9925" height="12.9925" transform="rotate(-21.8482 75.5089 96.3393)" fill="#F14C2D" stroke="#F14C2D" stroke-width="2.08916"/>
<rect x="85.6244" y="92.2805" width="12.9925" height="12.9925" transform="rotate(-21.8482 85.6244 92.2805)" fill="#F14C2D" stroke="#F14C2D" stroke-width="2.08916"/>
<rect x="95.7413" y="88.2204" width="12.9925" height="12.9925" transform="rotate(-21.8482 95.7413 88.2204)" fill="#F14C2D" stroke="#F14C2D" stroke-width="2.08916"/>
<rect x="105.864" y="84.1616" width="12.9925" height="12.9925" transform="rotate(-21.8482 105.864 84.1616)" fill="#F14C2D" stroke="#F14C2D" stroke-width="2.08916"/>
<rect x="49.2025" y="118.628" width="12.9925" height="12.9925" transform="rotate(-21.8482 49.2025 118.628)" fill="#F14C2D" stroke="#F14C2D" stroke-width="2.08916"/>
<rect x="59.3173" y="114.57" width="12.9925" height="12.9925" transform="rotate(-21.8482 59.3173 114.57)" fill="#F14C2D" stroke="#F14C2D" stroke-width="2.08916"/>
<rect x="69.4383" y="110.515" width="12.9925" height="12.9925" transform="rotate(-21.8482 69.4383 110.515)" fill="#F14C2D" stroke="#F14C2D" stroke-width="2.08916"/>
<rect x="79.5582" y="106.457" width="12.9925" height="12.9925" transform="rotate(-21.8482 79.5582 106.457)" fill="#F14C2D" stroke="#F14C2D" stroke-width="2.08916"/>
<rect x="89.6839" y="102.397" width="12.9925" height="12.9925" transform="rotate(-21.8482 89.6839 102.397)" fill="#F14C2D" stroke="#F14C2D" stroke-width="2.08916"/>
<rect x="99.8058" y="98.342" width="12.9925" height="12.9925" transform="rotate(-21.8482 99.8058 98.342)" fill="#F14C2D" stroke="#F14C2D" stroke-width="2.08916"/>
<rect x="109.922" y="94.2831" width="12.9925" height="12.9925" transform="rotate(-21.8482 109.922 94.2831)" fill="#F14C2D" stroke="#F14C2D" stroke-width="2.08916"/>
<rect x="120.04" y="90.2263" width="12.9925" height="12.9925" transform="rotate(-21.8482 120.04 90.2263)" fill="#F14C2D" stroke="#F14C2D" stroke-width="2.08916"/>
<rect x="130.163" y="86.1674" width="12.9925" height="12.9925" transform="rotate(-21.8482 130.163 86.1674)" fill="#F14C2D" stroke="#F14C2D" stroke-width="2.08916"/>
<rect x="53.2596" y="128.752" width="12.9925" height="12.9925" transform="rotate(-21.8482 53.2596 128.752)" fill="#F14C2D" stroke="#F14C2D" stroke-width="2.08916"/>
<rect x="63.3785" y="124.692" width="12.9925" height="12.9925" transform="rotate(-21.8482 63.3785 124.692)" fill="#F14C2D" stroke="#F14C2D" stroke-width="2.08916"/>
<rect x="73.4994" y="120.631" width="12.9925" height="12.9925" transform="rotate(-21.8482 73.4994 120.631)" fill="#F14C2D" stroke="#F14C2D" stroke-width="2.08916"/>
<rect x="83.6222" y="116.578" width="12.9925" height="12.9925" transform="rotate(-21.8482 83.6222 116.578)" fill="#F14C2D" stroke="#F14C2D" stroke-width="2.08916"/>
<rect x="103.858" y="108.464" width="12.9925" height="12.9925" transform="rotate(-21.8482 103.858 108.464)" fill="#F14C2D" stroke="#F14C2D" stroke-width="2.08916"/>
<rect x="113.977" y="104.404" width="12.9925" height="12.9925" transform="rotate(-21.8482 113.977 104.404)" fill="#F14C2D" stroke="#F14C2D" stroke-width="2.08916"/>
<rect x="124.101" y="100.348" width="12.9925" height="12.9925" transform="rotate(-21.8482 124.101 100.348)" fill="#F14C2D" stroke="#F14C2D" stroke-width="2.08916"/>
<rect x="134.22" y="96.2852" width="12.9925" height="12.9925" transform="rotate(-21.8482 134.22 96.2852)" fill="#F14C2D" stroke="#F14C2D" stroke-width="2.08916"/>
<rect x="144.336" y="92.2317" width="12.9925" height="12.9925" transform="rotate(-21.8482 144.336 92.2317)" fill="#F14C2D" stroke="#F14C2D" stroke-width="2.08916"/>
<rect x="154.458" y="88.1766" width="12.9925" height="12.9925" transform="rotate(-21.8482 154.458 88.1766)" fill="#F14C2D" stroke="#F14C2D" stroke-width="2.08916"/>
<rect x="164.581" y="84.1121" width="12.9925" height="12.9925" transform="rotate(-21.8482 164.581 84.1121)" fill="#F14C2D" stroke="#F14C2D" stroke-width="2.08916"/>
<rect x="67.4381" y="134.809" width="12.9925" height="12.9925" transform="rotate(-21.8482 67.4381 134.809)" fill="#F14C2D" stroke="#F14C2D" stroke-width="2.08916"/>
<rect x="107.916" y="118.582" width="12.9925" height="12.9925" transform="rotate(-21.8482 107.916 118.582)" fill="#F14C2D" stroke="#F14C2D" stroke-width="2.08916"/>
<rect x="118.036" y="114.519" width="12.9925" height="12.9925" transform="rotate(-21.8482 118.036 114.519)" fill="#F14C2D" stroke="#F14C2D" stroke-width="2.08916"/>
<rect x="128.157" y="110.467" width="12.9925" height="12.9925" transform="rotate(-21.8482 128.157 110.467)" fill="#F14C2D" stroke="#F14C2D" stroke-width="2.08916"/>
<rect x="148.396" y="102.352" width="12.9925" height="12.9925" transform="rotate(-21.8482 148.396 102.352)" fill="#F14C2D" stroke="#F14C2D" stroke-width="2.08916"/>
<rect x="158.514" y="98.2925" width="12.9925" height="12.9925" transform="rotate(-21.8482 158.514 98.2925)" fill="#F14C2D" stroke="#F14C2D" stroke-width="2.08916"/>
<rect x="168.641" y="94.2382" width="12.9925" height="12.9925" transform="rotate(-21.8482 168.641 94.2382)" fill="#F14C2D" stroke="#F14C2D" stroke-width="2.08916"/>
<rect x="101.857" y="132.757" width="12.9925" height="12.9925" transform="rotate(-21.8482 101.857 132.757)" fill="#F14C2D" stroke="#F14C2D" stroke-width="2.08916"/>
<rect x="111.975" y="128.702" width="12.9925" height="12.9925" transform="rotate(-21.8482 111.975 128.702)" fill="#F14C2D" stroke="#F14C2D" stroke-width="2.08916"/>
<rect x="122.092" y="124.64" width="12.9925" height="12.9925" transform="rotate(-21.8482 122.092 124.64)" fill="#F14C2D" stroke="#F14C2D" stroke-width="2.08916"/>
<rect x="132.214" y="120.588" width="12.9925" height="12.9925" transform="rotate(-21.8482 132.214 120.588)" fill="#F14C2D" stroke="#F14C2D" stroke-width="2.08916"/>
<rect x="142.336" y="116.527" width="12.9925" height="12.9925" transform="rotate(-21.8482 142.336 116.527)" fill="#F14C2D" stroke="#F14C2D" stroke-width="2.08916"/>
<rect x="162.573" y="108.412" width="12.9925" height="12.9925" transform="rotate(-21.8482 162.573 108.412)" fill="#F14C2D" stroke="#F14C2D" stroke-width="2.08916"/>
<rect x="182.813" y="100.297" width="12.9925" height="12.9925" transform="rotate(-21.8482 182.813 100.297)" fill="#F14C2D" stroke="#F14C2D" stroke-width="2.08916"/>
<rect x="192.93" y="96.2409" width="12.9925" height="12.9925" transform="rotate(-21.8482 192.93 96.2409)" fill="#F14C2D" stroke="#F14C2D" stroke-width="2.08916"/>
<rect x="105.913" y="142.878" width="12.9925" height="12.9925" transform="rotate(-21.8482 105.913 142.878)" fill="#F14C2D" stroke="#F14C2D" stroke-width="2.08916"/>
<rect x="136.276" y="130.71" width="12.9925" height="12.9925" transform="rotate(-21.8482 136.276 130.71)" fill="#F14C2D" stroke="#F14C2D" stroke-width="2.08916"/>
<rect x="146.392" y="126.648" width="12.9925" height="12.9925" transform="rotate(-21.8482 146.392 126.648)" fill="#F14C2D" stroke="#F14C2D" stroke-width="2.08916"/>
<rect x="156.512" y="122.591" width="12.9925" height="12.9925" transform="rotate(-21.8482 156.512 122.591)" fill="#F14C2D" stroke="#F14C2D" stroke-width="2.08916"/>
<rect x="166.634" y="118.536" width="12.9925" height="12.9925" transform="rotate(-21.8482 166.634 118.536)" fill="#F14C2D" stroke="#F14C2D" stroke-width="2.08916"/>
<rect x="176.755" y="114.475" width="12.9925" height="12.9925" transform="rotate(-21.8482 176.755 114.475)" fill="#F14C2D" stroke="#F14C2D" stroke-width="2.08916"/>
<rect x="186.873" y="110.42" width="12.9925" height="12.9925" transform="rotate(-21.8482 186.873 110.42)" fill="#F14C2D" stroke="#F14C2D" stroke-width="2.08916"/>
<rect x="196.991" y="106.358" width="12.9925" height="12.9925" transform="rotate(-21.8482 196.991 106.358)" fill="#F14C2D" stroke="#F14C2D" stroke-width="2.08916"/>
<rect x="69.4896" y="169.23" width="12.9925" height="12.9925" transform="rotate(-21.8482 69.4896 169.23)" fill="#F14C2D" stroke="#F14C2D" stroke-width="2.08916"/>
<rect x="79.61" y="165.172" width="12.9925" height="12.9925" transform="rotate(-21.8482 79.61 165.172)" fill="#F14C2D" stroke="#F14C2D" stroke-width="2.08916"/>
<rect x="89.7284" y="161.112" width="12.9925" height="12.9925" transform="rotate(-21.8482 89.7284 161.112)" fill="#F14C2D" stroke="#F14C2D" stroke-width="2.08916"/>
<rect x="109.966" y="153.001" width="12.9925" height="12.9925" transform="rotate(-21.8482 109.966 153.001)" fill="#F14C2D" stroke="#F14C2D" stroke-width="2.08916"/>
<rect x="140.33" y="140.829" width="12.9925" height="12.9925" transform="rotate(-21.8482 140.33 140.829)" fill="#F14C2D" stroke="#F14C2D" stroke-width="2.08916"/>
<rect x="150.449" y="136.769" width="12.9925" height="12.9925" transform="rotate(-21.8482 150.449 136.769)" fill="#F14C2D" stroke="#F14C2D" stroke-width="2.08916"/>
<rect x="160.566" y="132.713" width="12.9925" height="12.9925" transform="rotate(-21.8482 160.566 132.713)" fill="#F14C2D" stroke="#F14C2D" stroke-width="2.08916"/>
<rect x="170.688" y="128.649" width="12.9925" height="12.9925" transform="rotate(-21.8482 170.688 128.649)" fill="#F14C2D" stroke="#F14C2D" stroke-width="2.08916"/>
<rect x="180.811" y="124.596" width="12.9925" height="12.9925" transform="rotate(-21.8482 180.811 124.596)" fill="#F14C2D" stroke="#F14C2D" stroke-width="2.08916"/>
<rect x="190.932" y="120.538" width="12.9925" height="12.9925" transform="rotate(-21.8482 190.932 120.538)" fill="#F14C2D" stroke="#F14C2D" stroke-width="2.08916"/>
<rect x="73.5485" y="179.35" width="12.9925" height="12.9925" transform="rotate(-21.8482 73.5485 179.35)" fill="#F14C2D" stroke="#F14C2D" stroke-width="2.08916"/>
<rect x="83.6666" y="175.29" width="12.9925" height="12.9925" transform="rotate(-21.8482 83.6666 175.29)" fill="#F14C2D" stroke="#F14C2D" stroke-width="2.08916"/>
<rect x="93.7826" y="171.231" width="12.9925" height="12.9925" transform="rotate(-21.8482 93.7826 171.231)" fill="#F14C2D" stroke="#F14C2D" stroke-width="2.08916"/>
<rect x="103.908" y="167.178" width="12.9925" height="12.9925" transform="rotate(-21.8482 103.908 167.178)" fill="#F14C2D" stroke="#F14C2D" stroke-width="2.08916"/>
<rect x="114.029" y="163.12" width="12.9925" height="12.9925" transform="rotate(-21.8482 114.029 163.12)" fill="#F14C2D" stroke="#F14C2D" stroke-width="2.08916"/>
<rect x="154.507" y="146.893" width="12.9925" height="12.9925" transform="rotate(-21.8482 154.507 146.893)" fill="#F14C2D" stroke="#F14C2D" stroke-width="2.08916"/>
<rect x="164.624" y="142.827" width="12.9925" height="12.9925" transform="rotate(-21.8482 164.624 142.827)" fill="#F14C2D" stroke="#F14C2D" stroke-width="2.08916"/>
<rect x="174.749" y="138.777" width="12.9925" height="12.9925" transform="rotate(-21.8482 174.749 138.777)" fill="#F14C2D" stroke="#F14C2D" stroke-width="2.08916"/>
<rect x="184.869" y="134.72" width="12.9925" height="12.9925" transform="rotate(-21.8482 184.869 134.72)" fill="#F14C2D" stroke="#F14C2D" stroke-width="2.08916"/>
<rect x="194.982" y="130.658" width="12.9925" height="12.9925" transform="rotate(-21.8482 194.982 130.658)" fill="#F14C2D" stroke="#F14C2D" stroke-width="2.08916"/>
<rect x="205.105" y="126.603" width="12.9925" height="12.9925" transform="rotate(-21.8482 205.105 126.603)" fill="#F14C2D" stroke="#F14C2D" stroke-width="2.08916"/>
<rect x="107.967" y="177.297" width="12.9925" height="12.9925" transform="rotate(-21.8482 107.967 177.297)" fill="#F14C2D" stroke="#F14C2D" stroke-width="2.08916"/>
<rect x="118.086" y="173.237" width="12.9925" height="12.9925" transform="rotate(-21.8482 118.086 173.237)" fill="#F14C2D" stroke="#F14C2D" stroke-width="2.08916"/>
<rect x="148.446" y="161.068" width="12.9925" height="12.9925" transform="rotate(-21.8482 148.446 161.068)" fill="#F14C2D" stroke="#F14C2D" stroke-width="2.08916"/>
<rect x="168.684" y="152.95" width="12.9925" height="12.9925" transform="rotate(-21.8482 168.684 152.95)" fill="#F14C2D" stroke="#F14C2D" stroke-width="2.08916"/>
<rect x="178.802" y="148.894" width="12.9925" height="12.9925" transform="rotate(-21.8482 178.802 148.894)" fill="#F14C2D" stroke="#F14C2D" stroke-width="2.08916"/>
<rect x="199.045" y="140.777" width="12.9925" height="12.9925" transform="rotate(-21.8482 199.045 140.777)" fill="#F14C2D" stroke="#F14C2D" stroke-width="2.08916"/>
<rect x="209.165" y="136.722" width="12.9925" height="12.9925" transform="rotate(-21.8482 209.165 136.722)" fill="#F14C2D" stroke="#F14C2D" stroke-width="2.08916"/>
<rect x="122.138" y="183.36" width="12.9925" height="12.9925" transform="rotate(-21.8482 122.138 183.36)" fill="#F14C2D" stroke="#F14C2D" stroke-width="2.08916"/>
<rect x="142.382" y="175.24" width="12.9925" height="12.9925" transform="rotate(-21.8482 142.382 175.24)" fill="#F14C2D" stroke="#F14C2D" stroke-width="2.08916"/>
<rect x="172.742" y="163.068" width="12.9925" height="12.9925" transform="rotate(-21.8482 172.742 163.068)" fill="#F14C2D" stroke="#F14C2D" stroke-width="2.08916"/>
<rect x="182.861" y="159.01" width="12.9925" height="12.9925" transform="rotate(-21.8482 182.861 159.01)" fill="#F14C2D" stroke="#F14C2D" stroke-width="2.08916"/>
<rect x="126.199" y="193.477" width="12.9925" height="12.9925" transform="rotate(-21.8482 126.199 193.477)" fill="#F14C2D" stroke="#F14C2D" stroke-width="2.08916"/>
<rect x="136.316" y="189.421" width="12.9925" height="12.9925" transform="rotate(-21.8482 136.316 189.421)" fill="#F14C2D" stroke="#F14C2D" stroke-width="2.08916"/>
<rect x="130.258" y="203.6" width="12.9925" height="12.9925" transform="rotate(-21.8482 130.258 203.6)" fill="#F14C2D" stroke="#F14C2D" stroke-width="2.08916"/>
<rect x="140.375" y="199.541" width="12.9925" height="12.9925" transform="rotate(-21.8482 140.375 199.541)" fill="#F14C2D" stroke="#F14C2D" stroke-width="2.08916"/>
<rect x="134.312" y="213.717" width="12.9925" height="12.9925" transform="rotate(-21.8482 134.312 213.717)" fill="#F14C2D" stroke="#F14C2D" stroke-width="2.08916"/>
<rect x="154.555" y="205.603" width="12.9925" height="12.9925" transform="rotate(-21.8482 154.555 205.603)" fill="#F14C2D" stroke="#F14C2D" stroke-width="2.08916"/>
<rect x="164.673" y="201.546" width="12.9925" height="12.9925" transform="rotate(-21.8482 164.673 201.546)" fill="#F14C2D" stroke="#F14C2D" stroke-width="2.08916"/>
<rect x="174.793" y="197.486" width="12.9925" height="12.9925" transform="rotate(-21.8482 174.793 197.486)" fill="#F14C2D" stroke="#F14C2D" stroke-width="2.08916"/>
<rect x="184.913" y="193.431" width="12.9925" height="12.9925" transform="rotate(-21.8482 184.913 193.431)" fill="#F14C2D" stroke="#F14C2D" stroke-width="2.08916"/>
<rect x="138.371" y="223.836" width="12.9925" height="12.9925" transform="rotate(-21.8482 138.371 223.836)" fill="#F14C2D" stroke="#F14C2D" stroke-width="2.08916"/>
<rect x="148.492" y="219.779" width="12.9925" height="12.9925" transform="rotate(-21.8482 148.492 219.779)" fill="#F14C2D" stroke="#F14C2D" stroke-width="2.08916"/>
<rect x="158.613" y="215.724" width="12.9925" height="12.9925" transform="rotate(-21.8482 158.613 215.724)" fill="#F14C2D" stroke="#F14C2D" stroke-width="2.08916"/>
<rect x="168.736" y="211.665" width="12.9925" height="12.9925" transform="rotate(-21.8482 168.736 211.665)" fill="#F14C2D" stroke="#F14C2D" stroke-width="2.08916"/>
<rect x="178.855" y="207.607" width="12.9925" height="12.9925" transform="rotate(-21.8482 178.855 207.607)" fill="#F14C2D" stroke="#F14C2D" stroke-width="2.08916"/>
<rect x="188.973" y="203.551" width="12.9925" height="12.9925" transform="rotate(-21.8482 188.973 203.551)" fill="#F14C2D" stroke="#F14C2D" stroke-width="2.08916"/>
<rect x="142.428" y="233.957" width="12.9925" height="12.9925" transform="rotate(-21.8482 142.428 233.957)" fill="#F14C2D" stroke="#F14C2D" stroke-width="2.08916"/>
<rect x="146.485" y="244.079" width="12.9925" height="12.9925" transform="rotate(-21.8482 146.485 244.079)" fill="#F14C2D" stroke="#F14C2D" stroke-width="2.08916"/>
<rect x="150.547" y="254.198" width="12.9925" height="12.9925" transform="rotate(-21.8482 150.547 254.198)" fill="#F14C2D" stroke="#F14C2D" stroke-width="2.08916"/>
<rect x="23.7789" y="48.79" width="27.0943" height="27.0943" rx="8.35662" transform="rotate(-21.8482 23.7789 48.79)" fill="#F14C2D" stroke="#F14C2D" stroke-width="16.191"/>
<rect x="33.8981" y="44.7327" width="27.0943" height="27.0943" rx="8.35662" transform="rotate(-21.8482 33.8981 44.7327)" fill="#F14C2D" stroke="#F14C2D" stroke-width="16.191"/>
<rect x="17.7181" y="62.9673" width="27.0943" height="27.0943" rx="8.35662" transform="rotate(-21.8482 17.7181 62.9673)" fill="#F14C2D" stroke="#F14C2D" stroke-width="16.191"/>
<rect x="27.8356" y="58.9078" width="27.0943" height="27.0943" rx="8.35662" transform="rotate(-21.8482 27.8356 58.9078)" fill="#F14C2D" stroke="#F14C2D" stroke-width="16.191"/>
<rect x="37.952" y="54.8546" width="27.0943" height="27.0943" rx="8.35662" transform="rotate(-21.8482 37.952 54.8546)" fill="#F14C2D" stroke="#F14C2D" stroke-width="16.191"/>
<rect x="58.2001" y="46.7391" width="27.0943" height="27.0943" rx="8.35662" transform="rotate(-21.8482 58.2001 46.7391)" fill="#F14C2D" stroke="#F14C2D" stroke-width="16.191"/>
<rect x="68.3158" y="42.6775" width="27.0943" height="27.0943" rx="8.35662" transform="rotate(-21.8482 68.3158 42.6775)" fill="#F14C2D" stroke="#F14C2D" stroke-width="16.191"/>
<rect x="78.4374" y="38.6222" width="27.0943" height="27.0943" rx="8.35662" transform="rotate(-21.8482 78.4374 38.6222)" fill="#F14C2D" stroke="#F14C2D" stroke-width="16.191"/>
<rect x="31.8947" y="69.0315" width="27.0943" height="27.0943" rx="8.35662" transform="rotate(-21.8482 31.8947 69.0315)" fill="#F14C2D" stroke="#F14C2D" stroke-width="16.191"/>
<rect x="42.0155" y="64.9736" width="27.0943" height="27.0943" rx="8.35662" transform="rotate(-21.8482 42.0155 64.9736)" fill="#F14C2D" stroke="#F14C2D" stroke-width="16.191"/>
<rect x="52.1334" y="60.917" width="27.0943" height="27.0943" rx="8.35662" transform="rotate(-21.8482 52.1334 60.917)" fill="#F14C2D" stroke="#F14C2D" stroke-width="16.191"/>
<rect x="62.2506" y="56.8509" width="27.0943" height="27.0943" rx="8.35662" transform="rotate(-21.8482 62.2506 56.8509)" fill="#F14C2D" stroke="#F14C2D" stroke-width="16.191"/>
<rect x="72.372" y="52.8053" width="27.0943" height="27.0943" rx="8.35662" transform="rotate(-21.8482 72.372 52.8053)" fill="#F14C2D" stroke="#F14C2D" stroke-width="16.191"/>
<rect x="5.59022" y="91.3256" width="27.0943" height="27.0943" rx="8.35662" transform="rotate(-21.8482 5.59022 91.3256)" fill="#F14C2D" stroke="#F14C2D" stroke-width="16.191"/>
<rect x="15.7089" y="87.2657" width="27.0943" height="27.0943" rx="8.35662" transform="rotate(-21.8482 15.7089 87.2657)" fill="#F14C2D" stroke="#F14C2D" stroke-width="16.191"/>
<rect x="25.8348" y="83.2112" width="27.0943" height="27.0943" rx="8.35662" transform="rotate(-21.8482 25.8348 83.2112)" fill="#F14C2D" stroke="#F14C2D" stroke-width="16.191"/>
<rect x="35.9511" y="79.1495" width="27.0943" height="27.0943" rx="8.35662" transform="rotate(-21.8482 35.9511 79.1495)" fill="#F14C2D" stroke="#F14C2D" stroke-width="16.191"/>
<rect x="46.0731" y="75.094" width="27.0943" height="27.0943" rx="8.35662" transform="rotate(-21.8482 46.0731 75.094)" fill="#F14C2D" stroke="#F14C2D" stroke-width="16.191"/>
<rect x="56.1898" y="71.0378" width="27.0943" height="27.0943" rx="8.35662" transform="rotate(-21.8482 56.1898 71.0378)" fill="#F14C2D" stroke="#F14C2D" stroke-width="16.191"/>
<rect x="66.3109" y="66.977" width="27.0943" height="27.0943" rx="8.35662" transform="rotate(-21.8482 66.3109 66.977)" fill="#F14C2D" stroke="#F14C2D" stroke-width="16.191"/>
<rect x="9.64857" y="101.441" width="27.0943" height="27.0943" rx="8.35662" transform="rotate(-21.8482 9.64857 101.441)" fill="#F14C2D" stroke="#F14C2D" stroke-width="16.191"/>
<rect x="19.7704" y="97.3852" width="27.0943" height="27.0943" rx="8.35662" transform="rotate(-21.8482 19.7704 97.3852)" fill="#F14C2D" stroke="#F14C2D" stroke-width="16.191"/>
<rect x="29.891" y="93.3275" width="27.0943" height="27.0943" rx="8.35662" transform="rotate(-21.8482 29.891 93.3275)" fill="#F14C2D" stroke="#F14C2D" stroke-width="16.191"/>
<rect x="40.0084" y="89.2709" width="27.0943" height="27.0943" rx="8.35662" transform="rotate(-21.8482 40.0084 89.2709)" fill="#F14C2D" stroke="#F14C2D" stroke-width="16.191"/>
<rect x="50.1273" y="85.2139" width="27.0943" height="27.0943" rx="8.35662" transform="rotate(-21.8482 50.1273 85.2139)" fill="#F14C2D" stroke="#F14C2D" stroke-width="16.191"/>
<rect x="60.2531" y="81.1567" width="27.0943" height="27.0943" rx="8.35662" transform="rotate(-21.8482 60.2531 81.1567)" fill="#F14C2D" stroke="#F14C2D" stroke-width="16.191"/>
<rect x="70.37" y="77.0974" width="27.0943" height="27.0943" rx="8.35662" transform="rotate(-21.8482 70.37 77.0974)" fill="#F14C2D" stroke="#F14C2D" stroke-width="16.191"/>
<rect x="80.4909" y="73.0397" width="27.0943" height="27.0943" rx="8.35662" transform="rotate(-21.8482 80.4909 73.0397)" fill="#F14C2D" stroke="#F14C2D" stroke-width="16.191"/>
<rect x="44.0675" y="99.3879" width="27.0943" height="27.0943" rx="8.35662" transform="rotate(-21.8482 44.0675 99.3879)" fill="#F14C2D" stroke="#F14C2D" stroke-width="16.191"/>
<rect x="54.1881" y="95.3299" width="27.0943" height="27.0943" rx="8.35662" transform="rotate(-21.8482 54.1881 95.3299)" fill="#F14C2D" stroke="#F14C2D" stroke-width="16.191"/>
<rect x="64.3109" y="91.2771" width="27.0943" height="27.0943" rx="8.35662" transform="rotate(-21.8482 64.3109 91.2771)" fill="#F14C2D" stroke="#F14C2D" stroke-width="16.191"/>
<rect x="74.4276" y="87.2209" width="27.0943" height="27.0943" rx="8.35662" transform="rotate(-21.8482 74.4276 87.2209)" fill="#F14C2D" stroke="#F14C2D" stroke-width="16.191"/>
<rect x="84.5451" y="83.1584" width="27.0943" height="27.0943" rx="8.35662" transform="rotate(-21.8482 84.5451 83.1584)" fill="#F14C2D" stroke="#F14C2D" stroke-width="16.191"/>
<rect x="94.6691" y="79.1022" width="27.0943" height="27.0943" rx="8.35662" transform="rotate(-21.8482 94.6691 79.1022)" fill="#F14C2D" stroke="#F14C2D" stroke-width="16.191"/>
<rect x="38.0057" y="113.569" width="27.0943" height="27.0943" rx="8.35662" transform="rotate(-21.8482 38.0057 113.569)" fill="#F14C2D" stroke="#F14C2D" stroke-width="16.191"/>
<rect x="48.1215" y="109.51" width="27.0943" height="27.0943" rx="8.35662" transform="rotate(-21.8482 48.1215 109.51)" fill="#F14C2D" stroke="#F14C2D" stroke-width="16.191"/>
<rect x="58.2421" y="105.452" width="27.0943" height="27.0943" rx="8.35662" transform="rotate(-21.8482 58.2421 105.452)" fill="#F14C2D" stroke="#F14C2D" stroke-width="16.191"/>
<rect x="68.3612" y="101.395" width="27.0943" height="27.0943" rx="8.35662" transform="rotate(-21.8482 68.3612 101.395)" fill="#F14C2D" stroke="#F14C2D" stroke-width="16.191"/>
<rect x="78.4874" y="97.3345" width="27.0943" height="27.0943" rx="8.35662" transform="rotate(-21.8482 78.4874 97.3345)" fill="#F14C2D" stroke="#F14C2D" stroke-width="16.191"/>
<rect x="88.6105" y="93.2825" width="27.0943" height="27.0943" rx="8.35662" transform="rotate(-21.8482 88.6105 93.2825)" fill="#F14C2D" stroke="#F14C2D" stroke-width="16.191"/>
<rect x="98.7247" y="89.2244" width="27.0943" height="27.0943" rx="8.35662" transform="rotate(-21.8482 98.7247 89.2244)" fill="#F14C2D" stroke="#F14C2D" stroke-width="16.191"/>
<rect x="108.843" y="85.1636" width="27.0943" height="27.0943" rx="8.35662" transform="rotate(-21.8482 108.843 85.1636)" fill="#F14C2D" stroke="#F14C2D" stroke-width="16.191"/>
<rect x="118.968" y="81.108" width="27.0943" height="27.0943" rx="8.35662" transform="rotate(-21.8482 118.968 81.108)" fill="#F14C2D" stroke="#F14C2D" stroke-width="16.191"/>
<rect x="42.0643" y="123.692" width="27.0943" height="27.0943" rx="8.35662" transform="rotate(-21.8482 42.0643 123.692)" fill="#F14C2D" stroke="#F14C2D" stroke-width="16.191"/>
<rect x="52.1806" y="119.63" width="27.0943" height="27.0943" rx="8.35662" transform="rotate(-21.8482 52.1806 119.63)" fill="#F14C2D" stroke="#F14C2D" stroke-width="16.191"/>
<rect x="62.3041" y="115.572" width="27.0943" height="27.0943" rx="8.35662" transform="rotate(-21.8482 62.3041 115.572)" fill="#F14C2D" stroke="#F14C2D" stroke-width="16.191"/>
<rect x="72.4257" y="111.516" width="27.0943" height="27.0943" rx="8.35662" transform="rotate(-21.8482 72.4257 111.516)" fill="#F14C2D" stroke="#F14C2D" stroke-width="16.191"/>
<rect x="92.662" y="103.402" width="27.0943" height="27.0943" rx="8.35662" transform="rotate(-21.8482 92.662 103.402)" fill="#F14C2D" stroke="#F14C2D" stroke-width="16.191"/>
<rect x="102.781" y="99.3451" width="27.0943" height="27.0943" rx="8.35662" transform="rotate(-21.8482 102.781 99.3451)" fill="#F14C2D" stroke="#F14C2D" stroke-width="16.191"/>
<rect x="112.905" y="95.2862" width="27.0943" height="27.0943" rx="8.35662" transform="rotate(-21.8482 112.905 95.2862)" fill="#F14C2D" stroke="#F14C2D" stroke-width="16.191"/>
<rect x="123.023" y="91.2234" width="27.0943" height="27.0943" rx="8.35662" transform="rotate(-21.8482 123.023 91.2234)" fill="#F14C2D" stroke="#F14C2D" stroke-width="16.191"/>
<rect x="133.14" y="87.17" width="27.0943" height="27.0943" rx="8.35662" transform="rotate(-21.8482 133.14 87.17)" fill="#F14C2D" stroke="#F14C2D" stroke-width="16.191"/>
<rect x="143.261" y="83.1147" width="27.0943" height="27.0943" rx="8.35662" transform="rotate(-21.8482 143.261 83.1147)" fill="#F14C2D" stroke="#F14C2D" stroke-width="16.191"/>
<rect x="153.383" y="79.0508" width="27.0943" height="27.0943" rx="8.35662" transform="rotate(-21.8482 153.383 79.0508)" fill="#F14C2D" stroke="#F14C2D" stroke-width="16.191"/>
<rect x="56.2418" y="129.749" width="27.0943" height="27.0943" rx="8.35662" transform="rotate(-21.8482 56.2418 129.749)" fill="#F14C2D" stroke="#F14C2D" stroke-width="16.191"/>
<rect x="96.7199" y="113.52" width="27.0943" height="27.0943" rx="8.35662" transform="rotate(-21.8482 96.7199 113.52)" fill="#F14C2D" stroke="#F14C2D" stroke-width="16.191"/>
<rect x="106.839" y="109.459" width="27.0943" height="27.0943" rx="8.35662" transform="rotate(-21.8482 106.839 109.459)" fill="#F14C2D" stroke="#F14C2D" stroke-width="16.191"/>
<rect x="116.96" y="105.407" width="27.0943" height="27.0943" rx="8.35662" transform="rotate(-21.8482 116.96 105.407)" fill="#F14C2D" stroke="#F14C2D" stroke-width="16.191"/>
<rect x="137.199" y="97.2899" width="27.0943" height="27.0943" rx="8.35662" transform="rotate(-21.8482 137.199 97.2899)" fill="#F14C2D" stroke="#F14C2D" stroke-width="16.191"/>
<rect x="147.318" y="93.2325" width="27.0943" height="27.0943" rx="8.35662" transform="rotate(-21.8482 147.318 93.2325)" fill="#F14C2D" stroke="#F14C2D" stroke-width="16.191"/>
<rect x="157.443" y="89.1759" width="27.0943" height="27.0943" rx="8.35662" transform="rotate(-21.8482 157.443 89.1759)" fill="#F14C2D" stroke="#F14C2D" stroke-width="16.191"/>
<rect x="90.66" y="127.695" width="27.0943" height="27.0943" rx="8.35662" transform="rotate(-21.8482 90.66 127.695)" fill="#F14C2D" stroke="#F14C2D" stroke-width="16.191"/>
<rect x="100.778" y="123.641" width="27.0943" height="27.0943" rx="8.35662" transform="rotate(-21.8482 100.778 123.641)" fill="#F14C2D" stroke="#F14C2D" stroke-width="16.191"/>
<rect x="110.896" y="119.581" width="27.0943" height="27.0943" rx="8.35662" transform="rotate(-21.8482 110.896 119.581)" fill="#F14C2D" stroke="#F14C2D" stroke-width="16.191"/>
<rect x="121.018" y="115.526" width="27.0943" height="27.0943" rx="8.35662" transform="rotate(-21.8482 121.018 115.526)" fill="#F14C2D" stroke="#F14C2D" stroke-width="16.191"/>
<rect x="131.14" y="111.467" width="27.0943" height="27.0943" rx="8.35662" transform="rotate(-21.8482 131.14 111.467)" fill="#F14C2D" stroke="#F14C2D" stroke-width="16.191"/>
<rect x="151.375" y="103.351" width="27.0943" height="27.0943" rx="8.35662" transform="rotate(-21.8482 151.375 103.351)" fill="#F14C2D" stroke="#F14C2D" stroke-width="16.191"/>
<rect x="171.616" y="95.2384" width="27.0943" height="27.0943" rx="8.35662" transform="rotate(-21.8482 171.616 95.2384)" fill="#F14C2D" stroke="#F14C2D" stroke-width="16.191"/>
<rect x="181.733" y="91.182" width="27.0943" height="27.0943" rx="8.35662" transform="rotate(-21.8482 181.733 91.182)" fill="#F14C2D" stroke="#F14C2D" stroke-width="16.191"/>
<rect x="94.715" y="137.816" width="27.0943" height="27.0943" rx="8.35662" transform="rotate(-21.8482 94.715 137.816)" fill="#F14C2D" stroke="#F14C2D" stroke-width="16.191"/>
<rect x="125.078" y="125.648" width="27.0943" height="27.0943" rx="8.35662" transform="rotate(-21.8482 125.078 125.648)" fill="#F14C2D" stroke="#F14C2D" stroke-width="16.191"/>
<rect x="135.196" y="121.588" width="27.0943" height="27.0943" rx="8.35662" transform="rotate(-21.8482 135.196 121.588)" fill="#F14C2D" stroke="#F14C2D" stroke-width="16.191"/>
<rect x="145.315" y="117.528" width="27.0943" height="27.0943" rx="8.35662" transform="rotate(-21.8482 145.315 117.528)" fill="#F14C2D" stroke="#F14C2D" stroke-width="16.191"/>
<rect x="155.437" y="113.473" width="27.0943" height="27.0943" rx="8.35662" transform="rotate(-21.8482 155.437 113.473)" fill="#F14C2D" stroke="#F14C2D" stroke-width="16.191"/>
<rect x="165.558" y="109.412" width="27.0943" height="27.0943" rx="8.35662" transform="rotate(-21.8482 165.558 109.412)" fill="#F14C2D" stroke="#F14C2D" stroke-width="16.191"/>
<rect x="175.676" y="105.358" width="27.0943" height="27.0943" rx="8.35662" transform="rotate(-21.8482 175.676 105.358)" fill="#F14C2D" stroke="#F14C2D" stroke-width="16.191"/>
<rect x="185.794" y="101.298" width="27.0943" height="27.0943" rx="8.35662" transform="rotate(-21.8482 185.794 101.298)" fill="#F14C2D" stroke="#F14C2D" stroke-width="16.191"/>
<rect x="58.2931" y="164.168" width="27.0943" height="27.0943" rx="8.35662" transform="rotate(-21.8482 58.2931 164.168)" fill="#F14C2D" stroke="#F14C2D" stroke-width="16.191"/>
<rect x="68.4122" y="160.11" width="27.0943" height="27.0943" rx="8.35662" transform="rotate(-21.8482 68.4122 160.11)" fill="#F14C2D" stroke="#F14C2D" stroke-width="16.191"/>
<rect x="78.5321" y="156.053" width="27.0943" height="27.0943" rx="8.35662" transform="rotate(-21.8482 78.5321 156.053)" fill="#F14C2D" stroke="#F14C2D" stroke-width="16.191"/>
<rect x="98.7694" y="147.939" width="27.0943" height="27.0943" rx="8.35662" transform="rotate(-21.8482 98.7694 147.939)" fill="#F14C2D" stroke="#F14C2D" stroke-width="16.191"/>
<rect x="129.133" y="135.768" width="27.0943" height="27.0943" rx="8.35662" transform="rotate(-21.8482 129.133 135.768)" fill="#F14C2D" stroke="#F14C2D" stroke-width="16.191"/>
<rect x="139.254" y="131.71" width="27.0943" height="27.0943" rx="8.35662" transform="rotate(-21.8482 139.254 131.71)" fill="#F14C2D" stroke="#F14C2D" stroke-width="16.191"/>
<rect x="149.369" y="127.651" width="27.0943" height="27.0943" rx="8.35662" transform="rotate(-21.8482 149.369 127.651)" fill="#F14C2D" stroke="#F14C2D" stroke-width="16.191"/>
<rect x="159.49" y="123.586" width="27.0943" height="27.0943" rx="8.35662" transform="rotate(-21.8482 159.49 123.586)" fill="#F14C2D" stroke="#F14C2D" stroke-width="16.191"/>
<rect x="169.614" y="119.534" width="27.0943" height="27.0943" rx="8.35662" transform="rotate(-21.8482 169.614 119.534)" fill="#F14C2D" stroke="#F14C2D" stroke-width="16.191"/>
<rect x="179.735" y="115.479" width="27.0943" height="27.0943" rx="8.35662" transform="rotate(-21.8482 179.735 115.479)" fill="#F14C2D" stroke="#F14C2D" stroke-width="16.191"/>
<rect x="62.3517" y="174.288" width="27.0943" height="27.0943" rx="8.35662" transform="rotate(-21.8482 62.3517 174.288)" fill="#F14C2D" stroke="#F14C2D" stroke-width="16.191"/>
<rect x="72.4713" y="170.23" width="27.0943" height="27.0943" rx="8.35662" transform="rotate(-21.8482 72.4713 170.23)" fill="#F14C2D" stroke="#F14C2D" stroke-width="16.191"/>
<rect x="82.5858" y="166.172" width="27.0943" height="27.0943" rx="8.35662" transform="rotate(-21.8482 82.5858 166.172)" fill="#F14C2D" stroke="#F14C2D" stroke-width="16.191"/>
<rect x="92.7116" y="162.115" width="27.0943" height="27.0943" rx="8.35662" transform="rotate(-21.8482 92.7116 162.115)" fill="#F14C2D" stroke="#F14C2D" stroke-width="16.191"/>
<rect x="102.832" y="158.06" width="27.0943" height="27.0943" rx="8.35662" transform="rotate(-21.8482 102.832 158.06)" fill="#F14C2D" stroke="#F14C2D" stroke-width="16.191"/>
<rect x="143.31" y="141.831" width="27.0943" height="27.0943" rx="8.35662" transform="rotate(-21.8482 143.31 141.831)" fill="#F14C2D" stroke="#F14C2D" stroke-width="16.191"/>
<rect x="153.428" y="137.768" width="27.0943" height="27.0943" rx="8.35662" transform="rotate(-21.8482 153.428 137.768)" fill="#F14C2D" stroke="#F14C2D" stroke-width="16.191"/>
<rect x="163.552" y="133.714" width="27.0943" height="27.0943" rx="8.35662" transform="rotate(-21.8482 163.552 133.714)" fill="#F14C2D" stroke="#F14C2D" stroke-width="16.191"/>
<rect x="173.672" y="129.657" width="27.0943" height="27.0943" rx="8.35662" transform="rotate(-21.8482 173.672 129.657)" fill="#F14C2D" stroke="#F14C2D" stroke-width="16.191"/>
<rect x="183.786" y="125.596" width="27.0943" height="27.0943" rx="8.35662" transform="rotate(-21.8482 183.786 125.596)" fill="#F14C2D" stroke="#F14C2D" stroke-width="16.191"/>
<rect x="193.908" y="121.543" width="27.0943" height="27.0943" rx="8.35662" transform="rotate(-21.8482 193.908 121.543)" fill="#F14C2D" stroke="#F14C2D" stroke-width="16.191"/>
<rect x="96.7709" y="172.235" width="27.0943" height="27.0943" rx="8.35662" transform="rotate(-21.8482 96.7709 172.235)" fill="#F14C2D" stroke="#F14C2D" stroke-width="16.191"/>
<rect x="106.889" y="168.175" width="27.0943" height="27.0943" rx="8.35662" transform="rotate(-21.8482 106.889 168.175)" fill="#F14C2D" stroke="#F14C2D" stroke-width="16.191"/>
<rect x="137.25" y="156.006" width="27.0943" height="27.0943" rx="8.35662" transform="rotate(-21.8482 137.25 156.006)" fill="#F14C2D" stroke="#F14C2D" stroke-width="16.191"/>
<rect x="157.487" y="147.888" width="27.0943" height="27.0943" rx="8.35662" transform="rotate(-21.8482 157.487 147.888)" fill="#F14C2D" stroke="#F14C2D" stroke-width="16.191"/>
<rect x="167.604" y="143.831" width="27.0943" height="27.0943" rx="8.35662" transform="rotate(-21.8482 167.604 143.831)" fill="#F14C2D" stroke="#F14C2D" stroke-width="16.191"/>
<rect x="187.847" y="135.715" width="27.0943" height="27.0943" rx="8.35662" transform="rotate(-21.8482 187.847 135.715)" fill="#F14C2D" stroke="#F14C2D" stroke-width="16.191"/>
<rect x="197.969" y="131.661" width="27.0943" height="27.0943" rx="8.35662" transform="rotate(-21.8482 197.969 131.661)" fill="#F14C2D" stroke="#F14C2D" stroke-width="16.191"/>
<rect x="110.942" y="178.298" width="27.0943" height="27.0943" rx="8.35662" transform="rotate(-21.8482 110.942 178.298)" fill="#F14C2D" stroke="#F14C2D" stroke-width="16.191"/>
<rect x="131.186" y="170.178" width="27.0943" height="27.0943" rx="8.35662" transform="rotate(-21.8482 131.186 170.178)" fill="#F14C2D" stroke="#F14C2D" stroke-width="16.191"/>
<rect x="161.544" y="158.006" width="27.0943" height="27.0943" rx="8.35662" transform="rotate(-21.8482 161.544 158.006)" fill="#F14C2D" stroke="#F14C2D" stroke-width="16.191"/>
<rect x="171.666" y="153.951" width="27.0943" height="27.0943" rx="8.35662" transform="rotate(-21.8482 171.666 153.951)" fill="#F14C2D" stroke="#F14C2D" stroke-width="16.191"/>
<rect x="115.003" y="188.417" width="27.0943" height="27.0943" rx="8.35662" transform="rotate(-21.8482 115.003 188.417)" fill="#F14C2D" stroke="#F14C2D" stroke-width="16.191"/>
<rect x="125.12" y="184.361" width="27.0943" height="27.0943" rx="8.35662" transform="rotate(-21.8482 125.12 184.361)" fill="#F14C2D" stroke="#F14C2D" stroke-width="16.191"/>
<rect x="119.06" y="198.539" width="27.0943" height="27.0943" rx="8.35662" transform="rotate(-21.8482 119.06 198.539)" fill="#F14C2D" stroke="#F14C2D" stroke-width="16.191"/>
<rect x="123.116" y="208.654" width="27.0943" height="27.0943" rx="8.35662" transform="rotate(-21.8482 123.116 208.654)" fill="#F14C2D" stroke="#F14C2D" stroke-width="16.191"/>
<rect x="143.358" y="200.544" width="27.0943" height="27.0943" rx="8.35662" transform="rotate(-21.8482 143.358 200.544)" fill="#F14C2D" stroke="#F14C2D" stroke-width="16.191"/>
<rect x="153.476" y="196.484" width="27.0943" height="27.0943" rx="8.35662" transform="rotate(-21.8482 153.476 196.484)" fill="#F14C2D" stroke="#F14C2D" stroke-width="16.191"/>
<rect x="163.596" y="192.427" width="27.0943" height="27.0943" rx="8.35662" transform="rotate(-21.8482 163.596 192.427)" fill="#F14C2D" stroke="#F14C2D" stroke-width="16.191"/>
<rect x="173.716" y="188.369" width="27.0943" height="27.0943" rx="8.35662" transform="rotate(-21.8482 173.716 188.369)" fill="#F14C2D" stroke="#F14C2D" stroke-width="16.191"/>
<rect x="127.176" y="218.777" width="27.0943" height="27.0943" rx="8.35662" transform="rotate(-21.8482 127.176 218.777)" fill="#F14C2D" stroke="#F14C2D" stroke-width="16.191"/>
<rect x="137.295" y="214.717" width="27.0943" height="27.0943" rx="8.35662" transform="rotate(-21.8482 137.295 214.717)" fill="#F14C2D" stroke="#F14C2D" stroke-width="16.191"/>
<rect x="147.416" y="210.662" width="27.0943" height="27.0943" rx="8.35662" transform="rotate(-21.8482 147.416 210.662)" fill="#F14C2D" stroke="#F14C2D" stroke-width="16.191"/>
<rect x="157.538" y="206.604" width="27.0943" height="27.0943" rx="8.35662" transform="rotate(-21.8482 157.538 206.604)" fill="#F14C2D" stroke="#F14C2D" stroke-width="16.191"/>
<rect x="167.659" y="202.546" width="27.0943" height="27.0943" rx="8.35662" transform="rotate(-21.8482 167.659 202.546)" fill="#F14C2D" stroke="#F14C2D" stroke-width="16.191"/>
<rect x="177.776" y="198.489" width="27.0943" height="27.0943" rx="8.35662" transform="rotate(-21.8482 177.776 198.489)" fill="#F14C2D" stroke="#F14C2D" stroke-width="16.191"/>
<rect x="131.233" y="228.898" width="27.0943" height="27.0943" rx="8.35662" transform="rotate(-21.8482 131.233 228.898)" fill="#F14C2D" stroke="#F14C2D" stroke-width="16.191"/>
<rect x="135.288" y="239.02" width="27.0943" height="27.0943" rx="8.35662" transform="rotate(-21.8482 135.288 239.02)" fill="#F14C2D" stroke="#F14C2D" stroke-width="16.191"/>
<rect x="139.349" y="249.137" width="27.0943" height="27.0943" rx="8.35662" transform="rotate(-21.8482 139.349 249.137)" fill="#F14C2D" stroke="#F14C2D" stroke-width="16.191"/>
<rect x="34.9986" y="54.6726" width="10.6422" height="10.6422" rx="5.32109" transform="rotate(-21.8482 34.9986 54.6726)" fill="#FDF5ED" stroke="#F14C2D" stroke-width="0.261144"/>
<rect x="45.1192" y="50.6149" width="10.6422" height="10.6422" rx="5.32109" transform="rotate(-21.8482 45.1192 50.6149)" fill="#EDCAB4" stroke="#F14C2D" stroke-width="0.261144"/>
<rect x="28.9383" y="68.8537" width="10.6422" height="10.6422" rx="5.32109" transform="rotate(-21.8482 28.9383 68.8537)" fill="#EDCAB4" stroke="#F14C2D" stroke-width="0.261144"/>
<rect x="39.0565" y="64.7901" width="10.6422" height="10.6422" rx="5.32109" transform="rotate(-21.8482 39.0565 64.7901)" fill="#FDF5ED" stroke="#F14C2D" stroke-width="0.261144"/>
<rect x="49.1742" y="60.7401" width="10.6422" height="10.6422" rx="5.32109" transform="rotate(-21.8482 49.1742 60.7401)" fill="#FDF5ED" stroke="#F14C2D" stroke-width="0.261144"/>
<rect x="69.4198" y="52.623" width="10.6422" height="10.6422" rx="5.32109" transform="rotate(-21.8482 69.4198 52.623)" fill="#FDF5ED" stroke="#F14C2D" stroke-width="0.261144"/>
<rect x="79.5382" y="48.563" width="10.6422" height="10.6422" rx="5.32109" transform="rotate(-21.8482 79.5382 48.563)" fill="#FDF5ED" stroke="#F14C2D" stroke-width="0.261144"/>
<rect x="89.6598" y="44.5076" width="10.6422" height="10.6422" rx="5.32109" transform="rotate(-21.8482 89.6598 44.5076)" fill="white" stroke="#F14C2D" stroke-width="0.261144"/>
<rect x="43.1149" y="74.9143" width="10.6422" height="10.6422" rx="5.32109" transform="rotate(-21.8482 43.1149 74.9143)" fill="#FDF5ED" stroke="#F14C2D" stroke-width="0.261144"/>
<rect x="53.2359" y="70.8588" width="10.6422" height="10.6422" rx="5.32109" transform="rotate(-21.8482 53.2359 70.8588)" fill="#FDF5ED" stroke="#F14C2D" stroke-width="0.261144"/>
<rect x="63.358" y="66.8034" width="10.6422" height="10.6422" rx="5.32109" transform="rotate(-21.8482 63.358 66.8034)" fill="#FDF5ED" stroke="#F14C2D" stroke-width="0.261144"/>
<rect x="73.4728" y="62.7394" width="10.6422" height="10.6422" rx="5.32109" transform="rotate(-21.8482 73.4728 62.7394)" fill="#FDF5ED" stroke="#F14C2D" stroke-width="0.261144"/>
<rect x="83.5931" y="58.6875" width="10.6422" height="10.6422" rx="5.32109" transform="rotate(-21.8482 83.5931 58.6875)" fill="#FDF5ED" stroke="#F14C2D" stroke-width="0.261144"/>
<rect x="16.8111" y="97.2078" width="10.6422" height="10.6422" rx="5.32109" transform="rotate(-21.8482 16.8111 97.2078)" fill="#FDF5ED" stroke="#F14C2D" stroke-width="0.261144"/>
<rect x="26.933" y="93.153" width="10.6422" height="10.6422" rx="5.32109" transform="rotate(-21.8482 26.933 93.153)" fill="#FDF5ED" stroke="#F14C2D" stroke-width="0.261144"/>
<rect x="37.0565" y="89.0941" width="10.6422" height="10.6422" rx="5.32109" transform="rotate(-21.8482 37.0565 89.0941)" fill="#FDF5ED" stroke="#F14C2D" stroke-width="0.261144"/>
<rect x="47.1734" y="85.0342" width="10.6422" height="10.6422" rx="5.32109" transform="rotate(-21.8482 47.1734 85.0342)" fill="#FFB6B1" stroke="#F14C2D" stroke-width="0.261144"/>
<rect x="57.2943" y="80.9762" width="10.6422" height="10.6422" rx="5.32109" transform="rotate(-21.8482 57.2943 80.9762)" fill="#EDCAB4" stroke="#F14C2D" stroke-width="0.261144"/>
<rect x="67.412" y="76.9232" width="10.6422" height="10.6422" rx="5.32109" transform="rotate(-21.8482 67.412 76.9232)" fill="#EDCAB4" stroke="#F14C2D" stroke-width="0.261144"/>
<rect x="77.5328" y="72.8617" width="10.6422" height="10.6422" rx="5.32109" transform="rotate(-21.8482 77.5328 72.8617)" fill="#FDF5ED" stroke="#F14C2D" stroke-width="0.261144"/>
<rect x="20.8697" y="107.323" width="10.6422" height="10.6422" rx="5.32109" transform="rotate(-21.8482 20.8697 107.323)" fill="#FDF5ED" stroke="#F14C2D" stroke-width="0.261144"/>
<rect x="30.9935" y="103.269" width="10.6422" height="10.6422" rx="5.32109" transform="rotate(-21.8482 30.9935 103.269)" fill="#FDF5ED" stroke="#F14C2D" stroke-width="0.261144"/>
<rect x="41.1131" y="99.2122" width="10.6422" height="10.6422" rx="5.32109" transform="rotate(-21.8482 41.1131 99.2122)" fill="#FDF5ED" stroke="#F14C2D" stroke-width="0.261144"/>
<rect x="51.2303" y="95.1557" width="10.6422" height="10.6422" rx="5.32109" transform="rotate(-21.8482 51.2303 95.1557)" fill="#FDF5ED" stroke="#F14C2D" stroke-width="0.261144"/>
<rect x="61.348" y="91.0959" width="10.6422" height="10.6422" rx="5.32109" transform="rotate(-21.8482 61.348 91.0959)" fill="#FFFBF6" stroke="#F14C2D" stroke-width="0.261144"/>
<rect x="71.4742" y="87.0419" width="10.6422" height="10.6422" rx="5.32109" transform="rotate(-21.8482 71.4742 87.0419)" fill="#F4846E" stroke="#F14C2D" stroke-width="0.261144"/>
<rect x="81.5912" y="82.9796" width="10.6422" height="10.6422" rx="5.32109" transform="rotate(-21.8482 81.5912 82.9796)" fill="#FDF5ED" stroke="#F14C2D" stroke-width="0.261144"/>
<rect x="91.7128" y="78.9243" width="10.6422" height="10.6422" rx="5.32109" transform="rotate(-21.8482 91.7128 78.9243)" fill="#F4F0EB" stroke="#F14C2D" stroke-width="0.261144"/>
<rect x="55.2887" y="105.27" width="10.6422" height="10.6422" rx="5.32109" transform="rotate(-21.8482 55.2887 105.27)" fill="#FDF5ED" stroke="#F14C2D" stroke-width="0.261144"/>
<rect x="65.4103" y="101.215" width="10.6422" height="10.6422" rx="5.32109" transform="rotate(-21.8482 65.4103 101.215)" fill="#FDF5ED" stroke="#F14C2D" stroke-width="0.261144"/>
<rect x="75.5309" y="97.1635" width="10.6422" height="10.6422" rx="5.32109" transform="rotate(-21.8482 75.5309 97.1635)" fill="#FDF5ED" stroke="#F14C2D" stroke-width="0.261144"/>
<rect x="85.6488" y="93.1031" width="10.6422" height="10.6422" rx="5.32109" transform="rotate(-21.8482 85.6488 93.1031)" fill="#FDF5ED" stroke="#F14C2D" stroke-width="0.261144"/>
<rect x="95.7672" y="89.0432" width="10.6422" height="10.6422" rx="5.32109" transform="rotate(-21.8482 95.7672 89.0432)" fill="#FDF5ED" stroke="#F14C2D" stroke-width="0.261144"/>
<rect x="105.89" y="84.9844" width="10.6422" height="10.6422" rx="5.32109" transform="rotate(-21.8482 105.89 84.9844)" fill="#EDCAB4" stroke="#F14C2D" stroke-width="0.261144"/>
<rect x="49.2269" y="119.451" width="10.6422" height="10.6422" rx="5.32109" transform="rotate(-21.8482 49.2269 119.451)" fill="#FDF5ED" stroke="#F14C2D" stroke-width="0.261144"/>
<rect x="59.3426" y="115.393" width="10.6422" height="10.6422" rx="5.32109" transform="rotate(-21.8482 59.3426 115.393)" fill="#FDF5ED" stroke="#F14C2D" stroke-width="0.261144"/>
<rect x="69.4628" y="111.338" width="10.6422" height="10.6422" rx="5.32109" transform="rotate(-21.8482 69.4628 111.338)" fill="#FDF5ED" stroke="#F14C2D" stroke-width="0.261144"/>
<rect x="79.5848" y="107.283" width="10.6422" height="10.6422" rx="5.32109" transform="rotate(-21.8482 79.5848 107.283)" fill="#284F3E" stroke="#F14C2D" stroke-width="0.261144"/>
<rect x="89.7086" y="103.22" width="10.6422" height="10.6422" rx="5.32109" transform="rotate(-21.8482 89.7086 103.22)" fill="#EDCAB4" stroke="#F14C2D" stroke-width="0.261144"/>
<rect x="99.829" y="99.1626" width="10.6422" height="10.6422" rx="5.32109" transform="rotate(-21.8482 99.829 99.1626)" fill="#FDF5ED" stroke="#F14C2D" stroke-width="0.261144"/>
<rect x="109.943" y="95.1075" width="10.6422" height="10.6422" rx="5.32109" transform="rotate(-21.8482 109.943 95.1075)" fill="#7DA090" stroke="#F14C2D" stroke-width="0.261144"/>
<rect x="120.065" y="91.052" width="10.6422" height="10.6422" rx="5.32109" transform="rotate(-21.8482 120.065 91.052)" fill="#7DA090" stroke="#F14C2D" stroke-width="0.261144"/>
<rect x="130.188" y="86.9901" width="10.6422" height="10.6422" rx="5.32109" transform="rotate(-21.8482 130.188 86.9901)" fill="#7DA090" stroke="#F14C2D" stroke-width="0.261144"/>
<rect x="53.284" y="129.575" width="10.6422" height="10.6422" rx="5.32109" transform="rotate(-21.8482 53.284 129.575)" fill="#FDF5ED" stroke="#F14C2D" stroke-width="0.261144"/>
<rect x="63.4025" y="125.515" width="10.6422" height="10.6422" rx="5.32109" transform="rotate(-21.8482 63.4025 125.515)" fill="#FDF5ED" stroke="#F14C2D" stroke-width="0.261144"/>
<rect x="73.5226" y="121.452" width="10.6422" height="10.6422" rx="5.32109" transform="rotate(-21.8482 73.5226 121.452)" fill="#FDF5ED" stroke="#F14C2D" stroke-width="0.261144"/>
<rect x="83.6463" y="117.401" width="10.6422" height="10.6422" rx="5.32109" transform="rotate(-21.8482 83.6463 117.401)" fill="#284F3E" stroke="#F14C2D" stroke-width="0.261144"/>
<rect x="103.883" y="109.285" width="10.6422" height="10.6422" rx="5.32109" transform="rotate(-21.8482 103.883 109.285)" fill="#7DA090" stroke="#F14C2D" stroke-width="0.261144"/>
<rect x="114" y="105.225" width="10.6422" height="10.6422" rx="5.32109" transform="rotate(-21.8482 114 105.225)" fill="#47827C" stroke="#F14C2D" stroke-width="0.261144"/>
<rect x="124.124" y="101.169" width="10.6422" height="10.6422" rx="5.32109" transform="rotate(-21.8482 124.124 101.169)" fill="#7DA090" stroke="#F14C2D" stroke-width="0.261144"/>
<rect x="134.243" y="97.109" width="10.6422" height="10.6422" rx="5.32109" transform="rotate(-21.8482 134.243 97.109)" fill="#7DA090" stroke="#F14C2D" stroke-width="0.261144"/>
<rect x="144.362" y="93.0547" width="10.6422" height="10.6422" rx="5.32109" transform="rotate(-21.8482 144.362 93.0547)" fill="#EDCAB4" stroke="#F14C2D" stroke-width="0.261144"/>
<rect x="154.481" y="88.9975" width="10.6422" height="10.6422" rx="5.32109" transform="rotate(-21.8482 154.481 88.9975)" fill="#FDF5ED" stroke="#F14C2D" stroke-width="0.261144"/>
<rect x="164.607" y="84.9375" width="10.6422" height="10.6422" rx="5.32109" transform="rotate(-21.8482 164.607 84.9375)" fill="#FDF5ED" stroke="#F14C2D" stroke-width="0.261144"/>
<rect x="67.4635" y="135.632" width="10.6422" height="10.6422" rx="5.32109" transform="rotate(-21.8482 67.4635 135.632)" fill="#7DA090" stroke="#F14C2D" stroke-width="0.261144"/>
<rect x="107.941" y="119.406" width="10.6422" height="10.6422" rx="5.32109" transform="rotate(-21.8482 107.941 119.406)" fill="#47827C" stroke="#F14C2D" stroke-width="0.261144"/>
<rect x="118.06" y="115.342" width="10.6422" height="10.6422" rx="5.32109" transform="rotate(-21.8482 118.06 115.342)" fill="#7DA090" stroke="#F14C2D" stroke-width="0.261144"/>
<rect x="128.181" y="111.291" width="10.6422" height="10.6422" rx="5.32109" transform="rotate(-21.8482 128.181 111.291)" fill="#7DA090" stroke="#F14C2D" stroke-width="0.261144"/>
<rect x="148.42" y="103.176" width="10.6422" height="10.6422" rx="5.32109" transform="rotate(-21.8482 148.42 103.176)" fill="#EDCAB4" stroke="#F14C2D" stroke-width="0.261144"/>
<rect x="158.537" y="99.1166" width="10.6422" height="10.6422" rx="5.32109" transform="rotate(-21.8482 158.537 99.1166)" fill="#FDF5ED" stroke="#F14C2D" stroke-width="0.261144"/>
<rect x="168.665" y="95.0616" width="10.6422" height="10.6422" rx="5.32109" transform="rotate(-21.8482 168.665 95.0616)" fill="#EDCAB4" stroke="#F14C2D" stroke-width="0.261144"/>
<rect x="101.881" y="133.58" width="10.6422" height="10.6422" rx="5.32109" transform="rotate(-21.8482 101.881 133.58)" fill="#284F3E" stroke="#F14C2D" stroke-width="0.261144"/>
<rect x="88.1988" y="127.513" width="10.6422" height="10.6422" rx="5.32109" transform="rotate(-21.8482 88.1988 127.513)" fill="#284F3E" stroke="#F14C2D" stroke-width="0.261144"/>
<rect x="112" y="129.526" width="10.6422" height="10.6422" rx="5.32109" transform="rotate(-21.8482 112 129.526)" fill="#7DA090" stroke="#F14C2D" stroke-width="0.261144"/>
<rect x="122.117" y="125.464" width="10.6422" height="10.6422" rx="5.32109" transform="rotate(-21.8482 122.117 125.464)" fill="#7DA090" stroke="#F14C2D" stroke-width="0.261144"/>
<rect x="132.24" y="121.41" width="10.6422" height="10.6422" rx="5.32109" transform="rotate(-21.8482 132.24 121.41)" fill="#EDCAB4" stroke="#F14C2D" stroke-width="0.261144"/>
<rect x="142.361" y="117.35" width="10.6422" height="10.6422" rx="5.32109" transform="rotate(-21.8482 142.361 117.35)" fill="#F4F0EB" stroke="#F14C2D" stroke-width="0.261144"/>
<rect x="162.6" y="109.238" width="10.6422" height="10.6422" rx="5.32109" transform="rotate(-21.8482 162.6 109.238)" fill="#FDF5ED" stroke="#F14C2D" stroke-width="0.261144"/>
<rect x="182.838" y="101.121" width="10.6422" height="10.6422" rx="5.32109" transform="rotate(-21.8482 182.838 101.121)" fill="#FDF5ED" stroke="#F14C2D" stroke-width="0.261144"/>
<rect x="192.954" y="97.0644" width="10.6422" height="10.6422" rx="5.32109" transform="rotate(-21.8482 192.954 97.0644)" fill="#FDF5ED" stroke="#F14C2D" stroke-width="0.261144"/>
<rect x="105.935" y="143.702" width="10.6422" height="10.6422" rx="5.32109" transform="rotate(-21.8482 105.935 143.702)" fill="#284F3E" stroke="#F14C2D" stroke-width="0.261144"/>
<rect x="136.3" y="131.533" width="10.6422" height="10.6422" rx="5.32109" transform="rotate(-21.8482 136.3 131.533)" fill="#FDF5ED" stroke="#F14C2D" stroke-width="0.261144"/>
<rect x="146.418" y="127.47" width="10.6422" height="10.6422" rx="5.32109" transform="rotate(-21.8482 146.418 127.47)" fill="#FDF5ED" stroke="#F14C2D" stroke-width="0.261144"/>
<rect x="156.537" y="123.413" width="10.6422" height="10.6422" rx="5.32109" transform="rotate(-21.8482 156.537 123.413)" fill="#FDF5ED" stroke="#F14C2D" stroke-width="0.261144"/>
<path d="M171.6 117.381C174.327 116.287 177.425 117.612 178.518 120.34C179.611 123.067 178.287 126.164 175.56 127.258C172.832 128.352 169.735 127.027 168.641 124.3C167.547 121.572 168.872 118.474 171.6 117.381Z" fill="#FFB6B1" stroke="#F14C2D" stroke-width="0.261144"/>
<rect x="176.78" y="115.297" width="10.6422" height="10.6422" rx="5.32109" transform="rotate(-21.8482 176.78 115.297)" fill="#FDF5ED" stroke="#F14C2D" stroke-width="0.261144"/>
<rect x="186.899" y="111.243" width="10.6422" height="10.6422" rx="5.32109" transform="rotate(-21.8482 186.899 111.243)" fill="#FDF5ED" stroke="#F14C2D" stroke-width="0.261144"/>
<rect x="197.015" y="107.181" width="10.6422" height="10.6422" rx="5.32109" transform="rotate(-21.8482 197.015 107.181)" fill="#FDF5ED" stroke="#F14C2D" stroke-width="0.261144"/>
<rect x="69.515" y="170.052" width="10.6422" height="10.6422" rx="5.32109" transform="rotate(-21.8482 69.515 170.052)" fill="#7DA090" stroke="#F14C2D" stroke-width="0.261144"/>
<rect x="79.6346" y="165.995" width="10.6422" height="10.6422" rx="5.32109" transform="rotate(-21.8482 79.6346 165.995)" fill="#7DA090" stroke="#F14C2D" stroke-width="0.261144"/>
<rect x="89.755" y="161.937" width="10.6422" height="10.6422" rx="5.32109" transform="rotate(-21.8482 89.755 161.937)" fill="#7DA090" stroke="#F14C2D" stroke-width="0.261144"/>
<rect x="109.991" y="153.824" width="10.6422" height="10.6422" rx="5.32109" transform="rotate(-21.8482 109.991 153.824)" fill="#284F3E" stroke="#F14C2D" stroke-width="0.261144"/>
<rect x="140.353" y="141.65" width="10.6422" height="10.6422" rx="5.32109" transform="rotate(-21.8482 140.353 141.65)" fill="#FDF5ED" stroke="#F14C2D" stroke-width="0.261144"/>
<rect x="150.473" y="137.592" width="10.6422" height="10.6422" rx="5.32109" transform="rotate(-21.8482 150.473 137.592)" fill="#FDF5ED" stroke="#F14C2D" stroke-width="0.261144"/>
<rect x="160.591" y="133.536" width="10.6422" height="10.6422" rx="5.32109" transform="rotate(-21.8482 160.591 133.536)" fill="#FDF5ED" stroke="#F14C2D" stroke-width="0.261144"/>
<rect x="170.71" y="129.473" width="10.6422" height="10.6422" rx="5.32109" transform="rotate(-21.8482 170.71 129.473)" fill="#FDF5ED" stroke="#F14C2D" stroke-width="0.261144"/>
<rect x="180.834" y="125.42" width="10.6422" height="10.6422" rx="5.32109" transform="rotate(-21.8482 180.834 125.42)" fill="#EDCAB4" stroke="#F14C2D" stroke-width="0.261144"/>
<rect x="190.956" y="121.361" width="10.6422" height="10.6422" rx="5.32109" transform="rotate(-21.8482 190.956 121.361)" fill="#EDCAB4" stroke="#F14C2D" stroke-width="0.261144"/>
<rect x="73.5729" y="180.173" width="10.6422" height="10.6422" rx="5.32109" transform="rotate(-21.8482 73.5729 180.173)" fill="#7DA090" stroke="#F14C2D" stroke-width="0.261144"/>
<rect x="83.6925" y="176.112" width="10.6422" height="10.6422" rx="5.32109" transform="rotate(-21.8482 83.6925 176.112)" fill="#7DA090" stroke="#F14C2D" stroke-width="0.261144"/>
<rect x="93.807" y="172.054" width="10.6422" height="10.6422" rx="5.32109" transform="rotate(-21.8482 93.807 172.054)" fill="#7DA090" stroke="#F14C2D" stroke-width="0.261144"/>
<rect x="103.932" y="167.998" width="10.6422" height="10.6422" rx="5.32109" transform="rotate(-21.8482 103.932 167.998)" fill="#7DA090" stroke="#F14C2D" stroke-width="0.261144"/>
<rect x="114.053" y="163.943" width="10.6422" height="10.6422" rx="5.32109" transform="rotate(-21.8482 114.053 163.943)" fill="#284F3E" stroke="#F14C2D" stroke-width="0.261144"/>
<rect x="154.532" y="147.716" width="10.6422" height="10.6422" rx="5.32109" transform="rotate(-21.8482 154.532 147.716)" fill="#284F3E" stroke="#F14C2D" stroke-width="0.261144"/>
<rect x="164.65" y="143.65" width="10.6422" height="10.6422" rx="5.32109" transform="rotate(-21.8482 164.65 143.65)" fill="#FDF5ED" stroke="#F14C2D" stroke-width="0.261144"/>
<rect x="174.772" y="139.597" width="10.6422" height="10.6422" rx="5.32109" transform="rotate(-21.8482 174.772 139.597)" fill="#FDF5ED" stroke="#F14C2D" stroke-width="0.261144"/>
<rect x="184.894" y="135.543" width="10.6422" height="10.6422" rx="5.32109" transform="rotate(-21.8482 184.894 135.543)" fill="#FDF5ED" stroke="#F14C2D" stroke-width="0.261144"/>
<rect x="195.007" y="131.481" width="10.6422" height="10.6422" rx="5.32109" transform="rotate(-21.8482 195.007 131.481)" fill="#FDF5ED" stroke="#F14C2D" stroke-width="0.261144"/>
<rect x="205.129" y="127.426" width="10.6422" height="10.6422" rx="5.32109" transform="rotate(-21.8482 205.129 127.426)" fill="#FDF5ED" stroke="#F14C2D" stroke-width="0.261144"/>
<rect x="107.993" y="178.12" width="10.6422" height="10.6422" rx="5.32109" transform="rotate(-21.8482 107.993 178.12)" fill="#548477" stroke="#F14C2D" stroke-width="0.261144"/>
<rect x="118.109" y="174.061" width="10.6422" height="10.6422" rx="5.32109" transform="rotate(-21.8482 118.109 174.061)" fill="#284F3E" stroke="#F14C2D" stroke-width="0.261144"/>
<rect x="148.472" y="161.89" width="10.6422" height="10.6422" rx="5.32109" transform="rotate(-21.8482 148.472 161.89)" fill="#284F3E" stroke="#F14C2D" stroke-width="0.261144"/>
<rect x="168.708" y="153.774" width="10.6422" height="10.6422" rx="5.32109" transform="rotate(-21.8482 168.708 153.774)" fill="#FDF5ED" stroke="#F14C2D" stroke-width="0.261144"/>
<rect x="178.829" y="149.719" width="10.6422" height="10.6422" rx="5.32109" transform="rotate(-21.8482 178.829 149.719)" fill="#FDF5ED" stroke="#F14C2D" stroke-width="0.261144"/>
<rect x="199.069" y="141.601" width="10.6422" height="10.6422" rx="5.32109" transform="rotate(-21.8482 199.069 141.601)" fill="#FDF5ED" stroke="#F14C2D" stroke-width="0.261144"/>
<rect x="209.19" y="137.543" width="10.6422" height="10.6422" rx="5.32109" transform="rotate(-21.8482 209.19 137.543)" fill="#FDF5ED" stroke="#F14C2D" stroke-width="0.261144"/>
<rect x="122.164" y="184.183" width="10.6422" height="10.6422" rx="5.32109" transform="rotate(-21.8482 122.164 184.183)" fill="#284F3E" stroke="#F14C2D" stroke-width="0.261144"/>
<rect x="142.409" y="176.066" width="10.6422" height="10.6422" rx="5.32109" transform="rotate(-21.8482 142.409 176.066)" fill="#284F3E" stroke="#F14C2D" stroke-width="0.261144"/>
<rect x="172.765" y="163.889" width="10.6422" height="10.6422" rx="5.32109" transform="rotate(-21.8482 172.765 163.889)" fill="#FDF5ED" stroke="#F14C2D" stroke-width="0.261144"/>
<rect x="182.889" y="159.835" width="10.6422" height="10.6422" rx="5.32109" transform="rotate(-21.8482 182.889 159.835)" fill="#FDF5ED" stroke="#F14C2D" stroke-width="0.261144"/>
<rect x="126.225" y="194.3" width="10.6422" height="10.6422" rx="5.32109" transform="rotate(-21.8482 126.225 194.3)" fill="#284F3E" stroke="#F14C2D" stroke-width="0.261144"/>
<rect x="136.342" y="190.244" width="10.6422" height="10.6422" rx="5.32109" transform="rotate(-21.8482 136.342 190.244)" fill="#284F3E" stroke="#F14C2D" stroke-width="0.261144"/>
<rect x="130.282" y="204.423" width="10.6422" height="10.6422" rx="5.32109" transform="rotate(-21.8482 130.282 204.423)" fill="#284F3E" stroke="#F14C2D" stroke-width="0.261144"/>
<rect x="140.401" y="200.363" width="10.6422" height="10.6422" rx="5.32109" transform="rotate(-21.8482 140.401 200.363)" fill="#284F3E" stroke="#F14C2D" stroke-width="0.261144"/>
<rect x="134.338" y="214.539" width="10.6422" height="10.6422" rx="5.32109" transform="rotate(-21.8482 134.338 214.539)" fill="#284F3E" stroke="#F14C2D" stroke-width="0.261144"/>
<rect x="154.579" y="206.427" width="10.6422" height="10.6422" rx="5.32109" transform="rotate(-21.8482 154.579 206.427)" fill="#7DA090" stroke="#F14C2D" stroke-width="0.261144"/>
<rect x="164.699" y="202.369" width="10.6422" height="10.6422" rx="5.32109" transform="rotate(-21.8482 164.699 202.369)" fill="#7DA090" stroke="#F14C2D" stroke-width="0.261144"/>
<rect x="174.817" y="198.309" width="10.6422" height="10.6422" rx="5.32109" transform="rotate(-21.8482 174.817 198.309)" fill="#7DA090" stroke="#F14C2D" stroke-width="0.261144"/>
<rect x="184.937" y="194.258" width="10.6422" height="10.6422" rx="5.32109" transform="rotate(-21.8482 184.937 194.258)" fill="#7DA090" stroke="#F14C2D" stroke-width="0.261144"/>
<rect x="138.395" y="224.663" width="10.6422" height="10.6422" rx="5.32109" transform="rotate(-21.8482 138.395 224.663)" fill="#284F3E" stroke="#F14C2D" stroke-width="0.261144"/>
<rect x="148.519" y="220.604" width="10.6422" height="10.6422" rx="5.32109" transform="rotate(-21.8482 148.519 220.604)" fill="#548477" stroke="#F14C2D" stroke-width="0.261144"/>
<rect x="158.638" y="216.547" width="10.6422" height="10.6422" rx="5.32109" transform="rotate(-21.8482 158.638 216.547)" fill="#7DA090" stroke="#F14C2D" stroke-width="0.261144"/>
<rect x="168.76" y="212.488" width="10.6422" height="10.6422" rx="5.32109" transform="rotate(-21.8482 168.76 212.488)" fill="#7DA090" stroke="#F14C2D" stroke-width="0.261144"/>
<rect x="178.877" y="208.432" width="10.6422" height="10.6422" rx="5.32109" transform="rotate(-21.8482 178.877 208.432)" fill="#7DA090" stroke="#F14C2D" stroke-width="0.261144"/>
<rect x="188.999" y="204.377" width="10.6422" height="10.6422" rx="5.32109" transform="rotate(-21.8482 188.999 204.377)" fill="#7DA090" stroke="#F14C2D" stroke-width="0.261144"/>
<rect x="142.454" y="234.78" width="10.6422" height="10.6422" rx="5.32109" transform="rotate(-21.8482 142.454 234.78)" fill="#284F3E" stroke="#F14C2D" stroke-width="0.261144"/>
<rect x="146.509" y="244.902" width="10.6422" height="10.6422" rx="5.32109" transform="rotate(-21.8482 146.509 244.902)" fill="#284F3E" stroke="#F14C2D" stroke-width="0.261144"/>
<rect x="150.57" y="255.019" width="10.6422" height="10.6422" rx="5.32109" transform="rotate(-21.8482 150.57 255.019)" fill="#284F3E" stroke="#F14C2D" stroke-width="0.261144"/>
</svg>
