<svg width="43" height="43" viewBox="0 0 43 43" fill="none" xmlns="http://www.w3.org/2000/svg">
<path d="M34.3994 38.7007C34.3994 41.0752 36.3245 43.0001 38.6989 43.0001C41.0734 43.0001 42.9984 41.0752 42.9984 38.7007C42.9984 36.3263 41.0734 34.4014 38.6989 34.4014C36.3245 34.4014 34.3994 36.3263 34.3994 38.7007Z" fill="#FFFAF5"/>
<path d="M34.3994 30.1003C34.3994 32.4748 36.3244 34.4012 38.6989 34.4012C41.0735 34.4012 42.9984 32.4748 42.9984 30.1003C42.9984 27.7257 41.0735 25.7993 38.6989 25.7993C36.3244 25.7993 34.3994 27.7257 34.3994 30.1003Z" fill="#FFFAF5"/>
<path d="M34.3994 12.9014C34.3994 15.2759 36.3245 17.2008 38.6989 17.2008C41.0734 17.2008 42.9984 15.2759 42.9984 12.9014C42.9984 10.5269 41.0734 8.60205 38.6989 8.60205C36.3245 8.60205 34.3994 10.5269 34.3994 12.9014Z" fill="#FFFAF5"/>
<path d="M34.3994 4.30096C34.3994 6.67551 36.3244 8.60191 38.6989 8.60191C41.0735 8.60191 42.9984 6.67551 42.9984 4.30096C42.9984 1.9264 41.0735 0 38.6989 0C36.3244 0 34.3994 1.9264 34.3994 4.30096Z" fill="#FFFAF5"/>
<path d="M25.7998 38.7007C25.7998 41.0752 27.7248 43.0001 30.0993 43.0001C32.4738 43.0001 34.3988 41.0752 34.3988 38.7007C34.3988 36.3263 32.4738 34.4014 30.0993 34.4014C27.7248 34.4014 25.7998 36.3263 25.7998 38.7007Z" fill="#FFFAF5"/>
<path d="M25.7998 30.1C25.7998 32.4746 27.7248 34.401 30.0993 34.401C32.4739 34.401 34.3988 32.4746 34.3988 30.1C34.3988 27.7255 32.4739 25.7991 30.0993 25.7991C27.7248 25.7991 25.7998 27.7255 25.7998 30.1Z" fill="#FFFAF5"/>
<path d="M25.7998 12.9014C25.7998 15.2759 27.7248 17.2008 30.0993 17.2008C32.4738 17.2008 34.3988 15.2759 34.3988 12.9014C34.3988 10.5269 32.4738 8.60205 30.0993 8.60205C27.7248 8.60205 25.7998 10.5269 25.7998 12.9014Z" fill="#FFFAF5"/>
<path d="M25.7998 4.30096C25.7998 6.67551 27.7248 8.60191 30.0993 8.60191C32.4739 8.60191 34.3988 6.67551 34.3988 4.30096C34.3988 1.9264 32.4739 0 30.0993 0C27.7248 0 25.7998 1.9264 25.7998 4.30096Z" fill="#FFFAF5"/>
<path d="M8.59863 38.7007C8.59863 41.0752 10.5237 43.0001 12.8981 43.0001C15.2726 43.0001 17.1977 41.0752 17.1977 38.7007C17.1977 36.3263 15.2726 34.4014 12.8981 34.4014C10.5237 34.4014 8.59863 36.3263 8.59863 38.7007Z" fill="#FFFAF5"/>
<path d="M8.59863 30.1003C8.59863 32.4748 10.5236 34.4012 12.8981 34.4012C15.2727 34.4012 17.1977 32.4748 17.1977 30.1003C17.1977 27.7257 15.2727 25.7993 12.8981 25.7993C10.5236 25.7993 8.59863 27.7257 8.59863 30.1003Z" fill="#FFFAF5"/>
<path d="M8.59863 12.9014C8.59863 15.2759 10.5237 17.2008 12.8981 17.2008C15.2726 17.2008 17.1977 15.2759 17.1977 12.9014C17.1977 10.5269 15.2726 8.60205 12.8981 8.60205C10.5237 8.60205 8.59863 10.5269 8.59863 12.9014Z" fill="#FFFAF5"/>
<path d="M8.59863 4.30096C8.59863 6.67551 10.5236 8.60191 12.8981 8.60191C15.2727 8.60191 17.1977 6.67551 17.1977 4.30096C17.1977 1.9264 15.2727 0 12.8981 0C10.5236 0 8.59863 1.9264 8.59863 4.30096Z" fill="#FFFAF5"/>
<path d="M0 38.7007C0 41.0752 1.92504 43.0001 4.29951 43.0001C6.67398 43.0001 8.59902 41.0752 8.59902 38.7007C8.59902 36.3263 6.67398 34.4014 4.29951 34.4014C1.92504 34.4014 0 36.3263 0 38.7007Z" fill="#FFFAF5"/>
<path d="M0 30.1C0 32.4746 1.92496 34.401 4.29951 34.401C6.67407 34.401 8.59902 32.4746 8.59902 30.1C8.59902 27.7255 6.67407 25.7991 4.29951 25.7991C1.92496 25.7991 0 27.7255 0 30.1Z" fill="#FFFAF5"/>
<path d="M0 12.9014C0 15.2759 1.92504 17.2008 4.29951 17.2008C6.67398 17.2008 8.59902 15.2759 8.59902 12.9014C8.59902 10.5269 6.67398 8.60205 4.29951 8.60205C1.92504 8.60205 0 10.5269 0 12.9014Z" fill="#FFFAF5"/>
<path d="M0 4.30096C0 6.67551 1.92496 8.60191 4.29951 8.60191C6.67407 8.60191 8.59902 6.67551 8.59902 4.30096C8.59902 1.9264 6.67407 0 4.29951 0C1.92496 0 0 1.9264 0 4.30096Z" fill="#FFFAF5"/>
<circle cx="21.3243" cy="21.325" r="10.2911" fill="#FFFAF5"/>
</svg>
